<svg width="144" height="144" viewBox="0 0 144 144" fill="none" xmlns="http://www.w3.org/2000/svg">
<rect width="144" height="144" rx="16" fill="#E17100"/>
<path d="M11.2424 57.5779C11.468 57.0226 11.7807 56.5865 12.1805 56.2697C12.6229 55.9596 13.2644 55.6598 14.1051 55.3702L47.3899 43.5229C47.6506 43.4374 47.9084 43.4147 48.1632 43.4549C48.5455 43.5151 48.8158 43.6843 48.974 43.9624C49.1322 44.2405 49.1388 44.5581 48.9938 44.915L45.079 54.5529C44.8373 55.1478 44.4741 55.597 43.9893 55.9004C43.5631 56.1709 43.1398 56.3785 42.7194 56.5233C42.3415 56.6747 42.1021 56.7636 42.001 56.7899L28.1928 61.5775L36.6846 69.8784C36.7535 69.9314 36.9307 70.107 37.2163 70.4052C37.5444 70.7101 37.7422 71.0578 37.8096 71.4482C37.9194 71.8453 37.8777 72.2818 37.6844 72.7578L33.7696 82.3956C33.6246 82.7526 33.3763 83.03 33.0248 83.2278C32.6733 83.4256 32.3064 83.4944 31.9241 83.4342C31.6692 83.3941 31.4598 83.2978 31.2957 83.1453L11.0603 62.8664C10.5418 62.3627 10.2063 61.9089 10.054 61.5051C9.94412 61.108 10.002 60.6318 10.2275 60.0766L11.2424 57.5779Z" fill="#FFFBEB"/>
<path d="M133.312 74.0903C133.176 74.6739 132.915 75.1428 132.527 75.497C132.183 75.8542 131.619 76.2174 130.836 76.5864L99.8902 91.5871C99.6467 91.6972 99.3962 91.7434 99.1388 91.7255C98.7527 91.6986 98.4599 91.5512 98.2606 91.2832C98.0612 91.0152 98.0051 90.6936 98.0921 90.3185L100.443 80.1902C100.588 79.5649 100.849 79.0961 101.227 78.7835C101.657 78.4323 102.047 78.1629 102.396 77.9754C102.787 77.7908 103.031 77.6807 103.126 77.645L115.984 71.551L106.319 63.8904C106.243 63.8428 106.019 63.679 105.648 63.3991C105.32 63.1221 105.071 62.7871 104.9 62.3941C104.773 62.0041 104.767 61.559 104.883 61.0588L107.234 50.9304C107.321 50.5553 107.523 50.2517 107.838 50.0195C108.154 49.7873 108.504 49.6846 108.89 49.7115C109.148 49.7294 109.369 49.8083 109.555 49.9483L132.664 68.7088C133.254 69.1733 133.634 69.6021 133.804 69.9952C134.018 70.3912 134.057 70.8809 133.921 71.4645L133.312 74.0903Z" fill="#FFFBEB"/>
<path d="M70.7276 110.543C61.3201 117.227 53.2565 115.891 42.5051 115.891C57.2883 103.86 42.2267 96.6695 45.1929 87.8182C48.1591 78.9669 64.2874 77.5444 72.0716 82.4712C79.8557 87.398 80.1352 103.86 70.7276 110.543Z" fill="#FFFBEB"/>
<path d="M57.2883 82.4711L84.7557 30.4308C85.22 29.551 86.1366 29 87.1355 29H92.3423C94.2304 29 95.53 30.8853 94.8496 32.6371L73.4155 87.8182" stroke="#FFFBEB" stroke-width="6"/>
</svg>
