<svg width="256" height="256" viewBox="0 0 256 256" fill="none" xmlns="http://www.w3.org/2000/svg">
<rect width="256" height="256" rx="16" fill="#E17100"/>
<path d="M67.2424 70.0779C67.468 69.5226 67.7807 69.0865 68.1805 68.7697C68.6229 68.4596 69.2644 68.1598 70.1051 67.8702L103.39 56.0229C103.651 55.9374 103.908 55.9147 104.163 55.9549C104.546 56.0151 104.816 56.1843 104.974 56.4624C105.132 56.7405 105.139 57.0581 104.994 57.415L101.079 67.0529C100.837 67.6478 100.474 68.097 99.9893 68.4004C99.5631 68.6709 99.1398 68.8785 98.7194 69.0233C98.3415 69.1747 98.1021 69.2636 98.001 69.2899L84.1928 74.0775L92.6846 82.3784C92.7535 82.4314 92.9307 82.607 93.2163 82.9052C93.5444 83.2101 93.7422 83.5578 93.8096 83.9482C93.9194 84.3453 93.8777 84.7818 93.6844 85.2578L89.7696 94.8956C89.6246 95.2526 89.3763 95.53 89.0248 95.7278C88.6733 95.9256 88.3064 95.9944 87.9241 95.9342C87.6692 95.8941 87.4598 95.7978 87.2957 95.6453L67.0603 75.3664C66.5418 74.8627 66.2063 74.4089 66.054 74.0051C65.9441 73.608 66.002 73.1318 66.2275 72.5766L67.2424 70.0779Z" fill="#FFFBEB"/>
<path d="M189.312 86.5903C189.176 87.1739 188.915 87.6428 188.527 87.997C188.183 88.3542 187.619 88.7174 186.836 89.0864L155.89 104.087C155.647 104.197 155.396 104.243 155.139 104.225C154.753 104.199 154.46 104.051 154.261 103.783C154.061 103.515 154.005 103.194 154.092 102.819L156.443 92.6902C156.588 92.0649 156.849 91.5961 157.227 91.2835C157.657 90.9323 158.047 90.6629 158.396 90.4754C158.787 90.2908 159.031 90.1807 159.126 90.145L171.984 84.051L162.319 76.3904C162.243 76.3428 162.019 76.179 161.648 75.8991C161.32 75.6221 161.071 75.2871 160.9 74.8941C160.773 74.5041 160.767 74.059 160.883 73.5588L163.234 63.4304C163.321 63.0553 163.523 62.7517 163.838 62.5195C164.153 62.2873 164.504 62.1846 164.89 62.2115C165.148 62.2294 165.369 62.3083 165.555 62.4483L188.664 81.2088C189.254 81.6733 189.634 82.1021 189.804 82.4952C190.018 82.8912 190.057 83.3809 189.921 83.9645L189.312 86.5903Z" fill="#FFFBEB"/>
<path d="M126.728 123.043C117.32 129.727 109.257 128.391 98.5051 128.391C113.288 116.36 98.2267 109.17 101.193 100.318C104.159 91.4669 120.287 90.0444 128.072 94.9712C135.856 99.898 136.135 116.36 126.728 123.043Z" fill="#FFFBEB"/>
<path d="M113.288 94.9711L140.756 42.9308C141.22 42.051 142.137 41.5 143.136 41.5H148.342C150.23 41.5 151.53 43.3853 150.85 45.1371L129.415 100.318" stroke="#FFFBEB" stroke-width="6"/>
<path d="M30.073 170.332C30.073 171.191 30.3588 171.851 30.9303 172.312C31.523 172.774 32.3168 173.004 33.3117 173.004C34.2008 173.004 34.857 172.857 35.2803 172.564C35.7037 172.271 36.0635 171.83 36.3599 171.244C36.6351 170.699 37.0055 170.426 37.4712 170.426H44.3296C44.5201 170.426 44.6789 170.5 44.8059 170.646C44.9541 170.772 45.0281 170.929 45.0281 171.118C45.0281 172.396 44.5942 173.654 43.7263 174.89C42.8584 176.106 41.5354 177.122 39.7573 177.94C38.0004 178.736 35.8518 179.134 33.3117 179.134C31.0467 179.134 29.0252 178.799 27.2471 178.128C25.4902 177.437 24.0931 176.389 23.0558 174.985C22.0186 173.559 21.5 171.789 21.5 169.672V165.962C21.5 163.846 22.0186 162.085 23.0558 160.681C24.0931 159.256 25.4902 158.208 27.2471 157.537C29.0252 156.846 31.0467 156.5 33.3117 156.5C35.8518 156.5 38.0004 156.909 39.7573 157.726C41.5354 158.522 42.8584 159.539 43.7263 160.775C44.5942 161.991 45.0281 163.238 45.0281 164.516C45.0281 164.705 44.9541 164.873 44.8059 165.019C44.6789 165.145 44.5201 165.208 44.3296 165.208H37.4712C37.0055 165.208 36.6351 164.935 36.3599 164.391C36.0635 163.804 35.7037 163.364 35.2803 163.07C34.857 162.777 34.2008 162.63 33.3117 162.63C32.3168 162.63 31.523 162.861 30.9303 163.322C30.3588 163.783 30.073 164.443 30.073 165.302V170.332Z" fill="#FFFBEB"/>
<path d="M72.5764 177.845C72.6187 177.929 72.6399 178.023 72.6399 178.128C72.6399 178.317 72.5658 178.484 72.4176 178.631C72.2906 178.757 72.1318 178.82 71.9413 178.82H64.7337C64.4373 178.82 64.1621 178.746 63.9081 178.6C63.6753 178.453 63.5059 178.264 63.4001 178.034L60.6059 171.809H57.9387V177.971C57.9387 178.202 57.8541 178.401 57.6847 178.568C57.5154 178.736 57.3143 178.82 57.0814 178.82H50.223C49.9902 178.82 49.7891 178.736 49.6198 178.568C49.4504 178.401 49.3657 178.202 49.3657 177.971V157.663C49.3657 157.433 49.4504 157.234 49.6198 157.066C49.7891 156.898 49.9902 156.814 50.223 156.814H62.5745C64.4796 156.814 66.1413 157.118 67.5596 157.726C68.999 158.334 70.0997 159.214 70.8618 160.367C71.6238 161.519 72.0048 162.871 72.0048 164.422C72.0048 167.272 70.8935 169.336 68.6709 170.615L72.5764 177.845ZM61.9077 165.994C62.3734 165.994 62.7333 165.847 62.9873 165.554C63.2413 165.239 63.3683 164.852 63.3683 164.391C63.3683 163.929 63.2413 163.531 62.9873 163.196C62.7544 162.84 62.3946 162.662 61.9077 162.662H57.9387V165.994H61.9077Z" fill="#FFFBEB"/>
<path d="M91.2658 172.375H97.0129C97.2458 172.375 97.4468 172.459 97.6162 172.627C97.7855 172.794 97.8702 172.994 97.8702 173.224V177.971C97.8702 178.202 97.7855 178.401 97.6162 178.568C97.4468 178.736 97.2458 178.82 97.0129 178.82H76.8822C76.6494 178.82 76.4483 178.736 76.2789 178.568C76.1096 178.401 76.0249 178.202 76.0249 177.971V173.224C76.0249 172.994 76.1096 172.794 76.2789 172.627C76.4483 172.459 76.6494 172.375 76.8822 172.375H82.6928V163.259H76.8822C76.6494 163.259 76.4483 163.175 76.2789 163.007C76.1096 162.84 76.0249 162.641 76.0249 162.41V157.663C76.0249 157.433 76.1096 157.234 76.2789 157.066C76.4483 156.898 76.6494 156.814 76.8822 156.814H97.0129C97.2458 156.814 97.4468 156.898 97.6162 157.066C97.7855 157.234 97.8702 157.433 97.8702 157.663V162.41C97.8702 162.641 97.7855 162.84 97.6162 163.007C97.4468 163.175 97.2458 163.259 97.0129 163.259H91.2658V172.375Z" fill="#FFFBEB"/>
<path d="M115.671 164.799C117.999 165.051 119.862 165.459 121.259 166.025C122.677 166.591 123.704 167.335 124.339 168.257C124.974 169.179 125.291 170.332 125.291 171.715C125.291 173.224 124.794 174.544 123.799 175.676C122.825 176.787 121.471 177.646 119.735 178.254C117.999 178.841 116.02 179.134 113.797 179.134C111.321 179.134 109.225 178.83 107.51 178.222C105.796 177.615 104.515 176.808 103.668 175.802C102.822 174.775 102.398 173.654 102.398 172.438C102.398 172.229 102.462 172.061 102.589 171.935C102.737 171.809 102.917 171.747 103.129 171.747H109.638C110.082 171.747 110.442 171.883 110.717 172.155C111.077 172.491 111.479 172.721 111.924 172.847C112.368 172.952 112.993 173.004 113.797 173.004C115.808 173.004 116.814 172.7 116.814 172.092C116.814 171.841 116.676 171.631 116.401 171.464C116.147 171.275 115.681 171.118 115.004 170.992C114.348 170.845 113.374 170.699 112.083 170.552C109.183 170.217 106.96 169.504 105.415 168.414C103.869 167.304 103.097 165.742 103.097 163.73C103.097 162.305 103.531 161.048 104.399 159.958C105.267 158.868 106.494 158.019 108.082 157.412C109.691 156.804 111.553 156.5 113.67 156.5C115.872 156.5 117.798 156.846 119.449 157.537C121.1 158.208 122.36 159.046 123.228 160.052C124.095 161.058 124.529 162.043 124.529 163.007C124.529 163.217 124.455 163.385 124.307 163.51C124.18 163.636 124 163.699 123.767 163.699H116.941C116.581 163.699 116.253 163.573 115.956 163.322C115.724 163.112 115.448 162.944 115.131 162.819C114.813 162.693 114.326 162.63 113.67 162.63C112.252 162.63 111.543 162.923 111.543 163.51C111.543 163.825 111.818 164.076 112.368 164.265C112.919 164.432 114.02 164.611 115.671 164.799Z" fill="#FFFBEB"/>
<path d="M151.855 156.814C152.088 156.814 152.289 156.898 152.459 157.066C152.628 157.234 152.713 157.433 152.713 157.663V162.724C152.713 162.955 152.628 163.154 152.459 163.322C152.289 163.489 152.088 163.573 151.855 163.573H145.029V177.971C145.029 178.202 144.944 178.401 144.775 178.568C144.605 178.736 144.404 178.82 144.171 178.82H137.63C137.398 178.82 137.197 178.736 137.027 178.568C136.858 178.401 136.773 178.202 136.773 177.971V163.573H129.947C129.714 163.573 129.513 163.489 129.343 163.322C129.174 163.154 129.089 162.955 129.089 162.724V157.663C129.089 157.433 129.174 157.234 129.343 157.066C129.513 156.898 129.714 156.814 129.947 156.814H151.855Z" fill="#FFFBEB"/>
<path d="M172.196 172.375H177.943C178.176 172.375 178.377 172.459 178.546 172.627C178.716 172.794 178.8 172.994 178.8 173.224V177.971C178.8 178.202 178.716 178.401 178.546 178.568C178.377 178.736 178.176 178.82 177.943 178.82H157.812C157.579 178.82 157.378 178.736 157.209 178.568C157.04 178.401 156.955 178.202 156.955 177.971V173.224C156.955 172.994 157.04 172.794 157.209 172.627C157.378 172.459 157.579 172.375 157.812 172.375H163.623V163.259H157.812C157.579 163.259 157.378 163.175 157.209 163.007C157.04 162.84 156.955 162.641 156.955 162.41V157.663C156.955 157.433 157.04 157.234 157.209 157.066C157.378 156.898 157.579 156.814 157.812 156.814H177.943C178.176 156.814 178.377 156.898 178.546 157.066C178.716 157.234 178.8 157.433 178.8 157.663V162.41C178.8 162.641 178.716 162.84 178.546 163.007C178.377 163.175 178.176 163.259 177.943 163.259H172.196V172.375Z" fill="#FFFBEB"/>
<path d="M190.282 177.751C190.007 178.464 189.531 178.82 188.853 178.82H182.852C182.662 178.82 182.492 178.757 182.344 178.631C182.217 178.484 182.154 178.317 182.154 178.128L182.185 177.94L189.107 157.852C189.192 157.579 189.351 157.338 189.584 157.129C189.816 156.919 190.134 156.814 190.536 156.814H199.363C199.765 156.814 200.083 156.919 200.316 157.129C200.548 157.338 200.707 157.579 200.792 157.852L207.714 177.94L207.746 178.128C207.746 178.317 207.671 178.484 207.523 178.631C207.396 178.757 207.238 178.82 207.047 178.82H201.046C200.369 178.82 199.892 178.464 199.617 177.751L198.823 175.55H191.076L190.282 177.751ZM194.95 162.882L192.695 169.42H197.204L194.95 162.882Z" fill="#FFFBEB"/>
<path d="M231.769 156.814C232.002 156.814 232.203 156.898 232.373 157.066C232.542 157.234 232.627 157.433 232.627 157.663V177.971C232.627 178.202 232.542 178.401 232.373 178.568C232.203 178.736 232.002 178.82 231.769 178.82H226.657C226.149 178.82 225.726 178.6 225.387 178.16L218.465 169.42V177.971C218.465 178.202 218.381 178.401 218.211 178.568C218.042 178.736 217.841 178.82 217.608 178.82H211.702C211.469 178.82 211.268 178.736 211.099 178.568C210.93 178.401 210.845 178.202 210.845 177.971V157.663C210.845 157.433 210.93 157.234 211.099 157.066C211.268 156.898 211.469 156.814 211.702 156.814H216.846C217.354 156.814 217.767 157.024 218.084 157.443L225.006 166.905V157.663C225.006 157.433 225.091 157.234 225.26 157.066C225.43 156.898 225.631 156.814 225.863 156.814H231.769Z" fill="#FFFBEB"/>
<path d="M43.2183 207.741C43.4511 207.741 43.6522 207.825 43.8216 207.993C43.9909 208.16 44.0756 208.359 44.0756 208.59V213.337C44.0756 213.567 43.9909 213.766 43.8216 213.934C43.6522 214.102 43.4511 214.186 43.2183 214.186H22.8336C22.6007 214.186 22.3996 214.102 22.2303 213.934C22.0609 213.766 21.9763 213.567 21.9763 213.337V208.81C21.9763 208.538 22.0292 208.307 22.135 208.118C22.2409 207.93 22.3467 207.794 22.4526 207.71L32.4861 198.625H23.5004C23.2675 198.625 23.0664 198.541 22.8971 198.373C22.7277 198.206 22.6431 198.006 22.6431 197.776V193.029C22.6431 192.798 22.7277 192.599 22.8971 192.432C23.0664 192.264 23.2675 192.18 23.5004 192.18H42.5515C42.7843 192.18 42.9854 192.264 43.1548 192.432C43.3241 192.599 43.4088 192.798 43.4088 193.029V197.524C43.4088 197.965 43.2712 198.31 42.996 198.562L33.0894 207.741H43.2183Z" fill="#FFFBEB"/>
<path d="M57.1767 213.337C57.1132 213.525 56.9544 213.714 56.7004 213.903C56.4676 214.091 56.1606 214.186 55.7796 214.186H51.3344C50.9322 214.186 50.5935 214.07 50.3183 213.84C50.0643 213.588 49.9161 213.305 49.8738 212.991L47.1114 192.966V192.872C47.1114 192.683 47.1749 192.526 47.3019 192.4C47.45 192.254 47.6194 192.18 47.8099 192.18H53.2712C53.6946 192.18 54.0333 192.306 54.2873 192.557C54.5625 192.809 54.7212 193.123 54.7636 193.501L55.7796 203.12L57.6212 198.122C57.6847 197.912 57.8329 197.713 58.0658 197.524C58.3198 197.315 58.6373 197.21 59.0183 197.21H61.1774C61.5585 197.21 61.8654 197.315 62.0982 197.524C62.3523 197.713 62.511 197.912 62.5745 198.122L64.4161 203.12L65.4322 193.501C65.4745 193.123 65.6227 192.809 65.8767 192.557C66.1519 192.306 66.5012 192.18 66.9245 192.18H72.3859C72.5764 192.18 72.7351 192.254 72.8621 192.4C73.0103 192.526 73.0844 192.683 73.0844 192.872V192.966L70.322 212.991C70.2796 213.305 70.1209 213.588 69.8457 213.84C69.5917 214.07 69.2636 214.186 68.8614 214.186H64.4161C64.0351 214.186 63.7176 214.091 63.4636 213.903C63.2307 213.714 63.0826 213.525 63.019 213.337L60.0979 206.704L57.1767 213.337Z" fill="#FFFBEB"/>
<path d="M97.2352 208.056C97.468 208.056 97.6691 208.139 97.8384 208.307C98.0078 208.475 98.0925 208.674 98.0925 208.904V213.337C98.0925 213.567 98.0078 213.766 97.8384 213.934C97.6691 214.102 97.468 214.186 97.2352 214.186H77.168C76.9351 214.186 76.734 214.102 76.5647 213.934C76.3953 213.766 76.3107 213.567 76.3107 213.337V193.029C76.3107 192.798 76.3953 192.599 76.5647 192.432C76.734 192.264 76.9351 192.18 77.168 192.18H96.9176C97.1505 192.18 97.3516 192.264 97.5209 192.432C97.6903 192.599 97.7749 192.798 97.7749 193.029V197.462C97.7749 197.692 97.6903 197.891 97.5209 198.059C97.3516 198.226 97.1505 198.31 96.9176 198.31H84.5662V200.291H95.1713C95.4041 200.291 95.6052 200.375 95.7746 200.542C95.9439 200.71 96.0286 200.909 96.0286 201.14V205.226C96.0286 205.457 95.9439 205.656 95.7746 205.824C95.6052 205.991 95.4041 206.075 95.1713 206.075H84.5662V208.056H97.2352Z" fill="#FFFBEB"/>
<path d="M118.243 207.741H123.99C124.222 207.741 124.424 207.825 124.593 207.993C124.762 208.16 124.847 208.359 124.847 208.59V213.337C124.847 213.567 124.762 213.766 124.593 213.934C124.424 214.102 124.222 214.186 123.99 214.186H103.859C103.626 214.186 103.425 214.102 103.256 213.934C103.086 213.766 103.002 213.567 103.002 213.337V208.59C103.002 208.359 103.086 208.16 103.256 207.993C103.425 207.825 103.626 207.741 103.859 207.741H109.669V198.625H103.859C103.626 198.625 103.425 198.541 103.256 198.373C103.086 198.206 103.002 198.006 103.002 197.776V193.029C103.002 192.798 103.086 192.599 103.256 192.432C103.425 192.264 103.626 192.18 103.859 192.18H123.99C124.222 192.18 124.424 192.264 124.593 192.432C124.762 192.599 124.847 192.798 124.847 193.029V197.776C124.847 198.006 124.762 198.206 124.593 198.373C124.424 198.541 124.222 198.625 123.99 198.625H118.243V207.741Z" fill="#FFFBEB"/>
<path d="M152.332 200.92C152.564 200.92 152.766 201.003 152.935 201.171C153.104 201.339 153.189 201.538 153.189 201.768V205.101C153.189 208.286 152.088 210.654 149.887 212.205C147.706 213.735 144.817 214.5 141.218 214.5C137.62 214.5 134.72 213.735 132.518 212.205C130.338 210.654 129.248 208.265 129.248 205.038V201.328C129.248 199.191 129.777 197.42 130.836 196.015C131.894 194.59 133.323 193.542 135.122 192.872C136.921 192.201 138.953 191.866 141.218 191.866C143.928 191.866 146.161 192.306 147.918 193.186C149.675 194.066 150.945 195.062 151.728 196.173C152.533 197.283 152.935 198.185 152.935 198.876C152.935 199.065 152.861 199.232 152.713 199.379C152.586 199.505 152.427 199.568 152.236 199.568H145.06C144.637 199.568 144.33 199.452 144.14 199.222C143.483 198.405 142.51 197.996 141.218 197.996C140.245 197.996 139.43 198.216 138.774 198.656C138.139 199.096 137.821 199.662 137.821 200.354V205.698C137.821 206.536 138.139 207.196 138.774 207.678C139.409 208.139 140.224 208.37 141.218 208.37C142.531 208.37 143.494 208.15 144.108 207.71C144.743 207.249 145.071 206.714 145.092 206.107H143.124C142.891 206.107 142.69 206.023 142.52 205.855C142.351 205.687 142.266 205.488 142.266 205.258V201.768C142.266 201.538 142.351 201.339 142.52 201.171C142.69 201.003 142.891 200.92 143.124 200.92H152.332Z" fill="#FFFBEB"/>
<path d="M178.229 207.741C178.462 207.741 178.663 207.825 178.832 207.993C179.001 208.16 179.086 208.359 179.086 208.59V213.337C179.086 213.567 179.001 213.766 178.832 213.934C178.663 214.102 178.462 214.186 178.229 214.186H159.686C159.453 214.186 159.252 214.102 159.082 213.934C158.913 213.766 158.828 213.567 158.828 213.337V193.029C158.828 192.798 158.913 192.599 159.082 192.432C159.252 192.264 159.453 192.18 159.686 192.18H166.544C166.777 192.18 166.978 192.264 167.147 192.432C167.317 192.599 167.401 192.798 167.401 193.029V207.741H178.229Z" fill="#FFFBEB"/>
<path d="M205.142 208.056C205.375 208.056 205.576 208.139 205.745 208.307C205.915 208.475 205.999 208.674 205.999 208.904V213.337C205.999 213.567 205.915 213.766 205.745 213.934C205.576 214.102 205.375 214.186 205.142 214.186H185.075C184.842 214.186 184.641 214.102 184.471 213.934C184.302 213.766 184.217 213.567 184.217 213.337V193.029C184.217 192.798 184.302 192.599 184.471 192.432C184.641 192.264 184.842 192.18 185.075 192.18H204.824C205.057 192.18 205.258 192.264 205.428 192.432C205.597 192.599 205.682 192.798 205.682 193.029V197.462C205.682 197.692 205.597 197.891 205.428 198.059C205.258 198.226 205.057 198.31 204.824 198.31H192.473V200.291H203.078C203.311 200.291 203.512 200.375 203.681 200.542C203.851 200.71 203.935 200.909 203.935 201.14V205.226C203.935 205.457 203.851 205.656 203.681 205.824C203.512 205.991 203.311 206.075 203.078 206.075H192.473V208.056H205.142Z" fill="#FFFBEB"/>
<path d="M234.436 213.211C234.479 213.295 234.5 213.389 234.5 213.494C234.5 213.683 234.426 213.85 234.278 213.997C234.151 214.123 233.992 214.186 233.801 214.186H226.594C226.297 214.186 226.022 214.112 225.768 213.966C225.535 213.819 225.366 213.63 225.26 213.4L222.466 207.175H219.799V213.337C219.799 213.567 219.714 213.766 219.545 213.934C219.376 214.102 219.174 214.186 218.942 214.186H212.083C211.85 214.186 211.649 214.102 211.48 213.934C211.311 213.766 211.226 213.567 211.226 213.337V193.029C211.226 192.798 211.311 192.599 211.48 192.432C211.649 192.264 211.85 192.18 212.083 192.18H224.435C226.34 192.18 228.001 192.484 229.42 193.092C230.859 193.7 231.96 194.58 232.722 195.733C233.484 196.885 233.865 198.237 233.865 199.788C233.865 202.638 232.754 204.702 230.531 205.981L234.436 213.211ZM223.768 201.36C224.234 201.36 224.593 201.213 224.847 200.92C225.101 200.605 225.228 200.217 225.228 199.756C225.228 199.295 225.101 198.897 224.847 198.562C224.615 198.206 224.255 198.027 223.768 198.027H219.799V201.36H223.768Z" fill="#FFFBEB"/>
</svg>
