<svg width="80" height="80" viewBox="0 0 80 80" fill="none" xmlns="http://www.w3.org/2000/svg">
<path d="M56.4772 44.4203C56.2536 44.366 56.0344 44.2948 55.8215 44.2073C55.6487 44.1286 55.4912 44.0197 55.3561 43.8855C55.4844 42.7556 55.3561 41.7738 55.4638 40.6624C55.8857 36.3512 58.5703 37.7173 60.9799 37.0111C62.4816 36.585 63.9833 35.7098 64.3615 33.9177C62.7403 31.999 60.8951 30.2855 58.8661 28.8146C52.3321 24.119 43.7943 22.2389 36.036 23.5424C37.221 25.6345 39.0114 27.3102 41.1669 28.3446C41.1669 28.3446 39.0646 28.3446 37.2625 26.9854C36.7352 27.1984 35.676 27.6198 35.1694 27.8745C37.1829 29.8294 39.8235 30.9907 42.6123 31.1479C45.401 31.3051 48.1531 30.4477 50.3696 28.7312C50.3466 28.7706 49.9454 29.3911 49.4594 31.9728C48.3818 37.4834 45.273 37.0551 41.426 35.6681C33.4361 32.7415 29.0388 35.4528 25.0451 29.9028C23.8827 30.565 23.1651 31.8014 23.1651 33.149C23.1651 34.5359 23.924 35.7098 25.0221 36.3512C25.6228 35.5454 25.8933 35.3185 26.9388 35.3185C25.3202 36.2447 25.1276 37.0551 24.4306 39.2964C23.587 42.0077 23.9446 44.7838 19.9921 45.5086C17.8989 45.6151 17.9425 47.046 17.1813 49.1808C16.2299 51.9569 14.962 53.066 12.4883 55.6916C13.5039 56.9304 14.5608 57.0809 15.6384 56.6317C17.8576 55.6916 19.5702 52.7881 21.1751 50.9104C22.9725 48.8172 27.285 49.7133 30.5405 47.6642C32.7804 46.2773 33.8809 44.3995 32.3999 41.2181C33.3524 42.2777 33.9193 43.6333 34.007 45.0617C37.7692 44.5685 42.8016 49.2016 47.3868 49.9703C46.9321 49.3904 46.5559 48.7519 46.268 48.0717C45.7407 46.789 45.5711 45.6174 45.6765 44.5917C46.0984 47.1316 48.634 50.3963 52.7149 50.6973C53.7512 50.7807 54.8929 50.6534 56.0759 50.2898C57.4928 49.8638 58.8042 49.3081 60.3678 49.6068C61.5301 49.8221 62.6077 50.4172 63.284 51.4221C64.2996 52.9155 66.5166 53.2373 67.5116 51.4012C65.2717 45.4877 59.0976 45.1034 56.4772 44.4203Z" fill="currentColor"/>
</svg>
