<svg width="14" height="16" viewBox="0 0 14 16" fill="none" xmlns="http://www.w3.org/2000/svg">
<path d="M5.18437 4.14062C3.9875 4.70312 3.09687 5.80625 2.81875 7.13125C3.00937 7.13438 4.76875 7.14062 6.76875 6.60938C6.05938 5.35313 5.29688 4.29375 5.18437 4.14062ZM6 3.85625C6.11875 4.01562 6.89375 5.07187 7.59375 6.35625C9.1125 5.78437 9.75313 4.92188 9.83125 4.8125C8.78125 3.88125 7.35313 3.52813 6 3.85625ZM8.66875 11.9375C8.60625 11.5625 8.35625 10.2562 7.75625 8.7C6.03438 9.2875 4.825 10.4625 4.37813 11.375C5.64375 12.3625 7.29375 12.5219 8.66875 11.9375ZM7.11875 7.26875C4.9875 7.90625 2.91875 7.88125 2.73125 7.875V8.00625C2.73125 9.10313 3.14687 10.1031 3.82812 10.8625C4.52187 9.67813 5.925 8.42812 7.46875 7.99375C7.3625 7.75 7.24375 7.50938 7.12187 7.26875H7.11875ZM9.38437 11.5469C10.3438 10.9 11.025 9.87187 11.2156 8.68437C11.0719 8.6375 9.89375 8.2875 8.55625 8.50313C9.11562 10.0375 9.34062 11.2875 9.38437 11.5469ZM8.29688 7.82812C9.71875 7.65 11.1313 7.93437 11.2719 7.96562C11.2625 6.95625 10.9031 6.03125 10.3062 5.30625C10.2156 5.42812 9.5 6.34375 7.92188 6.99062C8.07187 7.29688 8.18125 7.54688 8.29688 7.82812ZM12 1H2C0.896875 1 0 1.89688 0 3V13C0 14.1031 0.896875 15 2 15H12C13.1031 15 14 14.1031 14 13V3C14 1.89688 13.1031 1 12 1ZM7 3C8.32608 3 9.59785 3.52678 10.5355 4.46447C11.4732 5.40215 12 6.67392 12 8C12 9.32608 11.4732 10.5979 10.5355 11.5355C9.59785 12.4732 8.32608 13 7 13C5.67392 13 4.40215 12.4732 3.46447 11.5355C2.52678 10.5979 2 9.32608 2 8C2 6.67392 2.52678 5.40215 3.46447 4.46447C4.40215 3.52678 5.67392 3 7 3Z" fill="currentColor"/>
</svg>
