<svg width="80" height="80" viewBox="0 0 80 80" fill="none" xmlns="http://www.w3.org/2000/svg">
<path d="M24.6667 17C22.6333 17 20.6833 17.8077 19.2455 19.2455C17.8077 20.6833 17 22.6333 17 24.6667V55.3333C17 57.3667 17.8077 59.3167 19.2455 60.7545C20.6833 62.1923 22.6333 63 24.6667 63H55.3333C57.3667 63 59.3167 62.1923 60.7545 60.7545C62.1923 59.3167 63 57.3667 63 55.3333V24.6667C63 22.6333 62.1923 20.6833 60.7545 19.2455C59.3167 17.8077 57.3667 17 55.3333 17H24.6667ZM43.4091 50.3628C45.2491 51.845 47.0857 52.5759 48.9189 52.5554C50.0433 52.5554 50.9054 52.3493 51.5051 51.937C51.7843 51.7557 52.0115 51.5049 52.1643 51.2091C52.3171 50.9134 52.3903 50.5829 52.3766 50.2503C52.3804 49.8875 52.3046 49.5283 52.1545 49.198C52.0044 48.8677 51.7836 48.5744 51.5077 48.3388C50.908 47.8157 49.7733 47.291 48.1037 46.7646C46.0984 46.1853 44.5523 45.4357 43.4653 44.5157C42.3988 43.5957 41.8553 42.3119 41.8349 40.6644C41.8349 39.109 42.5096 37.8065 43.8589 36.757C45.1707 35.7075 46.8489 35.1828 48.8933 35.1828C51.7419 35.1828 54.0274 35.8762 55.7499 37.263L53.7821 40.3271C53.0735 39.7762 52.2607 39.3746 51.3927 39.1464C50.6126 38.8851 49.7976 38.7429 48.9751 38.7248C48.004 38.7248 47.2263 38.9028 46.6419 39.2589C46.0626 39.6167 45.773 40.0852 45.773 40.6644C45.773 41.3016 46.1282 41.8451 46.8387 42.2949C47.5542 42.7276 48.7724 43.2055 50.4931 43.7286C52.5733 44.347 54.0539 45.1716 54.9347 46.2023C55.8155 47.2331 56.2559 48.5449 56.2559 50.1379C56.2559 51.7683 55.6281 53.1739 54.3724 54.3546C53.1356 55.5165 51.3364 56.1256 48.9751 56.1818C45.8829 56.1818 43.2967 55.2541 41.2164 53.3988L43.4091 50.3628ZM29.2769 51.9932C29.8766 52.368 30.5981 52.5554 31.4414 52.5554C32.3223 52.5554 33.0531 52.3024 33.6341 51.7964C34.2134 51.2717 34.5039 50.3628 34.5056 49.0697V35.5201H38.3006V49.8006C38.2443 52.012 37.6071 53.6049 36.389 54.5794C35.7225 55.1429 34.9475 55.5639 34.112 55.8163C33.3372 56.0523 32.5325 56.1753 31.7226 56.1818C30.317 56.1818 29.0707 55.9381 27.9838 55.4509C26.8219 54.9279 25.8473 54.0002 25.0602 52.6679L27.7027 50.5033C28.1882 51.1593 28.713 51.6559 29.2769 51.9932Z" fill="currentColor"/>
</svg>
