<svg width="108" height="30" viewBox="0 0 108 30" fill="none" xmlns="http://www.w3.org/2000/svg">
<path d="M4.32 7.04C4.32 7.47733 4.464 7.81333 4.752 8.048C5.05067 8.28267 5.45067 8.4 5.952 8.4C6.4 8.4 6.73067 8.32533 6.944 8.176C7.15733 8.02667 7.33867 7.80267 7.488 7.504C7.62667 7.22667 7.81333 7.088 8.048 7.088H11.504C11.6 7.088 11.68 7.12533 11.744 7.2C11.8187 7.264 11.856 7.344 11.856 7.44C11.856 8.09067 11.6373 8.73067 11.2 9.36C10.7627 9.97867 10.096 10.496 9.2 10.912C8.31467 11.3173 7.232 11.52 5.952 11.52C4.81067 11.52 3.792 11.3493 2.896 11.008C2.01067 10.656 1.30667 10.1227 0.784 9.408C0.261333 8.68267 0 7.78133 0 6.704V4.816C0 3.73867 0.261333 2.84267 0.784 2.128C1.30667 1.40267 2.01067 0.869333 2.896 0.528C3.792 0.176 4.81067 0 5.952 0C7.232 0 8.31467 0.208 9.2 0.624001C10.096 1.02933 10.7627 1.54667 11.2 2.176C11.6373 2.79467 11.856 3.42933 11.856 4.08C11.856 4.176 11.8187 4.26133 11.744 4.336C11.68 4.4 11.6 4.432 11.504 4.432H8.048C7.81333 4.432 7.62667 4.29333 7.488 4.016C7.33867 3.71733 7.15733 3.49333 6.944 3.344C6.73067 3.19467 6.4 3.12 5.952 3.12C5.45067 3.12 5.05067 3.23733 4.752 3.472C4.464 3.70667 4.32 4.04267 4.32 4.48V7.04Z" fill="currentColor"/>
<path d="M25.7378 10.864C25.7591 10.9067 25.7698 10.9547 25.7698 11.008C25.7698 11.104 25.7324 11.1893 25.6578 11.264C25.5938 11.328 25.5138 11.36 25.4178 11.36H21.7858C21.6364 11.36 21.4978 11.3227 21.3698 11.248C21.2524 11.1733 21.1671 11.0773 21.1138 10.96L19.7057 7.792H18.3617V10.928C18.3617 11.0453 18.3191 11.1467 18.2337 11.232C18.1484 11.3173 18.0471 11.36 17.9298 11.36H14.4738C14.3564 11.36 14.2551 11.3173 14.1698 11.232C14.0844 11.1467 14.0417 11.0453 14.0417 10.928V0.592C14.0417 0.474667 14.0844 0.373334 14.1698 0.288C14.2551 0.202667 14.3564 0.16 14.4738 0.16H20.6978C21.6577 0.16 22.4951 0.314667 23.2098 0.624001C23.9351 0.933334 24.4898 1.38133 24.8738 1.968C25.2578 2.55467 25.4498 3.24267 25.4498 4.032C25.4498 5.48267 24.8897 6.53333 23.7698 7.184L25.7378 10.864ZM20.3617 4.832C20.5964 4.832 20.7778 4.75733 20.9058 4.608C21.0338 4.448 21.0977 4.25067 21.0977 4.016C21.0977 3.78133 21.0338 3.57867 20.9058 3.408C20.7884 3.22667 20.6071 3.136 20.3617 3.136H18.3617V4.832H20.3617Z" fill="currentColor"/>
<path d="M35.1555 8.08H38.0515C38.1688 8.08 38.2702 8.12267 38.3555 8.208C38.4408 8.29333 38.4835 8.39467 38.4835 8.512V10.928C38.4835 11.0453 38.4408 11.1467 38.3555 11.232C38.2702 11.3173 38.1688 11.36 38.0515 11.36H27.9075C27.7902 11.36 27.6888 11.3173 27.6035 11.232C27.5182 11.1467 27.4755 11.0453 27.4755 10.928V8.512C27.4755 8.39467 27.5182 8.29333 27.6035 8.208C27.6888 8.12267 27.7902 8.08 27.9075 8.08H30.8355V3.44H27.9075C27.7902 3.44 27.6888 3.39733 27.6035 3.312C27.5182 3.22667 27.4755 3.12533 27.4755 3.008V0.592C27.4755 0.474667 27.5182 0.373334 27.6035 0.288C27.6888 0.202667 27.7902 0.16 27.9075 0.16H38.0515C38.1688 0.16 38.2702 0.202667 38.3555 0.288C38.4408 0.373334 38.4835 0.474667 38.4835 0.592V3.008C38.4835 3.12533 38.4408 3.22667 38.3555 3.312C38.2702 3.39733 38.1688 3.44 38.0515 3.44H35.1555V8.08Z" fill="currentColor"/>
<path d="M47.4533 4.224C48.6266 4.352 49.5653 4.56 50.2692 4.848C50.9839 5.136 51.5013 5.51467 51.8213 5.984C52.1413 6.45333 52.3013 7.04 52.3013 7.744C52.3013 8.512 52.0506 9.184 51.5493 9.76C51.0586 10.3253 50.3759 10.7627 49.5013 11.072C48.6266 11.3707 47.6292 11.52 46.5093 11.52C45.2612 11.52 44.2052 11.3653 43.3413 11.056C42.4773 10.7467 41.8319 10.336 41.4053 9.824C40.9786 9.30133 40.7653 8.73067 40.7653 8.112C40.7653 8.00533 40.7973 7.92 40.8613 7.856C40.9359 7.792 41.0266 7.76 41.1333 7.76H44.4132C44.6372 7.76 44.8186 7.82933 44.9572 7.968C45.1386 8.13867 45.3413 8.256 45.5653 8.32C45.7892 8.37333 46.1039 8.4 46.5093 8.4C47.5226 8.4 48.0293 8.24533 48.0293 7.936C48.0293 7.808 47.9599 7.70133 47.8213 7.616C47.6933 7.52 47.4586 7.44 47.1172 7.376C46.7866 7.30133 46.2959 7.22667 45.6452 7.152C44.1839 6.98133 43.0639 6.61867 42.2853 6.064C41.5066 5.49867 41.1172 4.704 41.1172 3.68C41.1172 2.95467 41.3359 2.31467 41.7733 1.76C42.2106 1.20533 42.8293 0.773334 43.6292 0.464C44.4399 0.154667 45.3786 0 46.4453 0C47.5546 0 48.5252 0.176 49.3573 0.528C50.1893 0.869333 50.8239 1.296 51.2612 1.808C51.6986 2.32 51.9173 2.82133 51.9173 3.312C51.9173 3.41867 51.8799 3.504 51.8053 3.568C51.7413 3.632 51.6506 3.664 51.5332 3.664H48.0933C47.9119 3.664 47.7466 3.6 47.5973 3.472C47.4799 3.36533 47.3413 3.28 47.1813 3.216C47.0213 3.152 46.7759 3.12 46.4453 3.12C45.7306 3.12 45.3732 3.26933 45.3732 3.568C45.3732 3.728 45.5119 3.856 45.7892 3.952C46.0666 4.03733 46.6213 4.128 47.4533 4.224Z" fill="currentColor"/>
<path d="M65.687 0.16C65.8043 0.16 65.9057 0.202667 65.991 0.288C66.0763 0.373334 66.119 0.474667 66.119 0.592V3.168C66.119 3.28533 66.0763 3.38667 65.991 3.472C65.9057 3.55733 65.8043 3.6 65.687 3.6H62.247V10.928C62.247 11.0453 62.2043 11.1467 62.119 11.232C62.0337 11.3173 61.9323 11.36 61.815 11.36H58.519C58.4017 11.36 58.3003 11.3173 58.215 11.232C58.1297 11.1467 58.087 11.0453 58.087 10.928V3.6H54.647C54.5297 3.6 54.4283 3.55733 54.343 3.472C54.2577 3.38667 54.215 3.28533 54.215 3.168V0.592C54.215 0.474667 54.2577 0.373334 54.343 0.288C54.4283 0.202667 54.5297 0.16 54.647 0.16H65.687Z" fill="currentColor"/>
<path d="M75.9368 8.08H78.8327C78.9501 8.08 79.0514 8.12267 79.1367 8.208C79.2221 8.29333 79.2647 8.39467 79.2647 8.512V10.928C79.2647 11.0453 79.2221 11.1467 79.1367 11.232C79.0514 11.3173 78.9501 11.36 78.8327 11.36H68.6888C68.5714 11.36 68.4701 11.3173 68.3848 11.232C68.2994 11.1467 68.2568 11.0453 68.2568 10.928V8.512C68.2568 8.39467 68.2994 8.29333 68.3848 8.208C68.4701 8.12267 68.5714 8.08 68.6888 8.08H71.6168V3.44H68.6888C68.5714 3.44 68.4701 3.39733 68.3848 3.312C68.2994 3.22667 68.2568 3.12533 68.2568 3.008V0.592C68.2568 0.474667 68.2994 0.373334 68.3848 0.288C68.4701 0.202667 68.5714 0.16 68.6888 0.16H78.8327C78.9501 0.16 79.0514 0.202667 79.1367 0.288C79.2221 0.373334 79.2647 0.474667 79.2647 0.592V3.008C79.2647 3.12533 79.2221 3.22667 79.1367 3.312C79.0514 3.39733 78.9501 3.44 78.8327 3.44H75.9368V8.08Z" fill="currentColor"/>
<path d="M85.0505 10.816C84.9118 11.1787 84.6718 11.36 84.3305 11.36H81.3065C81.2105 11.36 81.1252 11.328 81.0505 11.264C80.9865 11.1893 80.9545 11.104 80.9545 11.008L80.9705 10.912L84.4585 0.688C84.5012 0.549334 84.5812 0.426667 84.6985 0.32C84.8158 0.213333 84.9758 0.16 85.1785 0.16H89.6265C89.8292 0.16 89.9892 0.213333 90.1065 0.32C90.2238 0.426667 90.3038 0.549334 90.3465 0.688L93.8345 10.912L93.8505 11.008C93.8505 11.104 93.8132 11.1893 93.7385 11.264C93.6745 11.328 93.5945 11.36 93.4985 11.36H90.4745C90.1332 11.36 89.8932 11.1787 89.7545 10.816L89.3545 9.696H85.4505L85.0505 10.816ZM87.4025 3.248L86.2665 6.576H88.5385L87.4025 3.248Z" fill="currentColor"/>
<path d="M105.956 0.16C106.074 0.16 106.175 0.202667 106.26 0.288C106.346 0.373334 106.388 0.474667 106.388 0.592V10.928C106.388 11.0453 106.346 11.1467 106.26 11.232C106.175 11.3173 106.074 11.36 105.956 11.36H103.38C103.124 11.36 102.911 11.248 102.74 11.024L99.2523 6.576V10.928C99.2523 11.0453 99.2096 11.1467 99.1243 11.232C99.0389 11.3173 98.9376 11.36 98.8203 11.36H95.8443C95.7269 11.36 95.6256 11.3173 95.5403 11.232C95.4549 11.1467 95.4122 11.0453 95.4122 10.928V0.592C95.4122 0.474667 95.4549 0.373334 95.5403 0.288C95.6256 0.202667 95.7269 0.16 95.8443 0.16H98.4362C98.6922 0.16 98.9003 0.266667 99.0602 0.48L102.548 5.296V0.592C102.548 0.474667 102.591 0.373334 102.676 0.288C102.762 0.202667 102.863 0.16 102.98 0.16H105.956Z" fill="currentColor"/>
<path d="M10.944 26.08C11.0613 26.08 11.1627 26.1227 11.248 26.208C11.3333 26.2933 11.376 26.3947 11.376 26.512V28.928C11.376 29.0453 11.3333 29.1467 11.248 29.232C11.1627 29.3173 11.0613 29.36 10.944 29.36H0.672C0.554667 29.36 0.453333 29.3173 0.368 29.232C0.282667 29.1467 0.24 29.0453 0.24 28.928V26.624C0.24 26.4853 0.266667 26.368 0.32 26.272C0.373333 26.176 0.426667 26.1067 0.48 26.064L5.536 21.44H1.008C0.890667 21.44 0.789333 21.3973 0.704 21.312C0.618667 21.2267 0.576 21.1253 0.576 21.008V18.592C0.576 18.4747 0.618667 18.3733 0.704 18.288C0.789333 18.2027 0.890667 18.16 1.008 18.16H10.608C10.7253 18.16 10.8267 18.2027 10.912 18.288C10.9973 18.3733 11.04 18.4747 11.04 18.592V20.88C11.04 21.104 10.9707 21.28 10.832 21.408L5.84 26.08H10.944Z" fill="currentColor"/>
<path d="M17.9778 28.928C17.9458 29.024 17.8658 29.12 17.7378 29.216C17.6204 29.312 17.4657 29.36 17.2738 29.36H15.0338C14.8311 29.36 14.6604 29.3013 14.5218 29.184C14.3938 29.056 14.3191 28.912 14.2978 28.752L12.9058 18.56V18.512C12.9058 18.416 12.9377 18.336 13.0017 18.272C13.0764 18.1973 13.1617 18.16 13.2577 18.16H16.0098C16.2231 18.16 16.3937 18.224 16.5217 18.352C16.6604 18.48 16.7404 18.64 16.7617 18.832L17.2738 23.728L18.2017 21.184C18.2337 21.0773 18.3084 20.976 18.4258 20.88C18.5538 20.7733 18.7138 20.72 18.9058 20.72H19.9937C20.1857 20.72 20.3404 20.7733 20.4578 20.88C20.5858 20.976 20.6658 21.0773 20.6978 21.184L21.6257 23.728L22.1378 18.832C22.1591 18.64 22.2337 18.48 22.3617 18.352C22.5004 18.224 22.6764 18.16 22.8898 18.16H25.6418C25.7378 18.16 25.8178 18.1973 25.8818 18.272C25.9564 18.336 25.9938 18.416 25.9938 18.512V18.56L24.6018 28.752C24.5804 28.912 24.5004 29.056 24.3618 29.184C24.2338 29.3013 24.0684 29.36 23.8658 29.36H21.6257C21.4338 29.36 21.2738 29.312 21.1458 29.216C21.0284 29.12 20.9538 29.024 20.9218 28.928L19.4498 25.552L17.9778 28.928Z" fill="currentColor"/>
<path d="M38.1635 26.24C38.2808 26.24 38.3822 26.2827 38.4675 26.368C38.5528 26.4533 38.5955 26.5547 38.5955 26.672V28.928C38.5955 29.0453 38.5528 29.1467 38.4675 29.232C38.3822 29.3173 38.2808 29.36 38.1635 29.36H28.0515C27.9342 29.36 27.8328 29.3173 27.7475 29.232C27.6622 29.1467 27.6195 29.0453 27.6195 28.928V18.592C27.6195 18.4747 27.6622 18.3733 27.7475 18.288C27.8328 18.2027 27.9342 18.16 28.0515 18.16H38.0035C38.1208 18.16 38.2222 18.2027 38.3075 18.288C38.3928 18.3733 38.4355 18.4747 38.4355 18.592V20.848C38.4355 20.9653 38.3928 21.0667 38.3075 21.152C38.2222 21.2373 38.1208 21.28 38.0035 21.28H31.7795V22.288H37.1235C37.2408 22.288 37.3422 22.3307 37.4275 22.416C37.5128 22.5013 37.5555 22.6027 37.5555 22.72V24.8C37.5555 24.9173 37.5128 25.0187 37.4275 25.104C37.3422 25.1893 37.2408 25.232 37.1235 25.232H31.7795V26.24H38.1635Z" fill="currentColor"/>
<path d="M48.7493 26.08H51.6453C51.7626 26.08 51.8639 26.1227 51.9492 26.208C52.0346 26.2933 52.0773 26.3947 52.0773 26.512V28.928C52.0773 29.0453 52.0346 29.1467 51.9492 29.232C51.8639 29.3173 51.7626 29.36 51.6453 29.36H41.5013C41.3839 29.36 41.2826 29.3173 41.1973 29.232C41.1119 29.1467 41.0692 29.0453 41.0692 28.928V26.512C41.0692 26.3947 41.1119 26.2933 41.1973 26.208C41.2826 26.1227 41.3839 26.08 41.5013 26.08H44.4292V21.44H41.5013C41.3839 21.44 41.2826 21.3973 41.1973 21.312C41.1119 21.2267 41.0692 21.1253 41.0692 21.008V18.592C41.0692 18.4747 41.1119 18.3733 41.1973 18.288C41.2826 18.2027 41.3839 18.16 41.5013 18.16H51.6453C51.7626 18.16 51.8639 18.2027 51.9492 18.288C52.0346 18.3733 52.0773 18.4747 52.0773 18.592V21.008C52.0773 21.1253 52.0346 21.2267 51.9492 21.312C51.8639 21.3973 51.7626 21.44 51.6453 21.44H48.7493V26.08Z" fill="currentColor"/>
<path d="M65.927 22.608C66.0443 22.608 66.1457 22.6507 66.231 22.736C66.3163 22.8213 66.359 22.9227 66.359 23.04V24.736C66.359 26.3573 65.8043 27.5627 64.695 28.352C63.5963 29.1307 62.1403 29.52 60.327 29.52C58.5137 29.52 57.0523 29.1307 55.943 28.352C54.8443 27.5627 54.295 26.3467 54.295 24.704V22.816C54.295 21.728 54.5617 20.8267 55.095 20.112C55.6283 19.3867 56.3483 18.8533 57.255 18.512C58.1617 18.1707 59.1857 18 60.327 18C61.6923 18 62.8177 18.224 63.703 18.672C64.5883 19.12 65.2283 19.6267 65.623 20.192C66.0283 20.7573 66.231 21.216 66.231 21.568C66.231 21.664 66.1937 21.7493 66.119 21.824C66.055 21.888 65.975 21.92 65.879 21.92H62.263C62.0497 21.92 61.895 21.8613 61.799 21.744C61.4683 21.328 60.9777 21.12 60.327 21.12C59.8363 21.12 59.4257 21.232 59.095 21.456C58.775 21.68 58.615 21.968 58.615 22.32V25.04C58.615 25.4667 58.775 25.8027 59.095 26.048C59.415 26.2827 59.8257 26.4 60.327 26.4C60.9883 26.4 61.4737 26.288 61.783 26.064C62.103 25.8293 62.2683 25.5573 62.279 25.248H61.287C61.1697 25.248 61.0683 25.2053 60.983 25.12C60.8977 25.0347 60.855 24.9333 60.855 24.816V23.04C60.855 22.9227 60.8977 22.8213 60.983 22.736C61.0683 22.6507 61.1697 22.608 61.287 22.608H65.927Z" fill="currentColor"/>
<path d="M78.9768 26.08C79.0941 26.08 79.1954 26.1227 79.2808 26.208C79.3661 26.2933 79.4088 26.3947 79.4088 26.512V28.928C79.4088 29.0453 79.3661 29.1467 79.2808 29.232C79.1954 29.3173 79.0941 29.36 78.9768 29.36H69.6328C69.5154 29.36 69.4141 29.3173 69.3288 29.232C69.2434 29.1467 69.2008 29.0453 69.2008 28.928V18.592C69.2008 18.4747 69.2434 18.3733 69.3288 18.288C69.4141 18.2027 69.5154 18.16 69.6328 18.16H73.0888C73.2061 18.16 73.3074 18.2027 73.3928 18.288C73.4781 18.3733 73.5208 18.4747 73.5208 18.592V26.08H78.9768Z" fill="currentColor"/>
<path d="M92.5385 26.24C92.6558 26.24 92.7572 26.2827 92.8425 26.368C92.9278 26.4533 92.9705 26.5547 92.9705 26.672V28.928C92.9705 29.0453 92.9278 29.1467 92.8425 29.232C92.7572 29.3173 92.6558 29.36 92.5385 29.36H82.4265C82.3092 29.36 82.2078 29.3173 82.1225 29.232C82.0372 29.1467 81.9945 29.0453 81.9945 28.928V18.592C81.9945 18.4747 82.0372 18.3733 82.1225 18.288C82.2078 18.2027 82.3092 18.16 82.4265 18.16H92.3785C92.4958 18.16 92.5972 18.2027 92.6825 18.288C92.7678 18.3733 92.8105 18.4747 92.8105 18.592V20.848C92.8105 20.9653 92.7678 21.0667 92.6825 21.152C92.5972 21.2373 92.4958 21.28 92.3785 21.28H86.1545V22.288H91.4985C91.6158 22.288 91.7172 22.3307 91.8025 22.416C91.8878 22.5013 91.9305 22.6027 91.9305 22.72V24.8C91.9305 24.9173 91.8878 25.0187 91.8025 25.104C91.7172 25.1893 91.6158 25.232 91.4985 25.232H86.1545V26.24H92.5385Z" fill="currentColor"/>
<path d="M107.3 28.864C107.322 28.9067 107.332 28.9547 107.332 29.008C107.332 29.104 107.295 29.1893 107.22 29.264C107.156 29.328 107.076 29.36 106.98 29.36H103.348C103.199 29.36 103.06 29.3227 102.932 29.248C102.815 29.1733 102.73 29.0773 102.676 28.96L101.268 25.792H99.9242V28.928C99.9242 29.0453 99.8816 29.1467 99.7962 29.232C99.7109 29.3173 99.6096 29.36 99.4922 29.36H96.0362C95.9189 29.36 95.8176 29.3173 95.7322 29.232C95.6469 29.1467 95.6042 29.0453 95.6042 28.928V18.592C95.6042 18.4747 95.6469 18.3733 95.7322 18.288C95.8176 18.2027 95.9189 18.16 96.0362 18.16H102.26C103.22 18.16 104.058 18.3147 104.772 18.624C105.498 18.9333 106.052 19.3813 106.436 19.968C106.82 20.5547 107.012 21.2427 107.012 22.032C107.012 23.4827 106.452 24.5333 105.332 25.184L107.3 28.864ZM101.924 22.832C102.159 22.832 102.34 22.7573 102.468 22.608C102.596 22.448 102.66 22.2507 102.66 22.016C102.66 21.7813 102.596 21.5787 102.468 21.408C102.351 21.2267 102.17 21.136 101.924 21.136H99.9242V22.832H101.924Z" fill="currentColor"/>
</svg>
