<svg width="40" height="40" viewBox="0 0 40 40" fill="none" xmlns="http://www.w3.org/2000/svg">
<g clip-path="url(#clip0_177_1356)">
<path d="M18.7042 10.4043L9.35474 12.4497C7.39719 12.878 5.85908 14.4098 5.40484 16.3835L2.22131 30.216C2.18827 30.3595 2.15499 30.4963 2.123 30.6278C1.91352 31.489 1.75905 32.1241 2.08493 32.9537C2.34135 33.6065 3.46285 33.375 3.41762 32.6741C3.38525 32.1726 3.42426 31.6572 3.5431 31.1408L6.72663 17.3084C7.18088 15.3347 8.71898 13.8029 10.6765 13.3746L18.7142 11.6161C19.1803 18.6496 27.45 19.4458 29.3865 19.6075L31.3601 20.1018L32.1824 22.9028L31.3601 24.3857L29.3865 24.7153L24.6169 25.5391L19.5184 28.5049L15.9002 34.7661L16.2003 38.8256L4.67411 36.9011C1.48979 36.3694 -0.584938 33.2544 0.147253 30.1046L3.58427 15.3186C4.07469 13.2088 5.73526 11.5714 7.84868 11.1136L18.9043 8.71884C18.7982 9.25161 18.7296 9.81324 18.7042 10.4043Z" fill="#BAD4C4"/>
<path d="M36.8881 6.06921C36.9882 6.24959 37.0653 6.42417 37.1164 6.59077C37.7743 8.73275 37.1164 14.8292 35.3073 16.3121C33.8845 17.4783 37.1662 18.3685 39.1529 18.4506L39.9584 11.7636C40.2583 9.2745 38.9055 7.07575 36.8881 6.06921Z" fill="#BAD4C4"/>
<path fill-rule="evenodd" clip-rule="evenodd" d="M28.1556 18.6621C29.0074 18.6621 29.9055 18.2271 30.7297 18.5885C30.8303 18.6326 30.9676 18.6971 31.127 18.7836C31.442 18.9544 31.8642 19.222 32.2639 19.604C33.0907 20.3943 33.8331 21.7096 33.2921 23.5164L33.2878 23.5307L33.283 23.545C33.0746 24.1715 32.7423 24.7091 32.3085 25.0891C31.8774 25.4666 31.295 25.7245 30.656 25.6362C25.5854 24.9355 20.6265 27.5215 18.2908 32.0844L16.7905 35.3191C16.3741 36.1326 16.8439 37.1202 17.7369 37.3085L21.2231 38.0438C21.7564 38.1563 22.0977 38.6806 21.9854 39.2149C21.8732 39.7491 21.3498 40.0911 20.8165 39.9786L17.3303 39.2433C15.1638 38.7864 14.0241 36.3906 15.0344 34.4169L16.5347 31.1822C19.2491 25.8794 24.7814 23.5619 30.3733 23.7266C30.5377 23.7266 30.9539 23.6492 31.0095 23.6005C31.1275 23.4971 31.2861 23.2873 31.406 22.9338C31.6702 22.0338 31.3447 21.4582 30.9016 21.0346C30.6592 20.803 30.3733 20.596 30.0763 20.4646C29.7794 20.3331 28.813 20.6393 28.1556 20.6393C22.4157 20.6393 17.8549 16.07 17.8549 10.3196C17.8549 4.56924 22.4157 0 28.1556 0C33.8955 0 38.4564 4.56924 38.4564 10.3196C38.4564 12.9717 37.4863 15.3726 35.8778 17.1898C35.5261 17.5871 34.9174 17.574 34.5426 17.1985C34.1475 16.8027 34.1659 16.1601 34.5267 15.7327C35.7507 14.2828 36.4828 12.3982 36.4828 10.3196C36.4828 5.66123 32.8055 1.97722 28.1556 1.97722C23.5057 1.97722 19.8285 5.66123 19.8285 10.3196C19.8285 14.9781 23.5057 18.6621 28.1556 18.6621Z" fill="#045762"/>
</g>
<defs>
<clipPath id="clip0_177_1356">
<rect width="40" height="40" fill="white"/>
</clipPath>
</defs>
</svg>
