<svg width="256" height="256" viewBox="0 0 256 256" fill="none" xmlns="http://www.w3.org/2000/svg">
<path d="M121.262 78.1021L72.6446 88.7384C62.4654 90.9654 54.4672 98.9309 52.1052 109.194L35.5508 181.123C35.379 181.869 35.206 182.581 35.0396 183.265C33.9503 187.743 33.147 191.045 34.8416 195.359C36.175 198.753 42.0068 197.55 41.7716 193.905C41.6033 191.297 41.8062 188.617 42.4241 185.932L58.9785 114.003C61.3406 103.74 69.3387 95.7746 79.518 93.5477L121.314 84.4036C123.738 120.978 166.74 125.118 176.81 125.959L187.072 128.529L191.349 143.094L187.072 150.806L176.81 152.519L152.008 156.803L125.496 172.225L106.681 204.784L108.242 225.893L48.3054 215.885C31.7469 213.121 20.9583 196.923 24.7657 180.544L42.6382 103.656C45.1884 92.6857 53.8234 84.171 64.8132 81.7905L122.302 69.3377C121.751 72.1081 121.394 75.0286 121.262 78.1021Z" fill="#BAD4C4"/>
<path d="M215.818 55.5597C216.339 56.4977 216.739 57.4054 217.006 58.2718C220.426 69.4101 217.006 101.112 207.598 108.823C200.2 114.887 217.264 119.516 227.595 119.943L231.784 85.1706C233.343 72.2272 226.309 60.7937 215.818 55.5597Z" fill="#BAD4C4"/>
<path fill-rule="evenodd" clip-rule="evenodd" d="M170.409 121.043C174.838 121.043 179.509 118.781 183.795 120.66C184.318 120.89 185.031 121.225 185.861 121.675C187.498 122.563 189.694 123.954 191.772 125.941C196.072 130.05 199.932 136.89 197.119 146.285L197.097 146.36L197.072 146.434C195.988 149.692 194.26 152.487 192.004 154.463C189.763 156.426 186.734 157.767 183.411 157.308C157.044 153.665 131.258 167.112 119.113 190.839L111.311 207.659C109.146 211.89 111.588 217.025 116.232 218.004L134.36 221.828C137.133 222.413 138.908 225.139 138.324 227.917C137.741 230.695 135.019 232.474 132.246 231.889L114.118 228.065C102.852 225.689 96.9254 213.231 102.179 202.968L109.981 186.147C124.096 158.573 152.863 146.522 181.941 147.378C182.796 147.378 184.961 146.976 185.249 146.723C185.863 146.185 186.688 145.094 187.311 143.256C188.685 138.576 186.992 135.583 184.688 133.38C183.428 132.175 181.941 131.099 180.397 130.416C178.853 129.732 173.828 131.324 170.409 131.324C140.562 131.324 116.845 107.564 116.845 77.6621C116.845 47.76 140.562 24 170.409 24C200.257 24 223.974 47.76 223.974 77.6621C223.974 91.4529 218.929 103.937 210.565 113.387C208.736 115.453 205.571 115.385 203.622 113.432C201.567 111.374 201.663 108.032 203.539 105.81C209.904 98.2706 213.711 88.4707 213.711 77.6621C213.711 53.4384 194.589 34.2815 170.409 34.2815C146.23 34.2815 127.108 53.4384 127.108 77.6621C127.108 101.886 146.23 121.043 170.409 121.043Z" fill="#045762"/>
</svg>
