<svg width="40" height="40" viewBox="0 0 40 40" fill="none" xmlns="http://www.w3.org/2000/svg">
<g clip-path="url(#clip0_177_1369)">
<path d="M14.0245 16.5625L12.462 9.6875V5.811C8.77187 5.08383 5.90911 5.01709 4.92015 6.00664C3.88206 7.04535 4.19807 10.6736 5.32765 15.3125C5.47984 15.9375 5.06463 16.0249 4.90715 15.4687C3.45513 10.341 2.87952 6.10609 3.95632 5.02929C4.98805 3.99756 8.33269 4.26889 12.462 5.26546V4.25817C7.6406 3.00114 3.63463 2.57743 2.46206 3.75C0.303599 5.90846 4.44216 20.102 9.25583 29.9186L14.0245 17.6562V16.5625Z" fill="#BAD4C4"/>
<path d="M14.1163 37.7011C14.9721 38.6307 15.7867 39.2231 16.5245 39.375C22.5974 40.625 31.7405 38.0061 35.8995 33.125C40.0586 28.2439 38.087 19.6875 34.6495 14.6875C33.5934 13.1513 30.4576 11.2169 26.5245 9.36907V10.625L23.3995 18.125L25.2745 20.3125L31.212 33.125V35L30.4308 36.4062L19.962 39.0625L14.1163 37.7011Z" fill="#BAD4C4"/>
<path d="M21.785 7.33423C20.059 6.65512 18.284 6.01849 16.54 5.45457L17.3058 7.65625L19.337 9.21875L21.6808 7.65625L21.785 7.33423Z" fill="#BAD4C4"/>
<path d="M13.697 0.3125C12.3279 0.3125 11.2062 1.41579 11.1997 2.79286C11.1859 5.72664 11.2497 8.80111 11.8563 11.7513C12.0879 12.8777 12.4652 13.8589 12.7778 14.6717L12.7782 14.6729C12.8042 14.7404 12.8297 14.8068 12.8547 14.872C13.1934 15.7568 13.3921 16.3493 13.3994 16.8468C13.3971 16.8593 13.3906 16.8944 13.374 16.9588C13.3458 17.0685 13.3004 17.2185 13.2356 17.4108C13.1065 17.7941 12.9157 18.3011 12.6743 18.9075C12.1925 20.118 11.5264 21.6821 10.7937 23.3603C9.71863 25.8225 8.50982 28.5087 7.54419 30.6545C7.1935 31.4338 6.87479 32.142 6.60632 32.7422C6.24536 33.549 6.26877 34.4508 6.51024 35.2085C6.74938 35.9589 7.24524 36.6975 7.98959 37.0977C14.5228 40.6104 24.1889 40.5865 30.7185 37.0757C31.4653 36.6742 31.9537 35.9377 32.1839 35.188C32.4162 34.4312 32.4247 33.5399 32.0678 32.7422C31.6818 31.8793 31.191 30.8003 30.6496 29.6103C29.3277 26.7045 27.7044 23.1364 26.5701 20.4345C25.766 18.5189 23.8973 17.1875 21.775 17.1875H17.4621C16.9443 17.1875 16.5246 17.6072 16.5246 18.125C16.5246 18.6428 16.9443 19.0625 17.4621 19.0625H21.775C23.0979 19.0625 24.3119 19.8992 24.8413 21.1602C25.9869 23.8891 27.6334 27.5085 28.9589 30.4222L28.9595 30.4235C29.4958 31.6024 29.9796 32.6658 30.3563 33.5078C30.4976 33.8236 30.514 34.2385 30.3915 34.6377C30.2667 35.0439 30.0373 35.3132 29.8306 35.4243C23.8518 38.6389 14.8528 38.659 8.87751 35.4463C8.66844 35.3339 8.42949 35.0558 8.29671 34.6392C8.16627 34.2299 8.18065 33.8145 8.31785 33.5078C8.58358 32.9139 8.90023 32.2102 9.24954 31.434C10.216 29.2864 11.4324 26.5834 12.512 24.1106C13.247 22.4272 13.923 20.8406 14.4164 19.6009C14.6626 18.9823 14.8676 18.4394 15.0125 18.0092C15.0847 17.7948 15.1458 17.5972 15.1899 17.426C15.2281 17.2773 15.2746 17.0719 15.2746 16.875C15.2746 15.9645 14.9256 15.0374 14.6058 14.2017C14.5821 14.1399 14.5584 14.0781 14.5346 14.0162C14.2169 13.1886 13.8921 12.3426 13.6929 11.3737C13.1286 8.6291 13.0609 5.72303 13.0747 2.80171C13.0763 2.46476 13.3519 2.1875 13.697 2.1875H14.3371C14.6822 2.1875 14.9621 2.46735 14.9621 2.81261V3.75C14.9621 5.40534 15.9616 7.02744 16.8725 8.1435C17.3455 8.72299 17.8378 9.21874 18.2543 9.57726C18.4612 9.75528 18.6631 9.91133 18.8453 10.029C18.9355 10.0872 19.0371 10.1466 19.1435 10.1948C19.2241 10.2313 19.4143 10.3125 19.6496 10.3125C19.8955 10.3125 20.0909 10.2241 20.1747 10.1835C20.2832 10.1309 20.3843 10.0667 20.4716 10.0054C20.6482 9.88145 20.8399 9.7188 21.0329 9.53632C21.4223 9.16825 21.8768 8.663 22.3109 8.07885C23.149 6.95099 24.0532 5.33892 24.0532 3.75V2.81243C24.0532 2.46731 24.333 2.1875 24.6782 2.1875H25.28C25.6258 2.1875 25.9044 2.46711 25.9051 2.80883C25.9106 5.73512 25.8585 8.627 25.2938 11.3737C25.283 11.4263 25.2726 11.4769 25.2626 11.5258C25.1532 12.0605 25.0866 12.3862 24.9304 12.7952C24.7583 13.2459 24.4657 13.8225 23.8511 14.8212C23.5798 15.2621 23.7173 15.8396 24.1582 16.1109C24.5992 16.3823 25.1766 16.2448 25.448 15.8038C26.0835 14.7712 26.4477 14.0779 26.6821 13.4641C26.8955 12.9053 26.9915 12.433 27.0964 11.9175C27.1076 11.8626 27.1189 11.8073 27.1304 11.7513C27.7379 8.79623 27.7856 5.73068 27.7801 2.80528C27.7775 1.42534 26.6558 0.3125 25.28 0.3125H24.6782C23.2975 0.3125 22.1782 1.43167 22.1782 2.81243V3.75C22.1782 4.7135 21.5837 5.91392 20.8059 6.96046C20.4321 7.46351 20.0494 7.88593 19.7449 8.17373C19.7033 8.21305 19.6642 8.24885 19.6278 8.28123C19.5816 8.24419 19.5314 8.20251 19.4774 8.15609C19.1469 7.87167 18.731 7.45527 18.3251 6.95792C17.4782 5.92027 16.8371 4.72988 16.8371 3.75V2.81261C16.8371 1.43198 15.7179 0.3125 14.3371 0.3125H13.697Z" fill="#045762"/>
</g>
<defs>
<clipPath id="clip0_177_1369">
<rect width="40" height="40" fill="white"/>
</clipPath>
</defs>
</svg>
