<svg width="256" height="256" viewBox="0 0 256 256" fill="none" xmlns="http://www.w3.org/2000/svg">
<path d="M96.9276 110.125L88.8026 74.375L88.8026 54.2172C69.6137 50.4359 54.7274 50.0889 49.5848 55.2345C44.1867 60.6358 45.83 79.5028 51.7038 103.625C52.4952 106.875 50.336 107.329 49.5172 104.437C41.9667 77.7733 38.9735 55.7517 44.5729 50.1523C49.9378 44.7873 67.33 46.1982 88.8026 51.3804V46.1425C63.7311 39.6059 42.9001 37.4026 36.8027 43.5C25.5787 54.7239 47.0992 128.53 72.1303 179.577L96.9276 115.812V110.125Z" fill="#BAD4C4"/>
<path d="M97.4045 220.046C101.855 224.88 106.091 227.96 109.928 228.75C141.506 235.25 189.051 221.631 210.678 196.25C232.305 170.868 222.053 126.375 204.178 100.375C198.686 92.3867 182.379 82.3276 161.928 72.7191V79.25L145.678 118.25L155.428 129.625L186.303 196.25V206L182.24 213.312L127.803 227.125L97.4045 220.046Z" fill="#BAD4C4"/>
<path d="M137.282 62.138C128.307 58.6066 119.077 55.2961 110.008 52.3637L113.99 63.8125L124.553 71.9375L136.74 63.8125L137.282 62.138Z" fill="#BAD4C4"/>
<path d="M95.2241 25.625C88.1052 25.625 82.2723 31.3621 82.2385 38.5229C82.1665 53.7785 82.4986 69.7658 85.6527 85.1067C86.8569 90.9641 88.8191 96.0664 90.4445 100.293L90.4468 100.299C90.5818 100.65 90.7145 100.995 90.8443 101.334C92.6055 105.936 93.6389 109.017 93.6767 111.603C93.6647 111.668 93.631 111.851 93.5448 112.186C93.3981 112.756 93.1618 113.536 92.8251 114.536C92.1537 116.529 91.1614 119.166 89.9063 122.319C87.401 128.613 83.9371 136.747 80.127 145.474C74.5369 158.277 68.251 172.245 63.2298 183.404C61.4062 187.456 59.7489 191.139 58.3528 194.259C56.4759 198.455 56.5976 203.144 57.8533 207.084C59.0968 210.986 61.6752 214.827 65.5458 216.908C99.5185 235.174 149.782 235.05 183.736 216.794C187.619 214.706 190.159 210.876 191.356 206.978C192.564 203.042 192.608 198.407 190.753 194.259C188.745 189.772 186.193 184.162 183.378 177.974C176.504 162.864 168.063 144.309 162.165 130.259C157.983 120.298 148.266 113.375 137.23 113.375L114.803 113.375C112.11 113.375 109.928 115.558 109.928 118.25C109.928 120.942 112.11 123.125 114.803 123.125L137.23 123.125C144.109 123.125 150.422 127.476 153.175 134.033C159.132 148.224 167.694 167.044 174.586 182.195L174.589 182.202C177.378 188.333 179.894 193.862 181.853 198.241C182.587 199.883 182.673 202.04 182.036 204.116C181.387 206.228 180.194 207.628 179.119 208.206C148.029 224.922 101.234 225.027 70.163 208.321C69.0759 207.736 67.8334 206.29 67.1429 204.124C66.4646 201.995 66.5394 199.835 67.2528 198.241C68.6346 195.152 70.2812 191.493 72.0976 187.457C77.123 176.289 83.4484 162.233 89.0624 149.375C92.8842 140.622 96.3993 132.371 98.9651 125.925C100.246 122.708 101.312 119.885 102.065 117.648C102.441 116.533 102.758 115.505 102.987 114.615C103.186 113.842 103.428 112.774 103.428 111.75C103.428 107.016 101.613 102.194 99.95 97.8489C99.8271 97.5277 99.7037 97.2063 99.5801 96.8843C97.9278 92.5807 96.2388 88.1818 95.2029 83.1433C92.2687 68.8713 91.9167 53.7597 91.9884 38.5689C91.9967 36.8167 93.4301 35.375 95.2241 35.375H98.5528C100.347 35.375 101.803 36.8302 101.803 38.6256V43.5C101.803 52.1078 107 60.5427 111.737 66.3462C114.196 69.3595 116.756 71.9374 118.923 73.8017C119.998 74.7275 121.048 75.5389 121.996 76.1507C122.464 76.4533 122.993 76.7625 123.546 77.013C123.965 77.2028 124.954 77.625 126.178 77.625C127.457 77.625 128.472 77.1654 128.909 76.954C129.472 76.6806 129.998 76.3467 130.452 76.0279C131.371 75.3835 132.367 74.5378 133.371 73.5889C135.396 71.6749 137.759 69.0476 140.017 66.01C144.375 60.1452 149.077 51.7624 149.077 43.5V38.6246C149.077 36.83 150.531 35.375 152.327 35.375H155.456C157.254 35.375 158.703 36.829 158.706 38.6059C158.735 53.8226 158.464 68.8604 155.528 83.1433C155.471 83.4168 155.418 83.6801 155.366 83.9342C154.797 86.7148 154.45 88.4081 153.638 90.5349C152.743 92.8788 151.222 95.8771 148.026 101.07C146.615 103.363 147.33 106.366 149.623 107.777C151.916 109.188 154.919 108.473 156.33 106.18C159.634 100.81 161.528 97.2053 162.747 94.0131C163.856 91.1074 164.356 88.6518 164.901 85.9709C164.959 85.6858 165.018 85.3978 165.078 85.1067C168.237 69.7404 168.485 53.7995 168.456 38.5874C168.443 31.4117 162.61 25.625 155.456 25.625H152.327C145.147 25.625 139.327 31.4447 139.327 38.6246V43.5C139.327 48.5102 136.235 54.7524 132.191 60.1944C130.247 62.8103 128.257 65.0068 126.673 66.5034C126.457 66.7079 126.254 66.894 126.065 67.0624C125.824 66.8698 125.563 66.6531 125.283 66.4117C123.564 64.9327 121.401 62.7674 119.29 60.1812C114.887 54.7854 111.553 48.5954 111.553 43.5V38.6256C111.553 31.4463 105.733 25.625 98.5528 25.625L95.2241 25.625Z" fill="#045762"/>
</svg>
