<svg width="256" height="256" viewBox="0 0 256 256" fill="none" xmlns="http://www.w3.org/2000/svg">
<path d="M151.61 77.0017L152.266 89.7737L149.782 90.749L166.891 97.0819L179.078 111.698L183.066 189.419C236.735 140.611 236.629 55.478 180.703 54.0448C167.387 53.7036 157.766 55.3699 150.656 58.4035L151.087 66.8058C151.697 66.3697 152.332 65.9622 152.99 65.589C161.736 60.6288 174.09 58.6905 176.083 62.2008C177.292 64.3293 173.552 65.6869 168.471 67.5317C165.173 68.7295 161.308 70.1326 157.865 72.0852C155.552 73.3971 153.466 75.1693 151.61 77.0017Z" fill="#BAD4C4"/>
<path d="M128.196 218.726L71.8282 201.021L69.3907 183.156L77.5299 135.253C76.1342 136.159 73.7906 137.01 71.0592 138.002C67.7605 139.199 63.896 140.602 60.4532 142.555C56.2541 144.937 52.8007 148.836 50.1242 151.857C47.2263 155.129 45.2393 157.372 44.2031 155.547C42.2098 152.037 46.8323 141.019 55.578 136.059C63.6933 131.456 74.9151 129.456 78.0835 131.995L79.5218 123.53C63.7877 122.812 47.994 123.401 36.0782 149.051C17.8177 188.358 65.258 234.12 128.196 218.726Z" fill="#BAD4C4"/>
<path d="M119.766 49.9846C119.766 42.8091 125.586 36.9922 132.766 36.9922C139.945 36.9922 145.766 42.8091 145.766 49.9846V67.849C145.766 70.5398 147.948 72.7211 150.641 72.7211C153.333 72.7211 155.516 70.5398 155.516 67.849V49.9846C155.516 37.4275 145.33 27.248 132.766 27.248C120.201 27.248 110.016 37.4275 110.016 49.9846L110.016 80.8413C110.016 82.6352 108.56 84.0894 106.766 84.0894H100.653C88.6725 84.0894 78.4682 92.7907 76.5821 104.615L64.0778 183.005C62.1205 195.275 69.7172 207.051 81.7081 210.335L157.614 231.118C173.577 235.489 189.164 223.029 188.404 206.505L184.451 120.588C183.586 101.79 168.865 86.5703 150.096 85.0697L138.029 84.1049C135.346 83.8904 132.996 85.8908 132.781 88.573C132.566 91.2552 134.568 93.6036 137.252 93.8181L149.319 94.7829C163.191 95.8921 174.072 107.142 174.712 121.036L178.664 206.952C179.12 216.867 169.768 224.343 160.19 221.72L84.2844 200.937C77.0899 198.967 72.5318 191.901 73.7062 184.539L86.2105 106.149C87.3422 99.0544 93.4648 93.8337 100.653 93.8337H106.766C113.945 93.8337 119.766 88.0168 119.766 80.8413L119.766 49.9846Z" fill="#045762"/>
</svg>
