<svg width="40" height="40" viewBox="0 0 40 40" fill="none" xmlns="http://www.w3.org/2000/svg">
<g clip-path="url(#clip0_177_1362)">
<path d="M24.5405 10.1926L24.6665 12.6488L24.1888 12.8363L27.479 14.0542L29.8227 16.8651L30.5897 31.8114C40.9105 22.4251 40.8903 6.05346 30.1352 5.77785C27.5745 5.71223 25.7242 6.03268 24.3569 6.61606L24.4398 8.23188C24.5572 8.14803 24.6793 8.06966 24.8058 7.99789C26.4877 7.044 28.8634 6.67125 29.2467 7.34632C29.4792 7.75563 28.7601 8.01672 27.783 8.37149C27.1486 8.60182 26.4054 8.87165 25.7433 9.24716C25.2985 9.49944 24.8972 9.84025 24.5405 10.1926Z" fill="#BAD4C4"/>
<path d="M20.0377 37.4472L9.19773 34.0424L8.72898 30.6069L10.2942 21.3949C10.0258 21.569 9.57511 21.7327 9.04986 21.9234C8.41548 22.1537 7.67231 22.4235 7.01023 22.7991C6.20271 23.257 5.53859 24.0068 5.02389 24.5879C4.4666 25.2171 4.08449 25.6485 3.88521 25.2976C3.50189 24.6225 4.39083 22.5037 6.0727 21.5498C7.63332 20.6647 9.79137 20.2799 10.4007 20.7684L10.6773 19.1404C7.65147 19.0024 4.61424 19.1156 2.32272 24.0483C-1.1889 31.6073 7.93424 40.4078 20.0377 37.4472Z" fill="#BAD4C4"/>
<path d="M18.4165 4.99705C18.4165 3.61716 19.5357 2.49853 20.9165 2.49853C22.2972 2.49853 23.4165 3.61715 23.4165 4.99705V8.43252C23.4165 8.94998 23.8362 9.36947 24.354 9.36947C24.8717 9.36947 25.2915 8.94998 25.2915 8.43252V4.99705C25.2915 2.58223 23.3327 0.624634 20.9165 0.624634C18.5002 0.624634 16.5415 2.58223 16.5415 4.99705V10.931C16.5415 11.276 16.2616 11.5557 15.9165 11.5557H14.741C12.437 11.5557 10.4747 13.229 10.1119 15.5029L7.70726 30.5778C7.33086 32.9375 8.79178 35.2022 11.0977 35.8336L25.695 39.8305C28.7648 40.671 31.7623 38.2748 31.6161 35.0971L30.856 18.5747C30.6897 14.9597 27.8587 12.0328 24.2493 11.7442L21.9287 11.5587C21.4126 11.5174 20.9607 11.9021 20.9194 12.4179C20.8782 12.9337 21.2631 13.3853 21.7792 13.4266L24.0997 13.6121C26.7676 13.8254 28.8601 15.9888 28.983 18.6607L29.7431 35.1831C29.8308 37.0898 28.0323 38.5275 26.1904 38.0232L11.5931 34.0263C10.2096 33.6475 9.33304 32.2887 9.55888 30.8728L11.9636 15.7979C12.1812 14.4336 13.3586 13.4296 14.741 13.4296H15.9165C17.2972 13.4296 18.4165 12.3109 18.4165 10.931V4.99705Z" fill="#045762"/>
</g>
<defs>
<clipPath id="clip0_177_1362">
<rect width="40" height="40" fill="white"/>
</clipPath>
</defs>
</svg>
