<svg width="256" height="256" viewBox="0 0 256 256" fill="none" xmlns="http://www.w3.org/2000/svg">
<path d="M92.1667 171.317C105.366 174.656 120.777 176.916 136.701 176.031C171.801 174.081 185.992 157.343 188.701 149.218L198.451 133.781L209.826 100.468L212.263 78.531L210.638 64.7185L207.335 61.4155C212.596 62.8499 217.265 66.2664 220.107 71.244C228.251 85.5024 228.049 102.922 219.576 116.995L181.8 179.739C168.636 201.605 138.814 207.119 118.411 191.459L92.1667 171.317Z" fill="#BAD4C4"/>
<path d="M158.757 64.1471C169.518 61.5364 179.203 59.6822 186.784 58.7688C190.578 58.3118 193.811 58.0944 196.373 58.1284C198.998 58.1632 200.706 58.4627 201.598 58.8847L201.6 58.8854C204.731 60.3625 207.104 62.3071 208.709 64.8972C210.315 67.4881 211.233 70.8559 211.235 75.3154C210.69 93.4027 205.316 117.541 194.768 137.458C184.198 157.415 168.661 172.744 147.935 174.075C141.279 174.443 134.458 174.53 127.578 174.28C126.681 174.247 125.928 174.948 125.895 175.845C125.863 176.742 126.563 177.495 127.46 177.528C134.447 177.782 141.37 177.694 148.123 177.319L148.136 177.318C170.525 175.884 186.851 159.35 197.64 138.979C208.448 118.573 213.93 93.9269 214.485 75.3883L214.485 75.3642V75.3401C214.487 70.4205 213.473 66.414 211.472 63.1853C209.468 59.9512 206.555 57.6293 202.986 55.946C201.422 55.2066 199.112 54.9144 196.417 54.8787C193.658 54.8421 190.268 55.0755 186.396 55.5421C178.645 56.4758 168.828 58.3596 157.991 60.9888C157.119 61.2004 156.583 62.0789 156.795 62.9511C157.007 63.8232 157.885 64.3587 158.757 64.1471Z" fill="#045762"/>
<path d="M39.6339 120.121C40.2171 119.438 40.1369 118.413 39.4548 117.829C38.7727 117.246 37.7469 117.326 37.1637 118.009C34.1481 121.536 31.8159 125.331 30.9098 129.266C29.988 133.269 30.5653 137.334 33.2191 141.222L33.2939 141.331L33.3855 141.427C49.1056 157.904 69.7516 167.688 91.6243 172.856C92.4977 173.063 93.3731 172.522 93.5795 171.648C93.7858 170.775 93.2451 169.9 92.3717 169.693C70.9726 164.637 50.9913 155.126 35.8306 139.282C33.7722 136.21 33.3585 133.115 34.0769 129.995C34.8193 126.771 36.7935 123.443 39.6339 120.121Z" fill="#045762"/>
<path fill-rule="evenodd" clip-rule="evenodd" d="M149.903 94.1801C151.296 92.9289 152.045 91.2634 152.784 89.6207L152.784 89.6189L152.785 89.6172C152.869 89.4317 152.952 89.2464 153.036 89.0621C155.038 84.6774 156.661 80.1572 157.325 75.3476C157.41 74.7421 157.654 74.3012 158.313 74.357C159.009 74.418 159.123 74.912 159.006 75.5175C157.471 83.5858 155.017 91.2558 149.459 97.5792C149.156 97.9245 148.933 98.2591 148.872 98.7265C148.73 99.8415 148.581 100.955 148.432 102.069C148.201 103.796 147.97 105.523 147.767 107.254C147.257 111.599 141.967 114.932 137.837 113.477C135.237 112.561 134.475 110.282 136.007 107.99C136.902 106.651 138.071 105.565 139.311 104.572C141.558 102.774 143.249 100.801 143.143 97.6217C143.107 96.5633 143.252 95.4991 143.398 94.428C143.512 93.5962 143.626 92.7602 143.656 91.9197C143.457 92.2297 143.264 92.5432 143.07 92.8566C142.623 93.5796 142.176 94.3027 141.672 94.9845C140.716 96.2752 139.499 97.2791 137.765 97.0109C136.084 96.7506 135.271 95.4307 134.724 93.9886C134.48 93.3471 134.316 92.6761 134.139 91.9522C134.056 91.6123 133.97 91.2602 133.872 90.8946C133.704 91.3007 133.543 91.7036 133.384 92.1025C132.76 93.6598 132.162 95.1561 131.322 96.5408C130.77 97.4517 130.194 98.3441 129.394 99.0558C127.543 100.7 125.325 100.376 123.96 98.3202C123.375 97.4394 123.126 96.4492 122.858 95.3897C122.746 94.9446 122.631 94.4871 122.486 94.0204C122.396 94.2479 122.308 94.4736 122.22 94.6975C121.537 96.4374 120.896 98.0708 119.99 99.579C119.443 100.493 118.84 101.366 118.051 102.083C116.216 103.757 113.94 103.478 112.641 101.374C111.128 98.9204 111.096 96.1823 111.274 93.4229C111.281 93.3095 111.303 93.1956 111.325 93.0797C111.385 92.7695 111.448 92.4442 111.239 92.0711C109.829 92.998 108.405 93.8558 106.777 94.3099C106.291 94.4457 106.265 94.8941 106.242 95.3125C106.234 95.4423 106.227 95.5692 106.206 95.683C105.707 98.3866 105.001 101.026 103.646 103.433C102.576 105.334 101.349 107.129 99.0411 107.735C96.3003 108.455 93.9128 107.392 92.2742 104.612C91.82 103.842 91.4934 103.648 90.6727 104.152C89.1695 105.077 87.6079 105.908 86.0304 106.699C85.3425 107.044 85.1009 107.464 85.077 108.229C84.8247 116.961 81.9909 124.759 76.3022 131.409C71.2642 137.299 65.2754 141.83 57.5178 143.562C56.3572 143.822 55.1727 143.973 53.9723 143.976C48.5333 143.987 46.4033 139.108 47.4285 135.129C48.2464 131.948 50.1984 129.433 52.4134 127.125C56.9415 122.406 62.2929 118.725 67.7506 115.198C69.8303 113.855 71.9567 112.583 74.0822 111.311C74.6845 110.951 75.2868 110.591 75.8879 110.229L75.9373 110.199C76.3856 109.929 76.7559 109.706 76.7431 109.055C76.5811 101.799 75.7684 94.6552 72.1087 88.2229C69.1316 82.9909 64.707 79.8677 58.3916 80.6963C53.1198 81.3895 49.4522 84.5685 47.0885 89.171C43.7661 95.6405 42.7091 102.54 43.8564 109.729C44.1114 111.331 44.6239 112.885 46.2812 113.769C47.208 114.263 46.8203 115.049 46.3157 115.678C45.0887 117.211 42.4249 117.471 40.6403 116.231C38.5289 114.765 37.6472 112.584 37.2355 110.17C36.4016 105.268 37.2966 100.556 39.1928 96.0654C43.6572 85.49 51.6618 79.1852 62.9091 77.0446C70.749 75.5521 77.1415 78.9568 80.9392 86.4302C83.0692 90.6237 84.0439 95.1332 84.6467 99.7437C84.8241 101.096 84.9169 102.463 85.0093 103.826L85.0185 103.961C85.069 104.694 85.2761 104.896 85.9746 104.49C87.3105 103.714 88.657 102.947 90.0486 102.277C90.8586 101.89 91.0472 101.475 90.9277 100.548C90.2186 94.9659 90.8825 89.6145 94.1226 84.8314C95.6284 82.6085 97.6495 81.0283 100.297 80.3219C102.427 79.7509 104.584 80.9858 105.107 83.1317C105.285 83.862 105.197 84.5499 104.549 85.0412C103.999 85.4582 103.418 85.4794 102.823 85.105C102.095 84.6482 102.034 83.9895 102.252 83.2486C102.27 83.1869 102.295 83.1254 102.321 83.0642C102.413 82.8433 102.503 82.627 102.22 82.4253C101.854 82.1623 101.471 82.1809 101.102 82.4067C100.597 82.7147 100.242 83.1768 99.9813 83.6894C97.1396 89.3303 96.0268 95.2501 97.1396 101.518C97.2963 102.397 97.6389 103.22 98.2152 103.911C99.1633 105.047 100.489 105.018 101.336 103.804C102.525 102.101 103.081 100.127 103.636 98.159L103.734 97.8129C103.785 97.6348 103.823 97.4532 103.861 97.2719C103.904 97.064 103.948 96.8565 104.01 96.655L104.014 96.6426C104.376 95.4612 104.669 94.5062 103.139 93.6619C101.811 92.9316 101.721 91.3089 101.984 89.8376C102.164 88.8337 102.754 88.1883 103.771 87.936C105.139 87.5961 105.866 87.9679 106.329 89.2984C106.607 90.1005 106.746 90.9264 106.677 91.771C106.61 92.573 106.921 92.6554 107.595 92.3818C109.93 91.4284 111.622 90.1085 111.895 87.2721C112.249 83.6039 112.738 79.9496 113.227 76.2951L113.229 76.285C113.418 74.8706 113.607 73.4563 113.789 72.0411L113.791 72.023C113.87 71.4033 113.941 70.8409 112.989 71.1302C112.336 71.3299 111.677 71.5159 111.018 71.7018C108.874 72.3072 106.728 72.913 104.754 73.9958C103.128 74.8881 101.559 75.8389 101.944 78.1229C101.994 78.4256 101.909 78.7735 101.538 78.8665C100.988 79.0019 100.584 78.7072 100.3 78.2875C99.1155 76.5374 98.4887 73.4035 101.131 71.2683C102.929 69.8129 105.062 69.0879 107.248 68.5355C109.13 68.0577 111.042 67.6852 112.95 67.3136L113.59 67.189C114.091 67.0907 114.389 66.9632 114.408 66.3843C114.422 65.9082 114.47 65.4318 114.518 64.9555C114.642 63.7232 114.765 62.4912 114.317 61.2692C114.121 60.7381 114.429 60.4512 114.793 60.1644C116.83 58.5523 119.831 59.5005 120.55 61.9916C120.611 62.2014 120.657 62.4192 120.688 62.637L120.69 62.6446C120.841 63.7411 120.917 64.2934 121.23 64.524C121.547 64.7581 122.109 64.6607 123.242 64.4644C125.627 64.0488 125.628 64.0472 125.862 61.6522L125.881 61.4584C125.989 60.3674 126.096 59.2765 125.647 58.2337C125.413 57.6881 125.737 57.4318 126.072 57.1675L126.104 57.1421C128.289 55.4079 131.28 56.433 131.946 59.1393C132.161 60.0077 132.143 60.8948 132.114 61.7765C132.09 62.5228 132.292 62.86 133.094 62.6396C136.076 61.8243 139.064 61.0063 141.778 59.4766C141.84 59.4418 141.902 59.4072 141.964 59.3725C142.847 58.8808 143.762 58.3712 143.608 57.0173C143.536 56.4012 144.115 56.4038 144.577 56.518C145.833 56.8261 146.258 58.1593 145.385 59.2216C144.062 60.8257 142.256 61.7871 140.445 62.7113C138.002 63.9569 135.463 64.9767 132.844 65.7841C132.215 65.9779 131.925 66.209 131.83 66.9154C131.119 72.1657 130.194 77.3799 129.269 82.5953L129.268 82.5971C128.938 84.4593 128.607 86.3215 128.287 88.1857C127.928 90.2731 127.676 92.3792 127.636 94.5011C127.625 95.027 127.689 95.5581 127.774 96.076L127.782 96.1211C127.843 96.4911 127.913 96.9155 128.393 96.987C128.836 97.0507 129.137 96.7479 129.384 96.4319C130.101 95.5183 130.56 94.4587 131.009 93.407C133.407 87.8032 134.722 81.9207 135.295 75.8761C135.314 75.6822 135.339 75.4859 135.365 75.2882C135.494 74.289 135.629 73.2538 134.884 72.3093C134.628 71.9861 134.986 71.711 135.276 71.4889C135.326 71.4501 135.375 71.4127 135.417 71.3772C137.284 69.8262 140.073 70.514 141.058 72.7635C142.033 74.9917 141.669 77.2943 141.263 79.5437C140.835 81.9248 140.352 84.2956 139.868 86.666L139.868 86.669C139.541 88.2713 139.214 89.8736 138.905 91.4789C138.891 91.549 138.876 91.6211 138.861 91.6947C138.697 92.502 138.497 93.4836 139.391 93.8584C140.445 94.3021 140.926 93.3366 141.311 92.5649C141.34 92.5051 141.369 92.4465 141.398 92.3898C143.685 87.8696 145.244 83.1051 145.903 78.0751C145.954 77.6801 146.01 77.2853 146.065 76.8903L146.065 76.8877L146.065 76.8852C146.322 75.0534 146.578 73.2185 146.497 71.3586C146.492 71.2361 146.493 71.1082 146.494 70.9789C146.495 70.5532 146.497 70.1132 146.304 69.8076C145.605 68.7134 146.338 68.2619 147.068 67.8476C149.66 66.3843 152.322 67.9087 152.497 71.0027C152.672 74.0994 152.359 77.1801 151.897 80.2369C151.547 82.5483 151.165 84.8545 150.784 87.1605C150.496 88.9004 150.208 90.6401 149.934 92.3818C149.919 92.4785 149.901 92.576 149.884 92.674C149.794 93.1688 149.702 93.6788 149.903 94.1801ZM149.836 94.2419L149.877 94.2222C149.866 94.2441 149.856 94.2646 149.844 94.2754C149.836 94.2832 149.815 94.2795 149.795 94.276L149.786 94.2744L149.775 94.2727L149.8 94.2599L149.836 94.2419ZM54.8328 142.008C56.0067 141.995 57.6745 141.203 59.2653 140.223C62.9117 137.976 65.9792 135.066 68.6774 131.767C73.0223 126.453 75.8189 120.462 76.4536 113.562C76.4613 113.474 76.4822 113.378 76.5035 113.281C76.5701 112.975 76.6412 112.648 76.3314 112.484C76.0363 112.325 75.7446 112.534 75.4734 112.727C75.4029 112.778 75.3338 112.827 75.2665 112.869C74.6193 113.268 73.971 113.666 73.3226 114.063C71.4885 115.188 69.6539 116.312 67.8488 117.482C62.6568 120.847 57.5736 124.363 53.311 128.904C51.4599 130.878 49.7868 132.994 49.245 135.754C48.6209 138.914 50.9978 141.976 54.8328 142.008ZM116.309 98.3448C116.3 98.99 116.289 99.7254 116.973 99.9243C117.812 100.168 118.166 99.4563 118.51 98.7653C118.629 98.5244 118.748 98.2861 118.885 98.0918C119.002 97.9273 119.08 97.7342 119.157 97.542C119.179 97.4862 119.202 97.4296 119.225 97.3747C121.161 92.8652 122.739 88.2627 123.278 83.3362C123.671 79.7544 124.156 76.1827 124.641 72.6115C124.815 71.3319 124.989 70.0517 125.158 68.7718L125.159 68.7622C125.233 68.1962 125.286 67.7881 124.468 68.0627C123.424 68.4133 122.359 68.7134 121.291 68.979C120.723 69.1224 120.529 69.4305 120.463 69.9908C120.051 73.4797 119.444 76.9388 118.837 80.3971C118.614 81.6719 118.39 82.9471 118.176 84.2232C118.007 85.2376 117.824 86.2499 117.641 87.2648C117.031 90.6425 116.415 94.0485 116.275 97.6509C116.316 97.8405 116.313 98.0854 116.309 98.3448ZM142.7 103.897C142.633 103.883 142.583 103.87 142.545 103.859C142.485 103.843 142.456 103.835 142.445 103.847C141.324 104.83 140.203 105.812 139.093 106.805C138.403 107.424 137.781 108.099 137.346 108.93C136.597 110.364 137.502 111.952 139.122 112.027C140.121 112.072 140.782 111.549 141.239 110.723C142.102 109.164 142.283 107.472 142.463 105.779C142.53 105.15 142.597 104.52 142.7 103.897Z" fill="#045762"/>
<path fill-rule="evenodd" clip-rule="evenodd" d="M164.666 135.45C163.898 137.144 163.219 138.642 162.169 139.931L162.164 139.937C161.834 140.344 161.495 140.761 161.096 141.094C159.171 142.701 157.02 142.332 155.705 140.194C155.227 139.42 154.947 138.556 154.612 137.522L154.59 137.453C154.418 137.865 154.258 138.263 154.102 138.651C153.769 139.48 153.456 140.26 153.089 141.012C151.509 144.252 148.901 145.511 145.499 144.77C143.836 144.409 142.559 143.487 141.794 142.016C141.247 140.962 140.734 141.025 139.855 141.564C138.645 142.308 137.378 142.961 136.113 143.613L135.787 143.782C135.067 144.154 134.703 144.595 134.669 145.498C134.1 159.677 127.296 170.138 115.393 177.5C112.392 179.356 109.112 180.554 105.614 181.016C102.919 181.372 100.273 181.255 98.3851 178.83C96.4066 176.289 96.4331 173.519 97.607 170.696C98.9933 167.357 101.378 164.742 104.007 162.357C110.288 156.657 117.411 152.14 124.715 147.904C125.936 147.195 126.452 146.464 126.377 145.02C126.024 138.043 125.179 131.172 121.53 125.037C118.702 120.281 114.596 117.37 108.801 117.763C104.608 118.047 101.237 120.098 98.6693 123.362C95.0707 127.932 93.6711 133.345 93.1931 139.002C92.9275 142.157 92.7947 145.36 93.9234 148.438C94.266 149.37 94.7069 150.185 95.5992 150.735C96.6217 151.364 96.6668 152.073 95.8303 152.984C94.3483 154.596 91.7164 154.639 89.8282 153.072C87.9426 151.51 87.1405 149.372 86.8192 147.057C85.9666 140.908 87.4698 135.196 90.4496 129.882C95.9471 120.079 104.454 114.746 115.608 113.971C121.822 113.538 126.398 116.693 129.612 121.898C132.045 125.837 133.208 130.206 133.975 134.718C134.331 136.811 134.544 138.914 134.629 141.031C134.666 141.96 134.955 142.061 135.731 141.599C136.982 140.855 138.264 140.157 139.579 139.527C140.331 139.166 140.413 138.691 140.323 137.939C139.712 132.909 140.45 128.078 142.694 123.524C143.966 120.942 145.889 119.001 148.635 117.949C149.607 117.577 150.603 117.439 151.626 117.548C153.275 117.721 154.571 119.096 154.667 120.714C154.709 121.434 154.523 122.05 153.843 122.382C153.243 122.674 152.619 122.621 152.104 122.174C151.583 121.723 151.488 121.147 151.724 120.488C151.746 120.426 151.783 120.363 151.821 120.298C151.938 120.098 152.062 119.885 151.78 119.67C151.458 119.426 151.113 119.505 150.773 119.646C150.069 119.938 149.639 120.547 149.363 121.173C146.909 126.748 145.371 132.479 146.673 138.638C146.859 139.514 147.212 140.327 147.727 141.047C148.662 142.356 149.889 142.388 150.898 141.145C151.867 139.95 152.303 138.5 152.685 137.052C154.189 131.374 155.32 125.624 155.787 119.76L155.799 119.614C155.86 118.885 155.922 118.126 155.4 117.471C155.074 117.063 155.36 116.809 155.62 116.577C155.655 116.547 155.689 116.516 155.721 116.486C157.277 115.02 160.143 115.445 161.234 117.285C162.244 118.99 162.121 120.849 161.957 122.7C161.724 125.311 161.139 127.855 160.554 130.399C160.21 131.895 159.865 133.392 159.593 134.901C159.436 135.767 159.298 136.649 159.28 137.525L159.278 137.618C159.264 138.132 159.248 138.781 159.938 138.956C160.592 139.124 160.995 138.672 161.338 138.173C162.172 136.962 162.722 135.615 163.271 134.266C165.606 128.532 166.841 122.557 167.149 116.385C167.153 116.294 167.161 116.202 167.168 116.108C167.205 115.659 167.242 115.187 166.979 114.829C166.291 113.899 166.899 113.482 167.571 113.078C169.616 111.843 171.913 112.584 172.846 114.773C173.106 115.384 173.284 116.021 173.225 116.836C173.751 116.565 173.931 116.149 174.1 115.762C174.148 115.651 174.194 115.544 174.248 115.442C175.177 113.673 176.216 111.984 177.761 110.675C179.796 108.954 181.966 109.273 183.36 111.543C184.608 113.578 184.81 115.878 184.773 118.186C184.732 120.807 184.248 123.369 183.763 125.931L183.763 125.934C183.559 127.012 183.355 128.092 183.185 129.175C183.084 129.826 183.06 130.495 183.07 131.154C183.078 131.733 183.158 132.351 183.875 132.506C184.526 132.644 184.975 132.261 185.309 131.765C186.51 129.993 187.237 127.999 187.933 125.999C188.964 123.04 189.928 120.063 190.315 116.935C190.39 116.337 190.663 115.904 191.333 115.973C192.068 116.05 192.105 116.603 191.999 117.163C190.993 122.424 189.659 127.576 186.974 132.28C186.757 132.662 186.499 133.026 186.236 133.379C185.251 134.71 184.09 135.833 182.274 135.523C180.558 135.228 179.737 133.844 179.121 132.402C178.085 129.969 178.162 127.396 178.407 124.836C178.662 122.156 179.1 119.503 179.705 116.879C179.926 115.925 179.984 114.956 179.955 113.984L179.954 113.945L179.953 113.874C179.944 113.426 179.934 112.924 179.419 112.731C178.818 112.505 178.314 112.76 177.876 113.209C177.104 113.998 176.571 114.943 176.038 115.886L175.948 116.048C172.628 121.938 171.473 128.44 170.609 135.021C170.506 135.817 170.58 136.617 170.963 137.344C171.364 138.104 171.042 138.598 170.421 139.012C169.284 139.772 167.768 139.488 166.724 138.338C165.763 137.278 165.478 135.945 165.221 134.24C165.027 134.654 164.844 135.057 164.666 135.45ZM124.751 150.129L124.75 150.13C123.668 150.773 122.653 151.377 121.653 152.002C115.475 155.863 109.332 159.775 104.084 164.898C102.055 166.879 100.202 169.001 99.1845 171.718C97.8433 175.304 100.074 179.104 103.628 179.184C105.396 179.224 106.99 178.53 108.488 177.638C112.604 175.189 115.969 171.899 118.914 168.17C123.235 162.702 125.729 156.498 126.255 149.232C125.745 149.538 125.253 149.83 124.775 150.115L124.751 150.129Z" fill="#045762"/>
<path d="M101.914 138.006C101.163 142.133 100.422 146.208 100.305 150.143C100.307 150.419 100.305 150.683 100.304 150.937C100.297 152.088 100.292 153.027 100.568 153.943C101.147 155.845 102.677 156.957 104.393 156.705C105.877 156.49 106.501 155.6 106.238 154.132C105.989 152.724 106.076 151.316 106.275 149.912C106.626 147.454 107.208 145.046 107.79 142.638C108.191 140.976 108.593 139.314 108.918 137.637C108.955 137.446 108.992 137.256 109.029 137.066L109.03 137.062C109.628 134.01 110.227 130.946 109.553 127.807C108.963 125.056 107.295 124.156 104.658 125.226C104.597 125.251 104.536 125.275 104.474 125.3C103.435 125.715 102.342 126.151 103.181 127.733C103.296 127.951 103.27 128.249 103.245 128.536C103.238 128.62 103.23 128.703 103.227 128.782C103.147 130.636 102.884 132.466 102.573 134.296C102.364 135.535 102.139 136.773 101.914 138.006Z" fill="#045762"/>
<path d="M50.6712 113.339C50.8089 109.203 51.5115 105.245 52.2111 101.304C52.3749 100.381 52.5387 99.4586 52.6949 98.5353C53.0109 96.6683 53.2871 94.7933 53.5421 92.9156C53.5603 92.78 53.5818 92.6416 53.6035 92.5017C53.7212 91.7434 53.8455 90.9422 53.489 90.3076C52.8542 89.1816 53.5102 88.7992 54.2724 88.4088C54.777 88.1511 55.3321 87.9679 55.8818 87.8165C57.8657 87.2721 59.1511 87.9732 59.746 89.9332C60.4976 92.411 60.2214 94.9234 59.8576 97.4119C59.479 100 58.8655 102.539 58.252 105.078C57.7896 106.991 57.3272 108.905 56.9654 110.84C56.5591 113.009 56.2776 115.187 56.7264 117.405C56.9813 118.664 55.4861 119.798 53.9378 119.569C52.355 119.335 51.4918 118.281 50.9872 116.863C50.6519 115.914 50.6616 114.933 50.6704 114.027C50.6728 113.792 50.675 113.562 50.6712 113.339Z" fill="#045762"/>
<path fill-rule="evenodd" clip-rule="evenodd" d="M178.781 95.6625C179.047 95.2179 179.319 94.763 179.607 94.2993C179.768 94.579 179.901 94.8039 180.018 95.0027L180.019 95.0042C180.121 95.1785 180.212 95.3327 180.3 95.4864L180.453 95.7677C181.537 97.7706 182.622 99.7748 184.396 101.289C186.494 103.082 188.993 103.143 191.173 101.467C192.69 100.301 193.64 98.7212 194.357 96.9923C194.392 96.9091 194.432 96.8214 194.474 96.7309C194.737 96.1593 195.051 95.4781 194.246 95.1571C193.731 94.9535 193.603 95.4043 193.482 95.8312C193.433 96.0057 193.384 96.1762 193.311 96.2965C191.054 99.996 188.539 100.24 185.835 96.8489C185.038 95.8495 184.34 94.7707 183.642 93.6913C183.213 93.0268 182.783 92.3619 182.329 91.7152C181.854 91.0353 181.939 90.4882 182.308 89.7898C183.673 87.219 185.028 84.6402 186.271 82.011L186.359 81.8232C187.125 80.1918 187.841 78.6684 190.14 79.0444C190.717 79.1392 190.714 78.7034 190.712 78.3128C190.711 78.2435 190.711 78.1755 190.714 78.1123C190.735 77.6501 190.743 77.2093 190.06 77.2491C187.856 77.3766 185.649 77.4032 183.442 77.2518C182.956 77.2199 182.664 77.3899 182.709 77.9157C182.717 78.0116 182.712 78.1166 182.706 78.2223C182.686 78.6027 182.665 78.9939 183.278 79.0126C184.674 79.0577 184.924 79.9846 184.661 81.023C183.928 83.9205 182.526 86.5285 181.028 89.2825C178.943 85.5193 176.691 82.157 173.621 79.4242C173.122 78.9815 173.385 78.7237 173.707 78.4085L173.743 78.3725C174.723 77.4032 175.477 76.2718 176.163 75.0767C178.242 71.4568 176.832 67.6564 174.768 65.5875C173.047 63.8613 171.257 63.7683 169.552 65.4946C165.866 69.2286 163.694 74.503 169.011 79.3233C169.632 79.889 169.489 80.205 168.928 80.6485C167.715 81.6099 166.599 82.6829 165.667 83.9258C162.732 87.8431 161.42 92.1348 162.9 96.9684C163.957 100.424 167.165 102.795 170.506 102.665C173.106 102.564 174.898 101.026 176.46 99.1382C177.332 98.0839 178.032 96.914 178.781 95.6625ZM167.855 97.6137C166.18 95.8264 165.404 93.6725 165.335 91.1787C165.516 87.4978 167.003 84.3587 169.669 81.7374C170.291 81.1266 170.708 81.193 171.297 81.7772C174.423 84.8659 176.529 88.6292 178.505 92.4854C178.68 92.828 178.696 93.1308 178.5 93.4734C177.552 95.1226 176.553 96.7373 175.106 98.0068C172.673 100.139 170.094 100.001 167.855 97.6137ZM171.703 77.6656C170.065 76.0696 168.432 74.4792 168.389 72.2164C168.509 70.1104 168.976 68.4292 170.214 67.0615C171.393 65.7575 172.58 65.8425 173.618 67.2394C175.727 70.0785 175.305 75.1776 172.758 77.6209C172.715 77.6617 172.674 77.7084 172.632 77.7554C172.44 77.9715 172.242 78.193 171.911 77.8679L171.703 77.6656Z" fill="#045762"/>
</svg>
