<svg width="40" height="40" viewBox="0 0 40 40" fill="none" xmlns="http://www.w3.org/2000/svg">
<g clip-path="url(#clip0_177_1494)">
<path d="M13.109 28.3302C15.6473 28.9724 18.6109 29.4069 21.6732 29.2367C28.4232 28.8617 31.1524 25.643 31.6732 24.0805L33.5482 21.1117L35.7357 14.7055L36.2045 10.4867L35.892 7.8305L35.2568 7.19531C36.2684 7.47114 37.1663 8.12817 37.713 9.08541C39.2791 11.8274 39.2401 15.1773 37.6107 17.8837L30.3462 29.9499C27.8146 34.1548 22.0797 35.2151 18.1559 32.2037L13.109 28.3302Z" fill="#BAD4C4"/>
<path d="M25.9149 7.72061C27.9842 7.21855 29.8466 6.86197 31.3047 6.68631C32.0341 6.59843 32.656 6.55663 33.1487 6.56316C33.6535 6.56985 33.9819 6.62746 34.1535 6.7086L34.1538 6.70875C34.756 6.9928 35.2123 7.36676 35.521 7.86486C35.8297 8.3631 36.0064 9.01076 36.0068 9.86836C35.9018 13.3467 34.8685 17.9887 32.84 21.8188C30.8073 25.6567 27.8193 28.6046 23.8337 28.8605C22.5536 28.9314 21.2419 28.9481 19.9189 28.9C19.7464 28.8937 19.6015 29.0285 19.5952 29.2009C19.589 29.3734 19.7237 29.5183 19.8962 29.5246C21.2397 29.5735 22.5711 29.5565 23.8697 29.4845L23.8724 29.4843C28.1778 29.2085 31.3174 26.0289 33.3923 22.1113C35.4707 18.1871 36.5249 13.4475 36.6317 9.88237L36.6318 9.87774V9.87311C36.6321 8.92704 36.437 8.15654 36.0522 7.53564C35.6668 6.91371 35.1067 6.46719 34.4204 6.14347C34.1196 6.00128 33.6753 5.94509 33.157 5.93822C32.6265 5.93118 31.9746 5.97608 31.2299 6.0658C29.7395 6.24536 27.8514 6.60763 25.7675 7.11323C25.5998 7.15393 25.4968 7.32288 25.5375 7.49061C25.5782 7.65833 25.7471 7.76131 25.9149 7.72061Z" fill="#045762"/>
<path d="M3.0065 18.4847C3.11866 18.3536 3.10324 18.1563 2.97206 18.0441C2.84088 17.932 2.64361 17.9474 2.53146 18.0786C1.95153 18.7569 1.50303 19.4867 1.32878 20.2434C1.15152 21.0132 1.26253 21.795 1.77288 22.5427L1.78726 22.5637L1.80487 22.5822C4.82798 25.7508 8.79835 27.6323 13.0047 28.6262C13.1726 28.6659 13.341 28.5619 13.3806 28.394C13.4203 28.226 13.3163 28.0577 13.1484 28.018C9.03316 27.0456 5.19061 25.2165 2.27508 22.1696C1.87924 21.5788 1.79968 20.9837 1.93784 20.3837C2.08062 19.7636 2.46027 19.1236 3.0065 18.4847Z" fill="#045762"/>
<path fill-rule="evenodd" clip-rule="evenodd" d="M24.2121 13.4962C24.48 13.2556 24.624 12.9353 24.766 12.6194L24.7662 12.619L24.7663 12.6187C24.7824 12.583 24.7984 12.5474 24.8146 12.512C25.1997 11.6687 25.5117 10.7995 25.6394 9.87455C25.6558 9.7581 25.7027 9.67332 25.8294 9.68404C25.9632 9.69579 25.9852 9.79079 25.9627 9.90723C25.6675 11.4588 25.1956 12.9338 24.1266 14.1499C24.0684 14.2163 24.0255 14.2806 24.0138 14.3705C23.9865 14.5849 23.9579 14.7991 23.9293 15.0133C23.8848 15.3454 23.8404 15.6776 23.8013 16.0104C23.7032 16.846 22.6859 17.487 21.8917 17.2071C21.3917 17.0309 21.2451 16.5927 21.5398 16.1519C21.7119 15.8945 21.9366 15.6856 22.1751 15.4946C22.6072 15.1488 22.9326 14.7694 22.9121 14.158C22.9052 13.9545 22.9331 13.7498 22.9612 13.5439C22.983 13.3839 23.0049 13.2231 23.0107 13.0615C22.9725 13.1211 22.9353 13.1814 22.898 13.2417C22.8121 13.3807 22.7261 13.5198 22.6292 13.6509C22.4453 13.8991 22.2114 14.0921 21.8779 14.0406C21.5546 13.9905 21.3983 13.7367 21.2931 13.4594C21.2462 13.336 21.2147 13.207 21.1806 13.0677C21.1646 13.0024 21.1481 12.9347 21.1292 12.8644C21.097 12.9425 21.066 13.0199 21.0353 13.0967C20.9154 13.3961 20.8003 13.6839 20.6389 13.9502C20.5326 14.1253 20.4218 14.2969 20.2681 14.4338C19.9121 14.75 19.4856 14.6877 19.2231 14.2924C19.1106 14.123 19.0626 13.9326 19.0112 13.7288C18.9896 13.6432 18.9675 13.5552 18.9397 13.4655C18.9224 13.5092 18.9053 13.5526 18.8884 13.5957C18.7571 13.9303 18.6338 14.2444 18.4596 14.5344C18.3544 14.7101 18.2384 14.8782 18.0868 15.0161C17.7338 15.3378 17.2961 15.2842 17.0464 14.8797C16.7553 14.4078 16.7492 13.8812 16.7834 13.3506C16.7848 13.3288 16.789 13.3069 16.7933 13.2846C16.8048 13.2249 16.8169 13.1624 16.7767 13.0906C16.5055 13.2689 16.2318 13.4338 15.9187 13.5212C15.8252 13.5473 15.8203 13.6335 15.8157 13.7139C15.8143 13.7389 15.8129 13.7633 15.8089 13.7852C15.7129 14.3051 15.577 14.8128 15.3166 15.2755C15.1107 15.6412 14.8748 15.9864 14.431 16.1029C13.9039 16.2413 13.4447 16.037 13.1296 15.5023C13.0423 15.3542 12.9795 15.3169 12.8217 15.4139C12.5326 15.5916 12.2323 15.7515 11.9289 15.9037C11.7966 15.9701 11.7501 16.0508 11.7455 16.1979C11.697 17.8772 11.1521 19.3767 10.0581 20.6555C9.08924 21.7883 7.93755 22.6596 6.44571 22.9926C6.22252 23.0427 5.99473 23.0718 5.76389 23.0723C4.71791 23.0743 4.30831 22.1361 4.50545 21.3711C4.66275 20.7592 5.03814 20.2755 5.46409 19.8317C6.33488 18.9242 7.364 18.2163 8.41355 17.538C8.81349 17.2798 9.22243 17.0351 9.63117 16.7906C9.747 16.7213 9.86283 16.652 9.97842 16.5825L9.98792 16.5767C10.0741 16.5248 10.1453 16.4819 10.1429 16.3567C10.1117 14.9614 9.95544 13.5875 9.25165 12.3506C8.67913 11.3444 7.82825 10.7438 6.61374 10.9032C5.59994 11.0365 4.89462 11.6478 4.44008 12.5329C3.80115 13.777 3.59788 15.1039 3.81852 16.4864C3.86755 16.7944 3.96612 17.0932 4.28481 17.2633C4.46306 17.3583 4.38849 17.5094 4.29145 17.6305C4.0555 17.9252 3.54324 17.9752 3.20003 17.7367C2.794 17.4548 2.62443 17.0355 2.54527 16.5712C2.3849 15.6284 2.55702 14.7224 2.92168 13.8587C3.78021 11.825 5.31955 10.6125 7.48249 10.2009C8.99016 9.91387 10.2195 10.5686 10.9498 12.0058C11.3594 12.8123 11.5469 13.6795 11.6628 14.5661C11.6969 14.8261 11.7148 15.089 11.7325 15.3511L11.7343 15.3771C11.744 15.5181 11.7839 15.5569 11.9182 15.4788C12.1751 15.3296 12.434 15.182 12.7016 15.0533C12.8574 14.9788 12.8937 14.8991 12.8707 14.7209C12.7343 13.6473 12.862 12.6182 13.4851 11.6984C13.7747 11.2709 14.1633 10.967 14.6725 10.8311C15.0821 10.7213 15.4969 10.9588 15.5975 11.3715C15.6317 11.5119 15.6148 11.6442 15.4902 11.7387C15.3845 11.8189 15.2726 11.823 15.1582 11.751C15.0183 11.6631 15.0066 11.5365 15.0484 11.394C15.0519 11.3821 15.0568 11.3703 15.0617 11.3585C15.0794 11.316 15.0967 11.2744 15.0423 11.2356C14.9718 11.1851 14.8983 11.1887 14.8273 11.2321C14.7302 11.2913 14.6618 11.3802 14.6118 11.4787C14.0653 12.5635 13.8513 13.7019 14.0653 14.9073C14.0954 15.0763 14.1613 15.2346 14.2721 15.3674C14.4545 15.586 14.7093 15.5804 14.8722 15.347C15.1009 15.0194 15.2079 14.6399 15.3146 14.2614L15.3334 14.1948C15.3432 14.1605 15.3505 14.1256 15.3578 14.0908C15.3662 14.0508 15.3745 14.0109 15.3865 13.9721L15.3873 13.9698C15.4569 13.7426 15.5132 13.5589 15.219 13.3965C14.9636 13.2561 14.9463 12.944 14.9968 12.6611C15.0316 12.468 15.145 12.3439 15.3406 12.2954C15.6036 12.23 15.7435 12.3015 15.8324 12.5574C15.886 12.7116 15.9126 12.8705 15.8993 13.0329C15.8865 13.1871 15.9463 13.203 16.076 13.1504C16.5249 12.967 16.8503 12.7132 16.9029 12.1677C16.971 11.4623 17.065 10.7595 17.1591 10.0568L17.1593 10.0548C17.1957 9.78283 17.2321 9.51084 17.267 9.23869L17.2675 9.23521C17.2826 9.11604 17.2964 9.00787 17.1133 9.06351C16.9876 9.10192 16.861 9.13768 16.7343 9.17344C16.3219 9.28985 15.9093 9.40635 15.5295 9.61458C15.217 9.78619 14.9151 9.96903 14.9892 10.4083C14.9989 10.4665 14.9825 10.5334 14.911 10.5513C14.8053 10.5773 14.7277 10.5206 14.673 10.4399C14.4453 10.1034 14.3247 9.50069 14.8329 9.09007C15.1787 8.81019 15.5888 8.67076 16.0091 8.56452C16.3711 8.47264 16.7389 8.40101 17.1058 8.32956L17.2287 8.30559C17.3253 8.28669 17.3825 8.26217 17.386 8.15083C17.3889 8.05929 17.3981 7.96767 17.4073 7.87606C17.4311 7.63908 17.4549 7.40216 17.3687 7.16717C17.3309 7.06502 17.3901 7.00987 17.4601 6.95471C17.8518 6.64469 18.4289 6.82702 18.5674 7.30609C18.5791 7.34644 18.5878 7.38832 18.5939 7.4302L18.5941 7.43167C18.6232 7.64253 18.6378 7.74874 18.698 7.79309C18.7591 7.83811 18.8672 7.81938 19.085 7.78162C19.5436 7.70171 19.5439 7.70139 19.5889 7.24081L19.5925 7.20355C19.6132 6.99375 19.6339 6.78396 19.5474 6.58341C19.5024 6.47849 19.5648 6.4292 19.6291 6.37838L19.6353 6.3735C20.0556 6.03999 20.6307 6.23713 20.7589 6.75756C20.8003 6.92457 20.7967 7.09516 20.7911 7.26472C20.7865 7.40823 20.8253 7.4731 20.9795 7.43071C21.5531 7.27391 22.1276 7.11661 22.6496 6.82243C22.6614 6.81573 22.6734 6.80908 22.6854 6.80241C22.8551 6.70786 23.0311 6.60985 23.0015 6.34949C22.9877 6.231 23.0991 6.23151 23.1879 6.25348C23.4295 6.31272 23.5112 6.56911 23.3432 6.7734C23.0888 7.08188 22.7415 7.26676 22.3932 7.4445C21.9234 7.68403 21.4351 7.88015 20.9315 8.03541C20.8105 8.07269 20.7548 8.11713 20.7364 8.25298C20.5998 9.26265 20.4219 10.2654 20.2439 11.2683L20.2439 11.2687C20.1803 11.6268 20.1168 11.9849 20.0551 12.3434C19.9862 12.7448 19.9376 13.1499 19.93 13.5579C19.9279 13.659 19.9402 13.7612 19.9565 13.8608L19.958 13.8695C19.9698 13.9406 19.9833 14.0222 20.0755 14.036C20.1608 14.0482 20.2185 13.99 20.266 13.9292C20.4039 13.7535 20.4923 13.5498 20.5786 13.3475C21.0398 12.2699 21.2926 11.1386 21.4029 9.97618C21.4065 9.93889 21.4114 9.90115 21.4163 9.86313C21.4412 9.67098 21.467 9.47191 21.3238 9.29027C21.2746 9.22812 21.3435 9.17521 21.3991 9.1325C21.4088 9.12503 21.4182 9.11784 21.4264 9.11101C21.7855 8.81274 22.3217 8.94502 22.5112 9.37761C22.6986 9.80611 22.6287 10.2489 22.5505 10.6815C22.4683 11.1394 22.3753 11.5953 22.2823 12.0512L22.2822 12.0517C22.2194 12.3599 22.1565 12.668 22.097 12.9767C22.0944 12.9902 22.0916 13.0041 22.0887 13.0182C22.0571 13.1735 22.0187 13.3622 22.1905 13.4343C22.3933 13.5196 22.4858 13.334 22.5597 13.1856C22.5654 13.1741 22.571 13.1628 22.5766 13.1519C23.0163 12.2826 23.3161 11.3664 23.4428 10.3991C23.4527 10.3231 23.4633 10.2472 23.474 10.1712L23.474 10.1707L23.4741 10.1702C23.5234 9.81796 23.5727 9.46511 23.5572 9.10743C23.5562 9.08388 23.5563 9.05927 23.5564 9.03441C23.5568 8.95254 23.5571 8.86793 23.5199 8.80916C23.3856 8.59874 23.5265 8.51192 23.667 8.43225C24.1655 8.15083 24.6772 8.44399 24.7109 9.03899C24.7446 9.6345 24.6844 10.2269 24.5955 10.8148C24.5282 11.2593 24.4549 11.7028 24.3815 12.1463C24.3261 12.4809 24.2708 12.8154 24.2181 13.1504C24.2151 13.169 24.2118 13.1877 24.2084 13.2066C24.1912 13.3017 24.1735 13.3998 24.2121 13.4962ZM24.1992 13.5081L24.207 13.5043C24.2051 13.5085 24.2031 13.5124 24.2007 13.5145C24.1992 13.516 24.1952 13.5153 24.1914 13.5146L24.1896 13.5143L24.1874 13.514L24.1922 13.5115L24.1992 13.5081ZM5.92936 22.6938C6.1551 22.6913 6.47584 22.5391 6.78177 22.3506C7.483 21.9186 8.07289 21.3588 8.59179 20.7245C9.42735 19.7025 9.96514 18.5503 10.0872 17.2234C10.0887 17.2066 10.0927 17.1882 10.0968 17.1693C10.1096 17.1106 10.1233 17.0478 10.0637 17.0161C10.007 16.9857 9.95085 17.0257 9.89871 17.063C9.88515 17.0726 9.87187 17.0821 9.85891 17.0901C9.73447 17.167 9.60978 17.2434 9.48509 17.3198C9.13237 17.5361 8.77957 17.7524 8.43245 17.9773C7.43397 18.6244 6.45643 19.3006 5.63671 20.1739C5.28074 20.5534 4.95898 20.9604 4.85479 21.4911C4.73477 22.0988 5.19187 22.6877 5.92936 22.6938ZM17.7517 14.2971C17.7499 14.4212 17.7479 14.5626 17.8794 14.6008C18.0407 14.6478 18.1088 14.5108 18.1749 14.378C18.1979 14.3316 18.2207 14.2858 18.2471 14.2484C18.2697 14.2168 18.2845 14.1797 18.2994 14.1427C18.3037 14.132 18.308 14.1211 18.3125 14.1105C18.6848 13.2433 18.9882 12.3582 19.0919 11.4108C19.1674 10.722 19.2607 10.0351 19.354 9.34837C19.3874 9.1023 19.4209 8.85611 19.4535 8.60998L19.4537 8.60813C19.4679 8.49928 19.4781 8.4208 19.3207 8.47362C19.12 8.54103 18.9152 8.59874 18.7098 8.64982C18.6006 8.6774 18.5633 8.73664 18.5505 8.8444C18.4714 9.51534 18.3547 10.1805 18.238 10.8456C18.1949 11.0908 18.1519 11.336 18.1108 11.5814C18.0782 11.7765 18.043 11.9711 18.0078 12.1663C17.8905 12.8159 17.7722 13.4709 17.7451 14.1636C17.7531 14.2001 17.7525 14.2472 17.7517 14.2971ZM22.8268 15.3649C22.8141 15.3621 22.8044 15.3595 22.7971 15.3576C22.7855 15.3545 22.78 15.353 22.7778 15.3552C22.5623 15.5441 22.3467 15.7331 22.1333 15.9241C22.0005 16.0431 21.881 16.1729 21.7972 16.3327C21.6532 16.6085 21.8273 16.9139 22.1389 16.9282C22.3309 16.9369 22.4581 16.8363 22.5459 16.6775C22.712 16.3778 22.7467 16.0523 22.7814 15.7267C22.7943 15.6058 22.8072 15.4845 22.8268 15.3649Z" fill="#045762"/>
<path fill-rule="evenodd" clip-rule="evenodd" d="M27.0512 21.4326C26.9035 21.7585 26.7729 22.0465 26.571 22.2945L26.57 22.2956C26.5065 22.3739 26.4414 22.4541 26.3647 22.5182C25.9944 22.8271 25.5807 22.7562 25.3279 22.345C25.2359 22.1961 25.1821 22.03 25.1176 21.8311L25.1134 21.8179C25.0803 21.8971 25.0495 21.9738 25.0196 22.0483C24.9556 22.2077 24.8954 22.3576 24.8248 22.5023C24.5209 23.1254 24.0194 23.3675 23.3651 23.225C23.0454 23.1555 22.7998 22.9783 22.6527 22.6954C22.5475 22.4926 22.4489 22.5049 22.2798 22.6086C22.0471 22.7515 21.8035 22.8771 21.5602 23.0026L21.4974 23.035C21.359 23.1065 21.289 23.1913 21.2824 23.3649C21.1731 26.0917 19.8646 28.1035 17.5755 29.5192C16.9984 29.8762 16.3676 30.1066 15.695 30.1954C15.1766 30.2639 14.6679 30.2414 14.3048 29.7751C13.9243 29.2863 13.9294 28.7536 14.1552 28.2107C14.4218 27.5688 14.8804 27.0657 15.386 26.6071C16.5939 25.511 17.9637 24.6423 19.3682 23.8277C19.6031 23.6913 19.7022 23.5509 19.6879 23.273C19.62 21.9313 19.4576 20.6101 18.7558 19.4303C18.2119 18.5156 17.4223 17.9558 16.3079 18.0314C15.5014 18.086 14.8533 18.4803 14.3595 19.108C13.6674 19.987 13.3983 21.0278 13.3063 22.1157C13.2553 22.7224 13.2297 23.3384 13.4468 23.9303C13.5127 24.1096 13.5974 24.2664 13.7691 24.3721C13.9657 24.4931 13.9744 24.6295 13.8135 24.8047C13.5285 25.1147 13.0224 25.1229 12.6592 24.8215C12.2966 24.5212 12.1424 24.1101 12.0806 23.6647C11.9166 22.4824 12.2057 21.3838 12.7788 20.3619C13.836 18.4768 15.4718 17.4512 17.6169 17.3021C18.812 17.2188 19.692 17.8256 20.31 18.8266C20.7778 19.584 21.0015 20.4242 21.1491 21.2919C21.2175 21.6944 21.2584 22.0988 21.2747 22.5059C21.2819 22.6847 21.3375 22.7041 21.4867 22.6152C21.7272 22.4722 21.9739 22.3379 22.2267 22.2168C22.3713 22.1474 22.3871 22.0559 22.3697 21.9114C22.2523 20.9441 22.3942 20.0151 22.8258 19.1392C23.0705 18.6427 23.4402 18.2694 23.9683 18.0672C24.1552 17.9957 24.3468 17.9691 24.5434 17.99C24.8606 18.0232 25.1098 18.2878 25.1282 18.5988C25.1364 18.7372 25.1006 18.8557 24.9699 18.9196C24.8544 18.9757 24.7344 18.9655 24.6353 18.8797C24.5352 18.7929 24.5168 18.6821 24.5623 18.5554C24.5666 18.5435 24.5737 18.5313 24.581 18.5188C24.6035 18.4803 24.6274 18.4394 24.573 18.3981C24.5112 18.3511 24.4448 18.3664 24.3795 18.3935C24.2441 18.4497 24.1614 18.5666 24.1083 18.6872C23.6363 19.7592 23.3406 20.8614 23.5909 22.0457C23.6266 22.2143 23.6946 22.3706 23.7936 22.509C23.9734 22.7608 24.2094 22.7669 24.4035 22.5279C24.5899 22.298 24.6736 22.0192 24.7472 21.7408C25.0362 20.6489 25.2538 19.5432 25.3437 18.4155L25.346 18.3873C25.3576 18.2471 25.3696 18.1011 25.2691 17.9752C25.2065 17.8968 25.2615 17.8478 25.3115 17.8034C25.3182 17.7974 25.3247 17.7916 25.3309 17.7857C25.6302 17.5038 26.1813 17.5855 26.3912 17.9395C26.5853 18.2674 26.5618 18.6249 26.5301 18.9808C26.4854 19.4829 26.3729 19.9721 26.2603 20.4614C26.1942 20.7491 26.128 21.0369 26.0756 21.3271C26.0454 21.4936 26.0189 21.6632 26.0153 21.8317L26.0149 21.8497C26.0124 21.9486 26.0092 22.0733 26.142 22.107C26.2676 22.1392 26.3452 22.0524 26.4111 21.9564C26.5715 21.7235 26.6772 21.4645 26.7829 21.2051C27.2319 20.1024 27.4694 18.9533 27.5286 17.7663C27.5295 17.7489 27.5309 17.7311 27.5324 17.713C27.5393 17.6267 27.5466 17.5359 27.4959 17.467C27.3636 17.2883 27.4806 17.2081 27.6098 17.1305C28.0031 16.893 28.4449 17.0355 28.6241 17.4563C28.6742 17.5738 28.7084 17.6964 28.6972 17.8532C28.7982 17.801 28.8329 17.721 28.8653 17.6465C28.8745 17.6253 28.8835 17.6046 28.8938 17.585C29.0725 17.2449 29.2722 16.9201 29.5695 16.6683C29.9607 16.3373 30.378 16.3986 30.6461 16.8353C30.8861 17.2265 30.925 17.6688 30.9178 18.1126C30.9099 18.6167 30.8168 19.1095 30.7237 19.6022L30.7236 19.6026C30.6844 19.8101 30.6452 20.0177 30.6124 20.226C30.593 20.3511 30.5884 20.4798 30.5904 20.6065C30.592 20.7178 30.6073 20.8368 30.7452 20.8665C30.8703 20.893 30.9566 20.8195 31.021 20.724C31.2518 20.3833 31.3918 19.9998 31.5256 19.6152C31.7237 19.0462 31.9091 18.4737 31.9837 17.8721C31.998 17.7571 32.0506 17.6739 32.1793 17.6872C32.3208 17.702 32.3279 17.8082 32.3075 17.916C32.1139 18.9277 31.8575 19.9185 31.3412 20.823C31.2993 20.8966 31.2498 20.9666 31.1992 21.0345C31.0097 21.2904 30.7866 21.5064 30.4372 21.4466C30.1073 21.39 29.9495 21.1239 29.831 20.8465C29.6318 20.3787 29.6466 19.8838 29.6936 19.3915C29.7426 18.8761 29.8269 18.3659 29.9433 17.8613C29.9857 17.678 29.997 17.4916 29.9913 17.3046L29.9912 17.297L29.9909 17.2834C29.9891 17.1973 29.9872 17.1008 29.8882 17.0636C29.7728 17.0202 29.6757 17.0692 29.5914 17.1555C29.4431 17.3072 29.3405 17.4891 29.2381 17.6705L29.2207 17.7015C28.5822 18.8343 28.3601 20.0845 28.1941 21.3501C28.1742 21.5033 28.1885 21.6571 28.262 21.797C28.3391 21.9431 28.2773 22.0381 28.1578 22.1177C27.9392 22.2638 27.6476 22.2092 27.4469 21.988C27.262 21.7842 27.2074 21.5279 27.1578 21.2C27.1206 21.2795 27.0855 21.3571 27.0512 21.4326ZM19.3752 24.2556L19.3749 24.2557C19.1668 24.3795 18.9716 24.4956 18.7793 24.6157C17.5914 25.3583 16.41 26.1106 15.4008 27.0958C15.0106 27.4768 14.6541 27.8849 14.4585 28.4074C14.2006 29.0969 14.6296 29.8277 15.313 29.843C15.6531 29.8507 15.9596 29.7174 16.2476 29.5458C17.0393 29.0749 17.6863 28.4421 18.2527 27.725C19.0837 26.6734 19.5633 25.4804 19.6644 24.083C19.5663 24.1419 19.4718 24.1981 19.3797 24.2529L19.3752 24.2556Z" fill="#045762"/>
<path d="M14.9835 21.9242C14.8391 22.7178 14.6965 23.5016 14.6741 24.2582C14.6743 24.3113 14.6741 24.3621 14.6738 24.4109C14.6725 24.6322 14.6715 24.8129 14.7246 24.9891C14.836 25.3547 15.1301 25.5687 15.4601 25.5202C15.7456 25.4789 15.8656 25.3078 15.815 25.0253C15.767 24.7546 15.7839 24.484 15.8222 24.2138C15.8896 23.7412 16.0015 23.2781 16.1134 22.815C16.1906 22.4954 16.2678 22.1758 16.3304 21.8532C16.3375 21.8166 16.3446 21.7801 16.3518 21.7435L16.3519 21.7427C16.4668 21.1557 16.5822 20.5666 16.4524 19.963C16.339 19.4339 16.0183 19.2607 15.5112 19.4666C15.4994 19.4713 15.4876 19.476 15.4757 19.4808C15.276 19.5605 15.0657 19.6445 15.2272 19.9487C15.2493 19.9905 15.2442 20.048 15.2394 20.103C15.238 20.1192 15.2366 20.1351 15.2359 20.1504C15.2205 20.5069 15.17 20.8588 15.1102 21.2107C15.0699 21.4491 15.0266 21.6871 14.9835 21.9242Z" fill="#045762"/>
<path d="M5.12905 17.1805C5.15553 16.3852 5.29065 15.6241 5.42518 14.8662C5.4567 14.6886 5.48818 14.5113 5.51823 14.3337C5.579 13.9747 5.63212 13.6141 5.68115 13.253C5.68465 13.2269 5.68878 13.2003 5.69295 13.1734C5.71558 13.0276 5.73949 12.8735 5.67093 12.7515C5.54887 12.5349 5.67502 12.4614 5.8216 12.3863C5.91864 12.3368 6.02538 12.3015 6.1311 12.2724C6.51262 12.1677 6.75981 12.3026 6.87421 12.6795C7.01875 13.156 6.96563 13.6391 6.89566 14.1177C6.82285 14.6154 6.70488 15.1036 6.5869 15.5919C6.49798 15.9599 6.40906 16.3279 6.33948 16.6999C6.26134 17.1172 6.2072 17.536 6.29351 17.9625C6.34254 18.2045 6.055 18.4226 5.75725 18.3787C5.45285 18.3338 5.28686 18.131 5.18983 17.8583C5.12535 17.6758 5.1272 17.4872 5.12891 17.3129C5.12935 17.2677 5.12979 17.2235 5.12905 17.1805Z" fill="#045762"/>
<path fill-rule="evenodd" clip-rule="evenodd" d="M29.7655 13.7813C29.8167 13.6958 29.869 13.6083 29.9244 13.5191C29.9554 13.5729 29.9809 13.6161 30.0034 13.6544L30.0036 13.6547C30.0233 13.6882 30.0408 13.7178 30.0577 13.7474L30.087 13.8015C30.2956 14.1867 30.5043 14.5721 30.8453 14.8633C31.2488 15.2081 31.7294 15.2198 32.1487 14.8976C32.4403 14.6734 32.6231 14.3695 32.761 14.037C32.7677 14.021 32.7754 14.0041 32.7834 13.9867C32.834 13.8768 32.8943 13.7458 32.7396 13.6841C32.6406 13.6449 32.616 13.7316 32.5927 13.8137C32.5832 13.8473 32.5739 13.8801 32.5598 13.9032C32.1257 14.6146 31.642 14.6616 31.1221 14.0094C30.9688 13.8172 30.8347 13.6098 30.7004 13.4022C30.6178 13.2744 30.5351 13.1465 30.4479 13.0222C30.3565 12.8914 30.3729 12.7862 30.4438 12.6519C30.7064 12.1575 30.9668 11.6616 31.2059 11.156L31.2228 11.1199C31.3702 10.8061 31.5078 10.5132 31.95 10.5855C32.061 10.6037 32.0605 10.5199 32.0599 10.4448C32.0599 10.4314 32.0598 10.4184 32.0603 10.4062C32.0644 10.3173 32.0659 10.2326 31.9347 10.2402C31.5108 10.2647 31.0863 10.2698 30.6619 10.2407C30.5685 10.2346 30.5123 10.2673 30.521 10.3684C30.5225 10.3869 30.5214 10.407 30.5204 10.4274C30.5164 10.5005 30.5124 10.5758 30.6303 10.5794C30.8989 10.588 30.9469 10.7663 30.8964 10.966C30.7554 11.5232 30.4857 12.0247 30.1977 12.5543C29.7968 11.8306 29.3637 11.1841 28.7733 10.6585C28.6773 10.5734 28.7279 10.5238 28.7897 10.4632L28.7967 10.4563C28.9852 10.2698 29.1303 10.0523 29.262 9.82245C29.6619 9.12633 29.3907 8.39547 28.9939 7.99762C28.6629 7.66564 28.3187 7.64777 27.9908 7.97974C27.2819 8.69783 26.8641 9.71213 27.8866 10.6391C28.0061 10.7479 27.9786 10.8087 27.8708 10.894C27.6374 11.0788 27.4229 11.2852 27.2436 11.5242C26.6793 12.2775 26.427 13.1029 26.7114 14.0324C26.9147 14.6969 27.5317 15.1529 28.1742 15.1279C28.6742 15.1085 29.0189 14.8128 29.3192 14.4497C29.4869 14.2469 29.6215 14.0219 29.7655 13.7813ZM27.6645 14.1565C27.3422 13.8128 27.1931 13.3986 27.1798 12.919C27.2145 12.2111 27.5005 11.6074 28.0133 11.1034C28.1328 10.9859 28.213 10.9987 28.3264 11.111C28.9275 11.705 29.3325 12.4287 29.7125 13.1703C29.7462 13.2362 29.7493 13.2944 29.7115 13.3603C29.5291 13.6774 29.3371 13.988 29.0588 14.2321C28.5909 14.6422 28.095 14.6156 27.6645 14.1565ZM28.4044 10.3203C28.0894 10.0134 27.7754 9.70755 27.7671 9.2724C27.7901 8.86739 27.88 8.5441 28.118 8.28107C28.3448 8.0303 28.5731 8.04665 28.7727 8.31529C29.1783 8.86126 29.0971 9.84186 28.6073 10.3117C28.5991 10.3196 28.5911 10.3286 28.583 10.3376C28.546 10.3791 28.5081 10.4217 28.4443 10.3592L28.4044 10.3203Z" fill="#045762"/>
</g>
<defs>
<clipPath id="clip0_177_1494">
<rect width="40" height="40" fill="white"/>
</clipPath>
</defs>
</svg>
