<svg width="40" height="40" viewBox="0 0 40 40" fill="none" xmlns="http://www.w3.org/2000/svg">
<g clip-path="url(#clip0_177_1473)">
<path fill-rule="evenodd" clip-rule="evenodd" d="M1.14434 3.55884L0.00843278 25.6575C-0.181369 29.35 2.8583 32.3992 6.55138 32.2211L6.5625 32.2205V6.5625H34.1173C33.8164 6.44302 33.5025 6.34555 33.1772 6.27236L5.71257 0.0928135C3.44469 -0.41746 1.26367 1.23733 1.14434 3.55884ZM4.77745 3.36151C4.39363 3.57087 4.09687 4.02417 4.02711 4.93107C3.9029 6.54571 3.45553 15.0651 3.24688 19.1339C3.2292 19.4786 2.93541 19.7437 2.59069 19.7261C2.24596 19.7084 1.98084 19.4146 1.99852 19.0699C2.20653 15.0137 2.65499 6.47057 2.78079 4.8352C2.86728 3.71085 3.27364 2.75791 4.17888 2.26414C5.04723 1.7905 6.19056 1.84719 7.49662 2.25534C9.4623 2.86961 15.7608 4.26908 18.6912 4.89701C19.0287 4.96933 19.2436 5.30158 19.1713 5.63909C19.099 5.97661 18.7668 6.19159 18.4292 6.11926C15.5262 5.49719 9.1581 4.08416 7.12378 3.44844C5.92984 3.07533 5.19817 3.13202 4.77745 3.36151Z" fill="#BAD4C4"/>
<path d="M31.2857 12.6095L27.9703 12.5926C23.2519 12.5926 22.8024 15.6891 22.8024 18.0697V23.342C22.8024 23.5146 22.6625 23.6545 22.4899 23.6545H20.3819C20.2094 23.6545 20.0694 23.7944 20.0694 23.967V27.8595C20.0694 28.0321 20.2094 28.172 20.3819 28.172H22.4841C22.6566 28.172 22.7966 28.3118 22.7966 28.4844V40H8.75C6.85152 40 5.3125 38.461 5.3125 36.5625V8.75C5.3125 6.85152 6.85152 5.3125 8.75 5.3125H36.5625C38.461 5.3125 40 6.85152 40 8.75V36.5625C40 38.461 38.461 40 36.5625 40H28.8494C28.3317 40 27.9119 39.5803 27.9119 39.0625C27.9119 38.5447 28.3317 38.125 28.8494 38.125H36.5625C37.4254 38.125 38.125 37.4254 38.125 36.5625V8.75C38.125 7.88705 37.4254 7.1875 36.5625 7.1875H8.75C7.88706 7.1875 7.1875 7.88706 7.1875 8.75V36.5625C7.1875 37.4254 7.88705 38.125 8.75 38.125H20.9216V30.047H20.3819C19.1738 30.047 18.1944 29.0676 18.1944 27.8595V23.967C18.1944 22.7589 19.1738 21.7795 20.3819 21.7795H20.9274V18.0697C20.9274 16.842 21.0213 14.9788 22.0486 13.4109C23.1867 11.6739 25.1615 10.7176 27.9703 10.7176H27.9751L31.2952 10.7345C32.499 10.7406 33.4716 11.7182 33.4716 12.922V16.6623C33.4716 17.8697 32.493 18.8498 31.2842 18.8498H29.7928V21.7795H31.3171C32.622 21.7795 33.6367 22.9147 33.4908 24.2115L33.0531 28.104C32.9287 29.2106 31.9928 30.047 30.8793 30.047H29.7869V33.4375C29.7869 33.9553 29.3672 34.375 28.8494 34.375C28.3317 34.375 27.9119 33.9553 27.9119 33.4375V28.4842C27.9119 28.3117 28.0518 28.172 28.2244 28.172H30.8793C31.0384 28.172 31.1721 28.0525 31.1898 27.8944L31.6276 24.0019C31.6484 23.8167 31.5035 23.6545 31.3171 23.6545H28.2303C28.0577 23.6545 27.9178 23.5146 27.9178 23.342V18.3773C27.9178 17.2393 28.6302 16.9748 29.1324 16.9748H31.2842C31.4568 16.9748 31.5966 16.8349 31.5966 16.6623V12.922C31.5966 12.75 31.4576 12.6103 31.2857 12.6095Z" fill="#045762"/>
</g>
<defs>
<clipPath id="clip0_177_1473">
<rect width="40" height="40" fill="white"/>
</clipPath>
</defs>
</svg>
