<svg width="256" height="256" viewBox="0 0 256 256" fill="none" xmlns="http://www.w3.org/2000/svg">
<path fill-rule="evenodd" clip-rule="evenodd" d="M29.9506 42.506L24.0439 157.419C23.0569 176.62 38.8631 192.476 58.0672 191.55L58.125 191.547L58.125 58.125L201.41 58.125C199.845 57.5037 198.213 56.9968 196.521 56.6163L53.7054 24.4826C41.9124 21.8292 30.5711 30.4341 29.9506 42.506ZM48.8427 41.4798C46.8469 42.5685 45.3037 44.9257 44.941 49.6416C44.2951 58.0377 41.9688 102.338 40.8838 123.496C40.7918 125.289 39.2641 126.667 37.4716 126.576C35.679 126.484 34.3004 124.956 34.3923 123.163C35.4739 102.071 37.806 57.6469 38.4601 49.143C38.9098 43.2964 41.0229 38.3411 45.7302 35.7735C50.2456 33.3106 56.1909 33.6054 62.9824 35.7277C73.204 38.922 105.956 46.1992 121.194 49.4645C122.949 49.8405 124.067 51.5682 123.691 53.3233C123.315 55.0784 121.587 56.1963 119.832 55.8202C104.736 52.5854 71.6221 45.2376 61.0436 41.9319C54.8351 39.9917 51.0305 40.2865 48.8427 41.4798Z" fill="#BAD4C4"/>
<path d="M186.686 89.5692L169.446 89.4814C144.91 89.4814 142.572 105.583 142.572 117.962V145.378C142.572 146.276 141.845 147.003 140.947 147.003H129.986C129.089 147.003 128.361 147.731 128.361 148.628L128.361 168.869C128.361 169.767 129.089 170.494 129.986 170.494H140.917C141.815 170.494 142.542 171.221 142.542 172.119V232L69.5 232C59.6279 232 51.625 223.997 51.625 214.125L51.625 69.4999C51.625 59.6278 59.6279 51.6249 69.5 51.6249L214.125 51.6249C223.997 51.6249 232 59.6278 232 69.4999L232 214.125C232 223.997 223.997 232 214.125 232L174.017 232C171.325 232 169.142 229.817 169.142 227.125C169.142 224.433 171.325 222.25 174.017 222.25L214.125 222.25C218.612 222.25 222.25 218.612 222.25 214.125L222.25 69.4999C222.25 65.0126 218.612 61.3749 214.125 61.3749L69.5 61.3749C65.0127 61.3749 61.375 65.0126 61.375 69.4999L61.375 214.125C61.375 218.612 65.0127 222.25 69.5 222.25L132.792 222.25V180.244H129.986C123.704 180.244 118.611 175.152 118.611 168.869L118.611 148.628C118.611 142.346 123.704 137.253 129.986 137.253H132.822V117.962C132.822 111.578 133.311 101.89 138.653 93.7364C144.571 84.7041 154.84 79.7314 169.446 79.7314H169.471L186.735 79.8193C192.995 79.8511 198.052 84.9345 198.052 91.1941L198.052 110.644C198.052 116.922 192.964 122.019 186.678 122.019H178.922V137.253H186.849C193.634 137.253 198.911 143.156 198.152 149.9L195.876 170.141C195.229 175.895 190.363 180.244 184.572 180.244L178.892 180.244V197.875C178.892 200.567 176.709 202.75 174.017 202.75C171.325 202.75 169.142 200.567 169.142 197.875V172.118C169.142 171.221 169.87 170.494 170.767 170.494H184.572C185.399 170.494 186.095 169.873 186.187 169.051L188.463 148.81C188.572 147.847 187.818 147.003 186.849 147.003H170.797C169.9 147.003 169.172 146.276 169.172 145.378V119.562C169.172 113.644 172.877 112.269 175.489 112.269H186.678C187.575 112.269 188.302 111.541 188.302 110.644L188.302 91.1941C188.302 90.2999 187.58 89.5737 186.686 89.5692Z" fill="#045762"/>
</svg>
