<svg width="256" height="256" viewBox="0 0 256 256" fill="none" xmlns="http://www.w3.org/2000/svg">
<path fill-rule="evenodd" clip-rule="evenodd" d="M241.244 50.4041C230.706 31.2416 26.6591 17.8278 15.1636 33.1579C9.34468 40.9178 26.1078 82.0654 48.5553 120.811L49.4448 120.396C56.1505 123.271 68.0293 127.295 61.8983 120.396C55.7674 113.498 54.2346 98.9982 54.2346 92.6107L67.6461 62.9088L95.4272 57.16L113.629 71.5319L145.241 71.5319L164.401 57.16L189.308 62.9088L200.804 83.0294C201.123 87.5007 201.953 99.7008 202.719 112.731C204.332 113.222 205.855 113.76 207.293 114.334C229.768 85.7544 245.724 58.552 241.244 50.4041ZM36.1914 45.3278L36.2046 45.3192C36.263 45.2801 36.5038 45.1191 37.0748 44.9022C37.8498 44.6077 38.9581 44.3126 40.4399 44.0469C43.3991 43.5165 47.4232 43.1764 52.3453 43.0217C62.1638 42.7129 75.0755 43.1533 89.163 44.0488C117.313 45.8383 149.791 49.4206 170.795 52.2852C172.891 52.5712 174.823 51.1029 175.109 49.0057C175.395 46.9084 173.927 44.9765 171.83 44.6905C150.683 41.8064 118.019 38.2027 89.6491 36.3992C75.4766 35.4983 62.2836 35.0404 52.1045 35.3604C47.0278 35.5201 42.5799 35.8762 39.0878 36.5022C37.3439 36.8148 35.7317 37.213 34.3532 37.7368C33.0418 38.235 31.5791 38.9798 30.5009 40.1929C27.9124 43.1055 26.8652 46.411 26.9911 49.7693C27.1119 52.991 28.2991 56.0474 29.7679 58.7184C32.1784 63.102 35.8699 67.3054 38.5756 70.3865C39.1057 70.99 39.5979 71.5505 40.0352 72.0608C41.4125 73.6679 43.8315 73.854 45.4383 72.4765C47.0451 71.099 47.2312 68.6795 45.8539 67.0725C45.3093 66.437 44.7388 65.785 44.1552 65.1183C41.4412 62.0172 38.4467 58.5956 36.483 55.0245C35.3173 52.9049 34.7083 51.0509 34.6495 49.482C34.5963 48.0642 34.9777 46.712 36.1914 45.3278Z" fill="#BAD4C4"/>
<path d="M142.39 65.4901C149.144 56.671 159.032 50.8009 170.406 50.8009C192.283 50.8009 208.196 71.9511 208.196 95.5634C208.196 115.378 197.021 133.411 180.505 138.74C179.492 139.067 178.874 140.117 179.149 141.146L189.434 179.534C189.834 181.027 188.392 182.355 186.937 181.834L164.308 173.732C163.557 173.463 162.718 173.688 162.202 174.297L146.655 192.629C145.655 193.808 143.743 193.379 143.343 191.886L130.682 144.628C130.175 142.735 127.488 142.735 126.981 144.628L114.321 191.886C113.921 193.379 112.009 193.808 111.009 192.629L95.4618 174.297C94.9456 173.688 94.1063 173.463 93.355 173.732L70.7263 181.834C69.2712 182.355 67.8299 181.027 68.2299 179.534L78.4793 141.276C78.7574 140.238 78.1254 139.18 77.0989 138.862C69.873 136.627 63.65 131.964 58.9128 125.778C56.1505 122.313 35.4497 122.313 35.4497 142.245L35.4497 200.756C35.4497 210.281 43.1698 218.003 52.6931 218.003L205.926 218.003C215.449 218.003 223.17 210.281 223.17 200.756L223.17 134.577C223.17 131.658 220.13 128.694 217.877 126.898C216.451 125.761 215.498 124.078 215.5 122.255C215.503 118.307 219.631 115.892 222.82 118.22C228.231 122.169 234.665 128.205 234.665 134.577L234.665 200.756C234.665 216.631 221.798 229.5 205.926 229.5L52.6931 229.5C36.821 229.5 23.9541 216.631 23.9541 200.756L23.9541 142.245C23.9541 127.446 35.1368 115.259 49.512 113.676C51.9568 113.406 58.2255 113.53 61.5942 113.621C62.947 113.658 64.128 114.503 64.7325 115.714C69.3992 125.062 77.5267 128.628 86.3533 128.823L91.2333 128.931C92.4752 128.959 93.3631 130.143 93.0416 131.343L85.0123 161.313C84.6123 162.806 86.0536 164.134 87.5087 163.613L96.9737 160.225C97.725 159.956 98.5644 160.181 99.0806 160.789L105.583 168.457C106.583 169.636 108.495 169.207 108.895 167.714L121.11 122.12C122.044 118.635 125.195 116.208 128.802 116.194C132.431 116.181 135.614 118.614 136.553 122.12L148.768 167.714C149.168 169.207 151.08 169.636 152.08 168.457L158.583 160.789C159.099 160.181 159.938 159.956 160.69 160.225L170.155 163.613C171.61 164.134 173.051 162.806 172.651 161.313L164.639 131.408C164.321 130.22 165.188 129.044 166.417 128.997L171.213 128.813C184.408 128.307 196.7 114.639 196.7 95.5634C196.7 76.0822 183.922 62.2984 170.406 62.2984C161.935 62.2984 153.953 67.4928 148.964 76.359L147.278 79.3548C146.799 80.2071 145.754 80.5614 144.855 80.1769L141.695 78.8253C137.87 77.1892 133.413 76.2319 128.613 76.2319C123.814 76.2319 119.356 77.1892 115.531 78.8253L112.371 80.177C111.472 80.5615 110.427 80.2072 109.948 79.3549L108.262 76.3591C103.273 67.4928 95.2909 62.2984 86.8196 62.2984C73.3037 62.2984 60.5257 76.0823 60.5257 95.5634C60.5257 98.6141 58.0642 101.234 55.0135 101.234H54.4706C51.4806 101.234 49.046 98.9188 49.0311 95.9288C49.0304 95.7945 49.0301 95.6719 49.0301 95.5634C49.0301 71.9511 64.9432 50.8009 86.8196 50.8009C98.1942 50.8009 108.083 56.671 114.836 65.4902C115.332 66.1379 116.171 66.4259 116.96 66.2188C120.644 65.2516 124.563 64.7344 128.613 64.7344C132.663 64.7344 136.582 65.2515 140.267 66.2187C141.056 66.4258 141.894 66.1378 142.39 65.4901Z" fill="#045762"/>
</svg>
