<svg width="40" height="40" viewBox="0 0 40 40" fill="none" xmlns="http://www.w3.org/2000/svg">
<g clip-path="url(#clip0_177_1452)">
<path fill-rule="evenodd" clip-rule="evenodd" d="M38.3148 7.33575C36.596 4.21076 3.31478 2.02325 1.43979 4.52326C0.490689 5.78873 3.22485 12.499 6.88617 18.8177L7.03125 18.75C8.125 19.2188 10.0625 19.875 9.0625 18.75C8.0625 17.625 7.8125 15.2604 7.8125 14.2188L10 9.375L14.5312 8.4375L17.5 10.7812H22.6562L25.7812 8.4375L29.8438 9.375L31.7188 12.6562C31.7708 13.3854 31.9062 15.375 32.0312 17.5C32.2943 17.58 32.5427 17.6677 32.7772 17.7614C36.443 13.1006 39.0456 8.6645 38.3148 7.33575ZM4.86954 6.50791L4.87169 6.50652C4.88122 6.50014 4.9205 6.47388 5.01363 6.4385C5.14005 6.39048 5.32081 6.34235 5.5625 6.29903C6.04517 6.21252 6.70152 6.15707 7.50435 6.13183C9.1058 6.08149 11.2118 6.15329 13.5095 6.29934C18.101 6.59117 23.3983 7.17536 26.8241 7.64252C27.1661 7.68916 27.4812 7.44971 27.5278 7.1077C27.5745 6.76568 27.335 6.45062 26.993 6.40398C23.5438 5.93364 18.2161 5.34596 13.5888 5.05186C11.2772 4.90493 9.12533 4.83026 7.46507 4.88245C6.63703 4.90848 5.91155 4.96655 5.34197 5.06864C5.05753 5.11962 4.79457 5.18456 4.56973 5.26998C4.35583 5.35124 4.11725 5.47269 3.9414 5.67053C3.5192 6.1455 3.34839 6.68456 3.36893 7.23222C3.38863 7.75762 3.58226 8.25606 3.82183 8.69164C4.21501 9.40651 4.8171 10.092 5.25843 10.5945C5.34488 10.6929 5.42516 10.7843 5.49649 10.8675C5.72113 11.1296 6.11569 11.1599 6.37777 10.9353C6.63985 10.7107 6.6702 10.3161 6.44556 10.054C6.35673 9.95038 6.26367 9.84406 6.1685 9.73533C5.72582 9.22959 5.2374 8.67161 4.9171 8.08924C4.72698 7.74357 4.62765 7.44123 4.61805 7.18538C4.60938 6.95416 4.67158 6.73364 4.86954 6.50791Z" fill="#BAD4C4"/>
<path d="M22.1912 9.79595C23.2927 8.35774 24.9055 7.40045 26.7608 7.40045C30.3289 7.40045 32.9245 10.8496 32.9245 14.7003C32.9245 17.9316 31.1017 20.8724 28.408 21.7414C28.2427 21.7947 28.1418 21.9661 28.1868 22.1338L29.8642 28.394C29.9294 28.6375 29.6944 28.8541 29.457 28.7691L25.7662 27.448C25.6436 27.4041 25.5067 27.4408 25.4225 27.54L22.8867 30.5296C22.7236 30.7219 22.4118 30.6519 22.3465 30.4084L20.2815 22.7017C20.1988 22.3929 19.7606 22.3929 19.6778 22.7017L17.6128 30.4084C17.5476 30.6519 17.2357 30.7219 17.0727 30.5296L14.5369 27.54C14.4527 27.4408 14.3158 27.4041 14.1932 27.448L10.5023 28.7691C10.265 28.8541 10.0299 28.6375 10.0952 28.394L11.7669 22.1551C11.8123 21.9858 11.7092 21.8131 11.5418 21.7614C10.3632 21.3969 9.34817 20.6365 8.5755 19.6276C8.12496 19.0625 4.74853 19.0625 4.74853 22.3131V31.855C4.74853 33.4083 6.00773 34.6675 7.56104 34.6675H32.5543C34.1076 34.6675 35.3668 33.4083 35.3668 31.855V21.0626C35.3668 20.5865 34.8709 20.1031 34.5035 19.8103C34.2709 19.6249 34.1154 19.3504 34.1157 19.0531C34.1163 18.4093 34.7897 18.0155 35.3097 18.395C36.1922 19.0391 37.2418 20.0235 37.2418 21.0626V31.855C37.2418 34.4438 35.1431 36.5425 32.5543 36.5425H7.56104C4.9722 36.5425 2.87354 34.4438 2.87354 31.855V22.3131C2.87354 19.8996 4.6975 17.9122 7.04217 17.654C7.26193 17.6298 7.67113 17.625 8.08618 17.6281C8.87109 17.634 9.52699 18.1573 10.0239 18.7649C10.8006 19.7144 11.8887 20.0985 13.0512 20.1242L13.8472 20.1418C14.0497 20.1463 14.1945 20.3394 14.1421 20.5351L12.8325 25.4227C12.7672 25.6662 13.0023 25.8827 13.2397 25.7978L14.7835 25.2452C14.906 25.2013 15.0429 25.238 15.1271 25.3372L16.1878 26.5877C16.3508 26.78 16.6627 26.71 16.7279 26.4665L18.7202 19.0311C18.8725 18.4628 19.3865 18.0669 19.9748 18.0647C20.5668 18.0625 21.0859 18.4593 21.2392 19.0311L23.2314 26.4665C23.2967 26.71 23.6086 26.78 23.7716 26.5877L24.8323 25.3372C24.9165 25.238 25.0534 25.2013 25.1759 25.2452L26.7197 25.7978C26.9571 25.8827 27.1921 25.6662 27.1269 25.4227L25.8201 20.5457C25.7682 20.352 25.9096 20.1602 26.11 20.1525L26.8924 20.1225C29.0445 20.04 31.0495 17.811 31.0495 14.7003C31.0495 11.5233 28.9653 9.27545 26.7608 9.27545C25.379 9.27545 24.0771 10.1225 23.2634 11.5684L22.9884 12.057C22.9102 12.196 22.7399 12.2538 22.5932 12.1911L22.0777 11.9706C21.4538 11.7038 20.7269 11.5477 19.944 11.5477C19.1612 11.5477 18.4342 11.7038 17.8103 11.9706L17.2948 12.1911C17.1482 12.2538 16.9778 12.196 16.8996 12.057L16.6247 11.5684C15.8109 10.1225 14.509 9.27545 13.1273 9.27545C10.9227 9.27545 8.83858 11.5233 8.83858 14.7003C8.83858 15.1978 8.43716 15.625 7.93966 15.625H7.85094C7.36326 15.625 6.96617 15.2474 6.96374 14.7597C6.96363 14.7379 6.96358 14.7179 6.96358 14.7003C6.96358 10.8496 9.5591 7.40045 13.1273 7.40045C14.9825 7.40045 16.5954 8.35774 17.6969 9.79596C17.7778 9.90159 17.9146 9.94856 18.0433 9.91478C18.6443 9.75705 19.2835 9.67271 19.944 9.67271C20.6046 9.67271 21.2438 9.75704 21.8448 9.91477C21.9735 9.94855 22.1103 9.90158 22.1912 9.79595Z" fill="#045762"/>
</g>
<defs>
<clipPath id="clip0_177_1452">
<rect width="40" height="40" fill="white"/>
</clipPath>
</defs>
</svg>
