<svg width="256" height="256" viewBox="0 0 256 256" fill="none" xmlns="http://www.w3.org/2000/svg">
<path fill-rule="evenodd" clip-rule="evenodd" d="M195.482 51.9919L69.2577 30.8805C54.0295 28.3335 39.6918 38.8496 37.4865 54.1834L24.2905 145.935C21.6066 164.596 37.9275 180.412 56.4176 177.068L88.3374 171.297L83.1042 167L67.7209 141L71.7691 107.688L100.916 82.5L150.305 74.375L195.645 84.9375L213.304 100.943L217.373 87.0112C222.016 71.1122 211.767 54.7157 195.482 51.9919ZM81.825 49.7747C68.3362 47.4091 55.5662 56.6945 53.6047 70.2942L48.759 103.892C48.5027 105.668 46.86 106.9 45.0899 106.643C43.3197 106.386 42.0924 104.737 42.3486 102.961L47.1943 69.3631C49.6788 52.1368 65.8543 40.3753 82.94 43.3717L138.411 53.0998C140.173 53.4088 141.352 55.0927 141.044 56.8608C140.736 58.6289 139.058 59.8118 137.296 59.5028L81.825 49.7747Z" fill="#BAD4C4"/>
<path d="M93.9323 95.419C80.4203 105.32 72.5789 118.588 72.5789 132.781C72.5789 150.688 85.1402 167.233 105.688 177.171C107.993 178.286 109.041 181.003 108.084 183.385L97.5385 209.643C96.9486 211.112 98.5872 212.473 99.9152 211.618L139.188 186.318L139.188 160.24C139.188 151.044 146.802 144.941 152.817 141.93C159.175 138.748 163.477 132.251 163.477 124.803C163.477 114.265 154.837 105.615 144.046 105.615C133.255 105.615 124.614 114.265 124.614 124.803C124.614 127.495 122.439 129.678 119.756 129.678C117.073 129.678 114.899 127.495 114.899 124.803C114.899 108.762 128.007 95.8654 144.046 95.8654C160.084 95.8654 173.193 108.762 173.193 124.803C173.193 136.137 166.635 145.909 157.153 150.655C151.964 153.253 148.904 156.872 148.904 160.24L148.686 186.318C148.686 192.187 143.828 194.625 142.228 195.946L90.2544 225.497C87.6968 226.951 84.6869 224.509 85.5684 221.695L96.2201 187.685C96.9154 185.465 95.9409 183.074 93.9596 181.864C75.3651 170.516 62.8631 153.027 62.8631 132.781C62.8631 114.717 72.8655 98.7829 88.203 87.5446C103.544 76.3036 124.501 69.4999 147.432 69.4999C170.363 69.4999 191.319 76.3036 206.66 87.5446C221.998 98.7829 232 114.717 232 132.781C232 150.845 221.998 166.78 206.66 178.018C199.625 183.173 191.41 187.394 182.365 190.455C179.293 191.494 176.214 189.125 176.214 185.871C176.214 183.685 177.649 181.772 179.709 181.063C187.68 178.318 194.852 174.598 200.931 170.144C214.443 160.243 222.284 146.975 222.284 132.781C222.284 118.588 214.443 105.32 200.931 95.419C187.423 85.5211 168.524 79.2499 147.432 79.2499C126.34 79.2499 107.441 85.5211 93.9323 95.419Z" fill="#045762"/>
</svg>
