<svg width="40" height="40" viewBox="0 0 40 40" fill="none" xmlns="http://www.w3.org/2000/svg">
<g clip-path="url(#clip0_177_1431)">
<path fill-rule="evenodd" clip-rule="evenodd" d="M32.9772 5.38307L8.70341 1.32317C5.7749 0.833362 3.01766 2.85569 2.59355 5.80449L0.0558616 23.449C-0.46026 27.0376 2.67837 30.0792 6.23415 29.4362L12.3726 28.3263L11.3662 27.5L8.40787 22.5L9.18638 16.0938L14.7916 11.25L24.2894 9.6875L33.0087 11.7188L36.4045 14.7968L37.1871 12.1175C38.0801 9.06004 36.109 5.90686 32.9772 5.38307ZM11.1202 4.95667C8.5262 4.50175 6.07042 6.2874 5.69321 8.90273L4.76134 15.3638C4.71207 15.7054 4.39616 15.9423 4.05574 15.8928C3.71532 15.8434 3.4793 15.5264 3.52857 15.1848L4.46045 8.72368C4.93824 5.41092 8.0489 3.1491 11.3346 3.72533L22.0021 5.59612C22.3409 5.65554 22.5676 5.97936 22.5084 6.31938C22.4492 6.65941 22.1265 6.88688 21.7877 6.82746L11.1202 4.95667Z" fill="#BAD4C4"/>
<path d="M13.4485 13.7344C10.85 15.6384 9.34205 18.1901 9.34205 20.9195C9.34205 24.3631 11.7577 27.5449 15.7091 29.4559C16.1524 29.6703 16.354 30.193 16.17 30.6509L14.142 35.7006C14.0285 35.983 14.3437 36.2449 14.599 36.0804L22.1515 31.215V26.2001C22.1515 24.4316 23.6157 23.2579 24.7724 22.6789C25.9951 22.0669 26.8225 20.8175 26.8225 19.3852C26.8225 17.3587 25.1609 15.6953 23.0857 15.6953C21.0105 15.6953 19.3489 17.3587 19.3489 19.3852C19.3489 19.903 18.9306 20.3227 18.4146 20.3227C17.8987 20.3227 17.4804 19.903 17.4804 19.3852C17.4804 16.3004 20.0014 13.8203 23.0857 13.8203C26.17 13.8203 28.6909 16.3004 28.6909 19.3852C28.6909 21.5648 27.4297 23.4441 25.6063 24.3568C24.6084 24.8563 24.0199 25.5523 24.0199 26.2001L23.978 31.215C23.978 32.3438 23.0438 32.8125 22.736 33.0665L12.7412 38.7494C12.2493 39.0291 11.6705 38.5594 11.84 38.0182L13.8884 31.4778C14.0222 31.0509 13.8347 30.5911 13.4537 30.3585C9.87787 28.1761 7.47363 24.813 7.47363 20.9195C7.47363 17.4457 9.39718 14.3813 12.3467 12.2201C15.2969 10.0584 19.327 8.75 23.7368 8.75C28.1466 8.75 32.1767 10.0584 35.1269 12.2201C38.0764 14.3813 40 17.4457 40 20.9195C40 24.3934 38.0764 27.4577 35.1269 29.6189C33.7741 30.6102 32.1942 31.422 30.4547 32.0105C29.864 32.2104 29.2718 31.7548 29.2718 31.1291C29.2718 30.7087 29.5478 30.3408 29.944 30.2044C31.477 29.6766 32.856 28.9612 34.0251 28.1046C36.6236 26.2006 38.1316 23.649 38.1316 20.9195C38.1316 18.1901 36.6236 15.6384 34.0251 13.7344C31.4274 11.831 27.7929 10.625 23.7368 10.625C19.6807 10.625 16.0462 11.831 13.4485 13.7344Z" fill="#045762"/>
</g>
<defs>
<clipPath id="clip0_177_1431">
<rect width="40" height="40" fill="white"/>
</clipPath>
</defs>
</svg>
