<svg width="40" height="40" viewBox="0 0 40 40" fill="none" xmlns="http://www.w3.org/2000/svg">
<g clip-path="url(#clip0_177_1459)">
<path fill-rule="evenodd" clip-rule="evenodd" d="M9.0625 34.0576V9.375H33.7494C30.1577 3.8529 23.6335 0.539822 16.6515 1.37939C6.8679 2.55584 -0.109569 11.4407 1.06689 21.2243C1.72381 26.6874 4.78422 31.2755 9.0625 34.0576ZM4.97235 26.4327C5.11768 26.6858 5.48725 26.4471 5.38071 26.1753C3.92904 22.4731 3.87212 18.2198 5.55367 14.2699C8.95578 6.27857 18.1857 2.55559 26.1693 5.9544C26.2461 5.98711 26.3246 6.02252 26.4046 6.06037C26.7142 6.20703 27.046 5.78377 26.7636 5.58978C26.1565 5.17284 25.5542 4.81601 25.0026 4.58118C17.019 1.18237 7.78906 4.90535 4.38695 12.8967C2.51224 17.3003 2.79833 22.081 4.76893 26.0548C4.82801 26.174 4.89649 26.3007 4.97235 26.4327Z" fill="#BAD4C4"/>
<path d="M8.125 10.3125C8.125 9.10438 9.10438 8.125 10.3125 8.125H36.5625C37.7706 8.125 38.75 9.10438 38.75 10.3125V17.5C38.75 18.7081 37.7706 19.6875 36.5625 19.6875H31.3357C30.324 19.6875 29.5392 19.0082 29.2031 18.2075C28.2571 15.9545 26.0306 14.375 23.4375 14.375C20.8444 14.375 18.6179 15.9545 17.6719 18.2075C17.3453 18.9854 16.875 20.625 16.875 21.875V22.5C16.875 23.1904 16.3154 23.75 15.625 23.75H10.3125C10.1399 23.75 10 23.8899 10 24.0625V36.25C10 36.4226 10.1399 36.5625 10.3125 36.5625H36.5625C36.7351 36.5625 36.875 36.4226 36.875 36.25V24.0625C36.875 23.8899 36.7351 23.75 36.5625 23.75H31.1992C31.0847 23.75 30.9087 23.8327 30.803 24.0591C29.51 26.8281 26.6991 28.75 23.4375 28.75C21.0972 28.75 18.9889 27.7605 17.507 26.1786C17.1919 25.8423 17.2298 25.3211 17.5556 24.9953C17.9585 24.5924 18.6258 24.6545 19.0298 25.0563C20.1604 26.1809 21.7183 26.875 23.4375 26.875C25.9439 26.875 28.1077 25.3996 29.1041 23.2658C29.4586 22.5065 30.2259 21.875 31.1992 21.875H36.5625C37.7706 21.875 38.75 22.8544 38.75 24.0625V36.25C38.75 37.4581 37.7706 38.4375 36.5625 38.4375H10.3125C9.10438 38.4375 8.125 37.4581 8.125 36.25V24.0625C8.125 22.8544 9.10438 21.875 10.3125 21.875H13.1563C14.2608 21.875 15.134 20.9739 15.2922 19.8807C15.4621 18.707 15.7534 17.9335 15.9431 17.4817C17.1712 14.5569 20.063 12.5 23.4375 12.5C26.812 12.5 29.7038 14.5569 30.9319 17.4817C31.0332 17.7231 31.2173 17.8125 31.3357 17.8125H36.5625C36.7351 17.8125 36.875 17.6726 36.875 17.5V10.3125C36.875 10.1399 36.7351 10 36.5625 10H10.3125C10.1399 10 10 10.1399 10 10.3125V17.5C10 17.6726 10.1399 17.8125 10.3125 17.8125H10.9378C11.4554 17.8125 11.875 18.2321 11.875 18.7497C11.875 19.2669 11.456 19.6863 10.9388 19.6868L10.3125 19.6875C9.10438 19.6875 8.125 18.7081 8.125 17.5V10.3125Z" fill="#045762"/>
</g>
<defs>
<clipPath id="clip0_177_1459">
<rect width="40" height="40" fill="white"/>
</clipPath>
</defs>
</svg>
