<svg width="256" height="256" viewBox="0 0 256 256" fill="none" xmlns="http://www.w3.org/2000/svg">
<path fill-rule="evenodd" clip-rule="evenodd" d="M71.125 201.1L71.125 72.75L199.497 72.75C180.82 44.0351 146.894 26.8071 110.588 31.1728C59.7131 37.2904 23.4302 83.4918 29.5478 134.367C32.9638 162.774 48.8779 186.633 71.125 201.1ZM49.8562 161.45C50.6119 162.766 52.5337 161.525 51.9797 160.112C44.431 140.86 44.135 118.743 52.8791 98.2035C70.57 56.6486 118.566 37.2891 160.08 54.9629C160.48 55.133 160.888 55.3171 161.304 55.5139C162.914 56.2766 164.639 54.0756 163.171 53.0669C160.014 50.8988 156.882 49.0433 154.013 47.8221C112.499 30.1483 64.5031 49.5078 46.8121 91.0628C37.0637 113.961 38.5513 138.821 48.7984 159.485C49.1057 160.105 49.4618 160.763 49.8562 161.45Z" fill="#BAD4C4"/>
<path d="M66.25 77.625C66.25 71.3428 71.3428 66.25 77.625 66.25L214.125 66.25C220.407 66.25 225.5 71.3428 225.5 77.625L225.5 115C225.5 121.282 220.407 126.375 214.125 126.375L186.946 126.375C181.685 126.375 177.604 122.843 175.856 118.679C170.937 106.963 159.359 98.75 145.875 98.75C132.391 98.75 120.813 106.963 115.894 118.679C114.196 122.724 111.75 131.25 111.75 137.75V141C111.75 144.59 108.84 147.5 105.25 147.5H77.625C76.7275 147.5 76 148.228 76 149.125L76 212.5C76 213.397 76.7275 214.125 77.625 214.125L214.125 214.125C215.022 214.125 215.75 213.397 215.75 212.5L215.75 149.125C215.75 148.228 215.022 147.5 214.125 147.5H186.236C185.64 147.5 184.725 147.93 184.176 149.107C177.452 163.506 162.836 173.5 145.875 173.5C133.705 173.5 122.742 168.355 115.036 160.129C113.398 158.38 113.595 155.67 115.289 153.975C117.384 151.88 120.854 152.203 122.955 154.293C128.834 160.141 136.935 163.75 145.875 163.75C158.908 163.75 170.16 156.078 175.341 144.982C177.185 141.034 181.175 137.75 186.236 137.75H214.125C220.407 137.75 225.5 142.843 225.5 149.125L225.5 212.5C225.5 218.782 220.407 223.875 214.125 223.875L77.625 223.875C71.3428 223.875 66.25 218.782 66.25 212.5L66.25 149.125C66.25 142.843 71.3428 137.75 77.625 137.75H99.3644C101.269 137.75 102.804 136.204 102.885 134.301C103.318 124.189 105.584 118.049 106.904 114.905C113.29 99.696 128.328 89 145.875 89C163.422 89 178.46 99.696 184.846 114.905C185.373 116.16 186.33 116.625 186.946 116.625L214.125 116.625C215.022 116.625 215.75 115.897 215.75 115L215.75 77.625C215.75 76.7275 215.022 76 214.125 76L77.625 76C76.7275 76 76 76.7275 76 77.625L76 115C76 115.897 76.7275 116.625 77.625 116.625H80.8767C83.5681 116.625 85.75 118.807 85.75 121.498C85.75 124.188 83.5713 126.369 80.8818 126.372L77.625 126.375C71.3428 126.375 66.25 121.282 66.25 115L66.25 77.625Z" fill="#045762"/>
</svg>
