<svg width="40" height="40" viewBox="0 0 40 40" fill="none" xmlns="http://www.w3.org/2000/svg">
<path fill-rule="evenodd" clip-rule="evenodd" d="M2.93018 30.8098C-3.91552 20.4833 1.18974 -1.21407 18.7101 3.8912C23.0015 5.14167 26.7012 7.35973 29.7564 10.0407H9.88413C8.15824 10.0407 6.75913 11.4398 6.75913 13.1657V26.1765C6.75913 27.9024 8.15824 29.3015 9.88413 29.3015H32.4093C34.1351 29.3015 35.5343 27.9024 35.5343 26.1765V16.6618C40.3245 23.867 41.3984 31.5244 38.0869 33.2464C32.2855 36.2633 9.77587 41.1364 2.93018 30.8098ZM18.232 4.96648C15.4364 3.89529 12.3094 3.57429 8.96367 5.16751C6.94354 6.12948 5.60464 7.36145 4.75649 8.49213C4.43982 8.91429 4.91749 9.18052 5.30046 8.81745C6.69245 7.49777 8.80308 6.1611 11.6323 5.74765C14.1235 5.38361 16.1801 5.47722 17.9278 5.76768C18.4723 5.85818 18.7474 5.16398 18.232 4.96648Z" fill="#BAD4C4"/>
<path d="M6.40235 12.1292C6.1394 12.1292 5.9046 12.3057 5.86788 12.566C5.84353 12.7387 5.83093 12.9151 5.83093 13.0945V26.4797C5.83093 28.5507 7.50986 30.2297 9.58093 30.2297H32.4805C34.5515 30.2297 36.2305 28.5507 36.2305 26.4797V13.0945C36.2305 11.0234 34.5515 9.34448 32.4805 9.34448H9.58093C9.48007 9.34448 9.38013 9.34846 9.28128 9.35628C9.00281 9.3783 8.80711 9.62444 8.80711 9.90377V9.92992C8.80711 10.3181 9.1927 10.5945 9.58093 10.5945H32.4805C33.8612 10.5945 34.9805 11.7138 34.9805 13.0945V26.4797C34.9805 27.8604 33.8612 28.9797 32.4805 28.9797H9.58093C8.20022 28.9797 7.08093 27.8604 7.08093 26.4797V13.0945C7.08093 13.0545 7.08187 13.0148 7.08372 12.9753C7.10314 12.5615 6.81668 12.1292 6.40235 12.1292Z" fill="#045762"/>
<path fill-rule="evenodd" clip-rule="evenodd" d="M35.0509 10.86C35.178 11.0554 35.1344 11.3156 34.9506 11.4589L21.8065 21.701C21.3634 22.0463 20.7444 22.0536 20.2933 21.7188L9.91785 14.0183C9.72989 13.8788 9.68035 13.6184 9.80394 13.4196C9.94278 13.1963 10.2428 13.1393 10.4539 13.296L20.2822 20.5894C20.7333 20.9242 21.3523 20.9169 21.7954 20.5716L34.3988 10.7508C34.6062 10.5892 34.9074 10.6397 35.0509 10.86Z" fill="#045762"/>
</svg>
