<svg width="256" height="256" viewBox="0 0 256 256" fill="none" xmlns="http://www.w3.org/2000/svg">
<path fill-rule="evenodd" clip-rule="evenodd" d="M39.2369 184.211C3.63931 130.513 30.1866 17.6869 121.292 44.2342C143.608 50.7367 162.846 62.2706 178.733 76.2116L75.3975 76.2116C66.4228 76.2116 59.1475 83.487 59.1475 92.4616L59.1475 160.118C59.1475 169.092 66.4229 176.368 75.3975 176.368L192.528 176.368C201.503 176.368 208.778 169.092 208.778 160.118V110.641C233.688 148.108 239.272 187.927 222.052 196.881C191.884 212.569 74.8345 237.909 39.2369 184.211ZM118.806 49.8257C104.269 44.2555 88.0091 42.5863 70.6111 50.8711C60.1064 55.8733 53.1441 62.2796 48.7338 68.1591C47.0871 70.3543 49.571 71.7387 51.5624 69.8507C58.8007 62.9884 69.776 56.0377 84.4881 53.8878C97.4424 51.9948 108.137 52.4816 117.224 53.992C120.056 54.4626 121.487 50.8527 118.806 49.8257Z" fill="#BAD4C4"/>
<path d="M192.898 71.7292C204.143 71.7292 213.26 80.8459 213.26 92.0915L213.26 161.694C213.26 172.94 204.143 182.056 192.898 182.056L73.8207 182.056C62.575 182.056 53.4584 172.94 53.4584 161.694L53.4584 92.0915C53.4584 91.1184 53.5273 90.1609 53.6595 89.2234C53.9193 87.3819 55.5613 86.2097 57.2924 86.2097C58.694 86.2098 59.8411 86.9456 60.597 87.9441C61.3479 88.9359 61.7566 90.2349 61.6967 91.5124C61.6877 91.7043 61.683 91.8973 61.683 92.0915L61.683 161.694C61.683 168.398 67.1171 173.833 73.8207 173.833L192.898 173.833C199.601 173.833 205.036 168.398 205.036 161.694L205.036 92.0915C205.036 85.3879 199.601 79.9538 192.898 79.9538L73.8207 79.9538C71.5027 79.9538 68.9349 78.2898 68.9349 75.6355V75.4997C68.935 73.6695 70.23 71.949 72.1947 71.7937C72.7313 71.7513 73.2735 71.7292 73.8207 71.7292L192.898 71.7292Z" fill="#045762" stroke="#045762" stroke-width="1.72407"/>
<path d="M201.814 78.5437C203.689 77.083 206.413 77.5398 207.71 79.532C208.859 81.2985 208.465 83.6507 206.802 84.9461L138.454 138.205C135.538 140.477 131.466 140.525 128.498 138.322L74.5455 98.2791C72.8476 97.0189 72.3999 94.6675 73.5162 92.8719C74.7704 90.8546 77.4798 90.3392 79.3873 91.7547L130.495 129.68C132.218 130.959 134.583 130.931 136.276 129.612L201.814 78.5437Z" fill="#045762" stroke="#045762" stroke-width="3.44815"/>
</svg>
