<svg width="40" height="40" viewBox="0 0 40 40" fill="none" xmlns="http://www.w3.org/2000/svg">
<g clip-path="url(#clip0_177_1487)">
<path fill-rule="evenodd" clip-rule="evenodd" d="M4.42716 31.4037L30.7189 36.1614C33.7593 36.7116 36.6469 34.6383 37.0485 31.6166L39.9528 9.76843C40.4331 6.15534 37.1726 3.14505 33.5471 3.85431L7.59401 8.93154C5.57301 9.32691 3.95631 10.8216 3.4264 12.7845L0.183387 24.7978C-0.626669 27.7985 1.32924 30.8431 4.42716 31.4037ZM31.559 7.55925C31.6568 8.06911 31.3169 8.56062 30.7997 8.65708L10.5176 12.44C8.88567 12.7444 7.56176 13.9199 7.08451 15.4883L6.20569 18.3763L11.0769 12.9688L15.3846 17.6562L20.3077 12.6562L24.6154 17.5L29.0769 12.6562L35.5385 20.3125L29.0769 28.125L24.6154 22.8125L20 28.125L15.2308 22.8125L11.0769 28.125L5.31118 21.3159L3.88218 26.0119C3.73094 26.509 3.19965 26.791 2.69551 26.6419C2.19138 26.4928 1.9053 25.969 2.05654 25.472L5.25887 14.9483C5.94065 12.7078 7.83196 11.0285 10.1633 10.5937L30.4454 6.81073C30.9626 6.71427 31.4611 7.0494 31.559 7.55925Z" fill="#BAD4C4"/>
<path d="M16.1979 15.5192C15.798 16.0011 15.0587 16.0011 14.6588 15.5192L11.6262 11.8648C11.2264 11.383 10.487 11.383 10.0872 11.8648L3.60684 19.6739C3.29956 20.0442 3.29956 20.5808 3.60684 20.9511L10.2374 28.9411C10.5589 29.3286 11.1536 29.3279 11.4742 28.9396L16.113 23.321C16.3973 22.9767 16.3941 22.4782 16.1054 22.1375C15.7341 21.6993 15.057 21.7034 14.691 22.146L11.209 26.3564C11.0261 26.5777 10.687 26.578 10.5036 26.357L6.01755 20.9511C5.71027 20.5808 5.71027 20.0442 6.01755 19.6739L10.0872 14.7698C10.4871 14.288 11.2264 14.288 11.6262 14.7698L14.6295 18.3888C15.0274 18.8683 15.7622 18.8711 16.1637 18.3946L19.2279 14.7586C19.63 14.2816 20.3658 14.2851 20.7633 14.7659L23.7571 18.3873C24.1541 18.8676 24.8889 18.8717 25.2913 18.396L28.3724 14.7537C28.7744 14.2786 29.508 14.2821 29.9054 14.761L33.9824 19.6739C34.2897 20.0442 34.2897 20.5808 33.9824 20.9511L29.9068 25.8624C29.5089 26.3419 28.7742 26.3447 28.3727 25.8683L25.2925 22.2144C24.89 21.7369 24.1531 21.7411 23.7561 22.2231L20.0537 26.7172C20.0258 26.7511 19.974 26.7512 19.946 26.7174L19.0416 25.6276C18.6833 25.1959 18.0268 25.1786 17.6463 25.5908C17.3309 25.9324 17.3172 26.4546 17.614 26.8123L19.8765 29.5387C19.9407 29.616 20.0593 29.616 20.1235 29.5387L23.8021 25.1058C24.202 24.6239 24.9413 24.6239 25.3412 25.1058L28.3737 28.7602C28.7736 29.242 29.5129 29.242 29.9128 28.7602L36.3931 20.9511C36.7004 20.5808 36.7004 20.0442 36.3931 19.6739L29.9128 11.8648C29.5129 11.383 28.7736 11.383 28.3737 11.8648L25.3412 15.5192C24.9413 16.0011 24.202 16.0011 23.8021 15.5192L20.7695 11.8648C20.3696 11.383 19.6303 11.383 19.2304 11.8648L16.1979 15.5192Z" fill="#045762"/>
</g>
<defs>
<clipPath id="clip0_177_1487">
<rect width="40" height="40" fill="white"/>
</clipPath>
</defs>
</svg>
