<svg width="256" height="256" viewBox="0 0 256 256" fill="none" xmlns="http://www.w3.org/2000/svg">
<path fill-rule="evenodd" clip-rule="evenodd" d="M47.0212 187.299L183.739 212.039C199.548 214.9 214.564 204.119 216.652 188.406L231.755 74.7958C234.252 56.0077 217.297 40.3542 198.445 44.0424L63.4889 70.444C52.9797 72.4999 44.5728 80.2721 41.8173 90.4796L24.9536 152.948C20.7413 168.552 30.9121 184.384 47.0212 187.299ZM188.107 63.308C188.615 65.9593 186.848 68.5152 184.159 69.0168L78.6915 88.6882C70.2055 90.271 63.3211 96.3836 60.8394 104.539L56.2696 119.557L81.6 91.4374L104 115.812L129.6 89.8124L152 115L175.2 89.8124L208.8 129.625L175.2 170.25L152 142.625L128 170.25L103.2 142.625L81.6 170.25L51.6181 134.843L44.1873 159.262C43.4009 161.847 40.6382 163.313 38.0167 162.538C35.3952 161.762 33.9076 159.039 34.694 156.454L51.3461 101.731C54.8914 90.0806 64.7262 81.3483 76.8491 79.0872L182.316 59.4157C185.005 58.9142 187.598 60.6568 188.107 63.308Z" fill="#BAD4C4"/>
<path d="M105.554 107.923C104.865 108.754 103.59 108.754 102.901 107.923L81.7817 82.4738C81.0923 81.643 79.8177 81.643 79.1282 82.4738L40.9137 128.524C40.3839 129.162 40.3839 130.088 40.9137 130.726L79.1248 176.772C79.8154 177.604 81.0926 177.603 81.7811 176.769L107.788 145.269C109.266 143.479 109.249 140.886 107.748 139.115C105.818 136.837 102.296 136.858 100.393 139.159L81.7813 161.665C81.0925 162.498 79.8161 162.499 79.1259 161.667L53.4493 130.726C52.9196 130.088 52.9196 129.162 53.4493 128.524L79.1282 97.5798C79.8177 96.7491 81.0923 96.7491 81.7817 97.5798L102.728 122.82C103.414 123.647 104.681 123.652 105.373 122.83L126.669 97.5605C127.362 96.7381 128.631 96.7441 129.316 97.5731L150.186 122.818C150.87 123.646 152.137 123.653 152.831 122.833L174.216 97.5521C174.909 96.7329 176.174 96.7389 176.859 97.5646L202.551 128.524C203.08 129.162 203.08 130.088 202.551 130.726L176.861 161.683C176.175 162.509 174.909 162.514 174.216 161.693L152.833 136.326C152.139 135.503 150.868 135.51 150.184 136.341L128.28 162.93C128.134 163.106 127.865 163.106 127.719 162.931L123.016 157.264C121.153 155.019 117.739 154.928 115.761 157.072C114.121 158.848 114.049 161.564 115.593 163.424L127.358 177.601C127.692 178.003 128.308 178.003 128.642 177.601L150.446 151.327C151.135 150.496 152.41 150.496 153.099 151.327L174.218 176.776C174.908 177.607 176.182 177.607 176.872 176.776L215.086 130.726C215.616 130.088 215.616 129.162 215.086 128.524L176.872 82.4738C176.182 81.643 174.908 81.643 174.218 82.4738L153.099 107.923C152.41 108.754 151.135 108.754 150.446 107.923L129.327 82.4738C128.637 81.643 127.363 81.643 126.673 82.4738L105.554 107.923Z" fill="#045762"/>
</svg>
