<svg width="40" height="40" viewBox="0 0 40 40" fill="none" xmlns="http://www.w3.org/2000/svg">
<g clip-path="url(#clip0_177_1417)">
<path d="M13.1932 32.2977L16.2729 33.1892C15.2047 32.9967 14.1741 32.6956 13.1932 32.2977Z" fill="#BAD4C4"/>
<path fill-rule="evenodd" clip-rule="evenodd" d="M12.8029 32.1332C7.28958 29.7199 3.4375 24.216 3.4375 17.8125C3.4375 9.18305 10.4331 2.1875 19.0625 2.1875C25.9919 2.1875 31.8677 6.69821 33.914 12.9435C33.5427 12.4727 33.1964 12.0177 33.125 11.875C33 11.625 30.2604 11.25 28.9062 11.0938L24.375 8.125L20.7812 9.21875L18.4375 11.0938L13.5938 11.875L12.1875 17.8125L9.0625 21.875L11.875 26.875L12.8029 32.1332ZM6.2886 22.7493C6.3885 22.9845 6.73479 22.8156 6.67056 22.5682C5.79547 19.1975 6.19067 15.4934 8.06567 12.235C11.8592 5.64255 20.2735 3.37056 26.8595 7.16038C26.9229 7.19686 26.9874 7.23585 27.053 7.27712C27.3069 7.437 27.6396 7.10368 27.4143 6.90549C26.9301 6.4795 26.4437 6.10628 25.9887 5.84444C19.4026 2.05462 10.9883 4.32661 7.19482 10.9191C5.10444 14.5518 4.85336 18.7384 6.15124 22.3995C6.19016 22.5093 6.23645 22.6266 6.2886 22.7493Z" fill="#BAD4C4"/>
<path d="M34.4813 15.2674L34.2018 17.1118C34.3723 17.2734 34.534 17.4441 34.6864 17.623C34.6769 16.8219 34.607 16.0352 34.4813 15.2674Z" fill="#BAD4C4"/>
<path d="M36.2375 17.8462C36.5897 18.37 36.4737 19.1201 35.9066 19.3972C35.5516 19.5706 35.1195 19.5023 34.8744 19.1924C34.0666 18.1709 33.6504 16.9475 33.6504 15.6104V14.3213C33.6504 13.1132 32.671 12.1338 31.4629 12.1338H30.1738C28.5991 12.1338 27.0889 11.5083 25.9754 10.3948L25.0639 9.48329C24.2096 8.62902 22.8246 8.62902 21.9703 9.48329L21.0588 10.3948C19.9453 11.5083 18.4351 12.1338 16.8603 12.1338H15.5713C14.3632 12.1338 13.3838 13.1132 13.3838 14.3213V15.6104C13.3838 17.1851 12.7582 18.6953 11.6447 19.8088L10.7332 20.7203C9.87896 21.5746 9.87896 22.9597 10.7332 23.8139L11.6447 24.7254C12.7582 25.8389 13.3838 27.3492 13.3838 28.9239V30.2129C13.3838 31.4211 14.3632 32.4004 15.5713 32.4004H16.8603C18.4351 32.4004 19.9453 33.026 21.0588 34.1395L21.9703 35.051C22.8246 35.9053 24.2096 35.9053 25.0639 35.051L25.9754 34.1395C27.0889 33.026 28.5991 32.4004 30.1738 32.4004H31.4629C32.671 32.4004 33.6504 31.4211 33.6504 30.2129V28.9239C33.6504 27.5512 34.1364 26.2389 34.9853 25.1818C35.2396 24.8651 35.6849 24.7998 36.0468 24.9842C36.6143 25.2733 36.7236 26.0262 36.3492 26.5415C35.8523 27.2255 35.5254 27.9893 35.5254 28.9239V30.2129C35.5254 32.4566 33.7065 34.2754 31.4629 34.2754H30.1738C29.0964 34.2754 28.0631 34.7035 27.3012 35.4653L26.3897 36.3768C24.8032 37.9633 22.231 37.9633 20.6445 36.3768L19.733 35.4653C18.9711 34.7035 17.9378 34.2754 16.8603 34.2754H15.5713C13.3276 34.2754 11.5088 32.4566 11.5088 30.2129V28.9239C11.5088 27.8464 11.0808 26.8131 10.3189 26.0513L9.40741 25.1398C7.8209 23.5533 7.8209 20.981 9.40741 19.3945L10.3189 18.483C11.0808 17.7212 11.5088 16.6878 11.5088 15.6104V14.3213C11.5088 12.0777 13.3276 10.2588 15.5713 10.2588H16.8603C17.9378 10.2588 18.9711 9.83084 19.733 9.06897L20.6445 8.15747C22.231 6.57096 24.8032 6.57096 26.3897 8.15747L27.3012 9.06897C28.0631 9.83084 29.0964 10.2588 30.1738 10.2588H31.4629C33.7065 10.2588 35.5254 12.0777 35.5254 14.3213V15.6104C35.5254 16.4659 35.7997 17.1952 36.2375 17.8462Z" fill="#045762"/>
<path d="M16.5127 30.4887C17.3056 28.8572 17.6581 26.871 17.9048 19.866C17.9753 17.7025 17.9929 17.4187 18.1162 17.9153C18.9092 21.2138 19.5612 24.8138 20.0018 28.8926C20.0546 29.4956 21.623 29.8148 21.623 29.1409C21.623 28.804 21.7816 24.8315 21.9049 21.799C22.0545 17.9835 22.1522 16.0049 22.206 14.9157C22.241 14.2078 22.2574 13.8757 22.2574 13.6591C22.2574 13.5882 21.6582 13.198 21.1648 13.6591C20.9886 13.8365 20.9357 13.9074 20.9357 14.333C20.9181 15.734 20.8476 17.8798 20.689 22.2424C20.5266 26.8528 20.5139 26.7306 20.4715 26.3221C20.4679 26.2875 20.4641 26.2508 20.46 26.2148C20.2661 24.4946 19.4379 19.2985 18.3101 14.1557C18.2748 14.0493 17.7286 13.8897 16.9356 14.5104C16.9226 14.5201 16.9102 14.5294 16.8983 14.5382C16.7157 14.6741 16.6536 14.7203 16.6536 15.2197C16.6456 15.6956 16.6595 16.2118 16.677 16.8634C16.6979 17.6446 16.7241 18.6204 16.7241 19.9547C16.7241 26.0375 16.6889 28.4138 15.9664 30.6128C15.8254 31.0562 16.2307 31.0739 16.5127 30.4887Z" fill="#045762"/>
<path d="M25.9113 23.0936C26.0523 22.136 25.5236 21.4089 24.8011 21.3025C23.9905 21.1783 22.6336 22.3133 22.4046 24.3173C22.1578 26.4808 23.4442 27.3675 24.2725 27.403C25.0128 27.4415 25.8455 26.559 26.4024 25.308C26.5332 26.4133 26.8263 27.2582 27.3187 27.332C27.8298 27.4207 28.2527 26.2503 28.5699 24.7606C28.6051 26.1439 28.8166 27.4207 29.31 27.332C29.8739 27.2434 30.5611 25.5764 30.9312 23.7498C30.9841 23.5192 30.6845 23.7498 30.6669 23.7852C30.1558 25.9133 29.7858 26.8 29.4333 26.7468C29.0457 26.6759 29.451 23.8739 29.9796 21.1783C30.0149 21.0365 28.8518 21.0719 28.799 21.533C28.769 21.7894 28.7549 21.8759 28.7419 21.956C28.7243 22.0643 28.7086 22.161 28.658 22.6503C28.658 22.668 28.6536 22.6857 28.6492 22.7035C28.6448 22.7212 28.6404 22.7389 28.6404 22.7567C28.6122 22.9266 28.5847 23.0942 28.5576 23.2588C28.2292 25.258 27.9738 26.8124 27.583 26.7468C27.1425 26.6581 27.3187 24.2463 27.7769 21.3379C27.7945 21.1961 26.4552 21.267 26.42 21.7281C26.4055 21.9758 26.397 22.0649 26.3895 22.1429C26.3788 22.2547 26.3703 22.3438 26.3495 22.8453C26.3117 23.4764 26.3103 24.1309 26.3505 24.7386C25.8002 26.2452 25.0148 26.8327 24.4663 26.8178C23.8672 26.7823 23.4795 25.5232 23.6909 23.8739C23.92 22.136 24.2549 21.5153 24.6425 21.5685C24.9597 21.6217 25.0478 22.402 24.8364 23.3064C24.6602 24.0867 24.2549 24.7429 23.8848 25.0798C23.6909 25.2572 23.7262 25.4345 23.9729 25.3104C24.6602 24.9379 25.7703 23.998 25.9113 23.0936Z" fill="#045762"/>
</g>
<defs>
<clipPath id="clip0_177_1417">
<rect width="40" height="40" fill="white"/>
</clipPath>
</defs>
</svg>
