<svg width="256" height="256" viewBox="0 0 256 256" fill="none" xmlns="http://www.w3.org/2000/svg">
<path d="M92.6046 191.948L108.619 196.584C103.064 195.583 97.7056 194.017 92.6046 191.948Z" fill="#BAD4C4"/>
<path fill-rule="evenodd" clip-rule="evenodd" d="M90.5751 191.092C61.9058 178.543 41.875 149.923 41.875 116.625C41.875 71.7518 78.2519 35.375 123.125 35.375C159.158 35.375 189.712 58.8307 200.353 91.3064C198.422 88.8581 196.621 86.4921 196.25 85.75C195.6 84.45 181.354 82.5 174.312 81.6875L150.75 66.25L132.062 71.9375L119.875 81.6875L94.6875 85.75L87.375 116.625L71.125 137.75L85.75 163.75L90.5751 191.092ZM56.7007 142.296C57.2202 143.52 59.0209 142.641 58.6869 141.355C54.1364 123.827 56.1915 104.566 65.9415 87.622C85.6676 53.3412 129.422 41.5269 163.669 61.2339C163.999 61.4236 164.335 61.6264 164.675 61.841C165.996 62.6724 167.726 60.9391 166.555 59.9085C164.036 57.6934 161.507 55.7526 159.141 54.3911C124.894 34.684 81.1392 46.4983 61.4131 80.7791C50.5431 99.6693 49.2375 121.44 55.9865 140.477C56.1888 141.048 56.4296 141.658 56.7007 142.296Z" fill="#BAD4C4"/>
<path d="M203.303 103.391L201.849 112.982C202.736 113.822 203.577 114.709 204.369 115.64C204.32 111.474 203.957 107.383 203.303 103.391Z" fill="#BAD4C4"/>
<path d="M212.435 116.8C214.267 119.524 213.664 123.425 210.715 124.865C208.869 125.767 206.622 125.412 205.348 123.8C201.147 118.489 198.982 112.127 198.982 105.174L198.982 98.4709C198.982 92.1887 193.89 87.0959 187.607 87.0959L180.904 87.0959C172.716 87.0959 164.863 83.843 159.072 78.0528L154.333 73.313C149.89 68.8708 142.688 68.8708 138.246 73.313L133.506 78.0528C127.716 83.843 119.863 87.0959 111.674 87.0959H104.971C98.6889 87.0959 93.5961 92.1887 93.5961 98.4709V105.174C93.5961 113.363 90.3432 121.216 84.553 127.006L79.8132 131.746C75.371 136.188 75.371 143.39 79.8132 147.832L84.553 152.572C90.3432 158.362 93.5961 166.216 93.5961 174.404L93.5961 181.107C93.5961 187.389 98.6889 192.482 104.971 192.482L111.674 192.482C119.863 192.482 127.716 195.735 133.506 201.525L138.246 206.265C142.688 210.707 149.89 210.707 154.333 206.265L159.072 201.525C164.863 195.735 172.716 192.482 180.904 192.482H187.607C193.89 192.482 198.982 187.389 198.982 181.107V174.404C198.982 167.266 201.51 160.442 205.924 154.945C207.246 153.299 209.562 152.959 211.444 153.918C214.395 155.421 214.963 159.336 213.016 162.016C210.432 165.573 208.732 169.544 208.732 174.404V181.107C208.732 192.774 199.274 202.232 187.607 202.232H180.904C175.302 202.232 169.928 204.458 165.967 208.42L161.227 213.159C152.977 221.409 139.601 221.409 131.352 213.159L126.612 208.42C122.65 204.458 117.277 202.232 111.674 202.232L104.971 202.232C93.3041 202.232 83.8461 192.774 83.8461 181.107L83.8461 174.404C83.8461 168.801 81.6204 163.428 77.6587 159.466L72.9189 154.727C64.6691 146.477 64.6691 133.101 72.9189 124.851L77.6587 120.112C81.6204 116.15 83.8461 110.777 83.8461 105.174V98.4709C83.8461 86.8039 93.3041 77.3459 104.971 77.3459H111.674C117.277 77.3459 122.65 75.1202 126.612 71.1585L131.352 66.4187C139.601 58.1689 152.977 58.1689 161.227 66.4187L165.967 71.1585C169.928 75.1202 175.302 77.3459 180.904 77.3459L187.607 77.3459C199.274 77.3459 208.732 86.8039 208.732 98.4709L208.732 105.174C208.732 109.623 210.159 113.415 212.435 116.8Z" fill="#045762"/>
<path d="M109.866 182.541C113.99 174.057 115.822 163.729 117.105 127.303C117.472 116.053 117.563 114.577 118.205 117.159C122.328 134.312 125.719 153.032 128.01 174.242C128.285 177.377 136.44 179.037 136.44 175.533C136.44 173.78 137.265 153.124 137.906 137.355C138.684 117.514 139.192 107.225 139.472 101.562C139.653 97.8806 139.739 96.1535 139.739 95.0273C139.739 94.6585 136.623 92.6297 134.058 95.0273C133.141 95.9495 132.866 96.3184 132.866 98.5316C132.775 105.817 132.408 116.975 131.583 139.66C130.739 163.634 130.673 162.999 130.452 160.875C130.433 160.695 130.414 160.504 130.392 160.317C129.384 151.372 125.077 124.352 119.213 97.6094C119.03 97.0561 116.189 96.2262 112.065 99.4538C111.998 99.5046 111.933 99.5527 111.872 99.5987C110.922 100.305 110.599 100.545 110.599 103.142C110.558 105.617 110.63 108.301 110.721 111.69C110.83 115.752 110.966 120.826 110.966 127.764C110.966 159.395 110.783 171.752 107.026 183.187C106.292 185.492 108.4 185.584 109.866 182.541Z" fill="#045762"/>
<path d="M158.739 144.087C159.472 139.107 156.723 135.326 152.966 134.773C148.751 134.127 141.695 140.029 140.504 150.45C139.221 161.7 145.91 166.311 150.217 166.495C154.067 166.696 158.397 162.107 161.293 155.601C161.973 161.349 163.497 165.743 166.058 166.126C168.715 166.588 170.914 160.501 172.564 152.755C172.747 159.948 173.847 166.588 176.412 166.126C179.345 165.665 182.918 156.997 184.843 147.499C185.118 146.3 183.56 147.499 183.468 147.683C180.811 158.749 178.886 163.36 177.054 163.083C175.038 162.714 177.145 148.144 179.894 134.127C180.078 133.39 174.03 133.574 173.755 135.972C173.599 137.305 173.526 137.754 173.458 138.171C173.367 138.734 173.285 139.237 173.022 141.781C173.022 141.873 172.999 141.966 172.976 142.058C172.953 142.15 172.93 142.242 172.93 142.335C172.784 143.218 172.641 144.09 172.5 144.945C170.792 155.342 169.464 163.424 167.432 163.083C165.141 162.622 166.058 150.081 168.44 134.957C168.532 134.219 161.568 134.588 161.384 136.986C161.309 138.274 161.265 138.737 161.226 139.143C161.17 139.725 161.126 140.188 161.018 142.796C160.821 146.077 160.814 149.481 161.023 152.641C158.162 160.475 154.077 163.53 151.225 163.452C148.11 163.268 146.094 156.72 147.193 148.144C148.385 139.107 150.126 135.879 152.142 136.156C153.791 136.433 154.249 140.49 153.15 145.193C152.233 149.251 150.126 152.663 148.201 154.415C147.193 155.337 147.377 156.259 148.659 155.614C152.233 153.677 158.006 148.79 158.739 144.087Z" fill="#045762"/>
</svg>
