<svg width="256" height="256" viewBox="0 0 256 256" fill="none" xmlns="http://www.w3.org/2000/svg">
<path d="M222.559 128C222.559 180.053 180.362 222.25 128.309 222.25C111.367 222.25 95.4689 217.78 81.7302 209.955L82.8088 210.063L129.121 189.75L190.871 152.375L215.246 122.313V98.75L201.434 89.8125L164.059 94.6875L82.8088 111.75L51.6443 124.535C53.0565 114.2 56.4513 103.957 61.9759 94.3565C84.8583 54.5909 135.613 40.8862 175.34 63.7464C175.723 63.9664 176.112 64.2016 176.507 64.4506C178.039 65.415 180.046 63.4044 178.687 62.2089C175.766 59.6394 172.832 57.3881 170.087 55.8087C130.36 32.9485 79.6054 46.6531 56.723 86.4188C48.3809 100.916 44.8949 116.875 45.758 132.412L39.7463 141L37.8832 154.663C35.3943 146.209 34.0588 137.26 34.0588 128C34.0588 75.9472 76.256 33.75 128.309 33.75C180.362 33.75 222.559 75.9472 222.559 128Z" fill="#BAD4C4"/>
<path fill-rule="evenodd" clip-rule="evenodd" d="M135.235 74.7043C132.049 77.0719 128.101 78.4727 123.827 78.4727C121.86 78.4727 119.963 78.1762 118.178 77.6256L89.8309 113.366C87.8514 115.862 84.9573 117.426 81.8164 117.957C81.3515 118.036 80.887 118.119 80.4228 118.207C77.689 118.728 73.9426 119.563 69.8871 120.82C61.5138 123.416 52.8837 127.494 48.3905 133.392C46.4278 135.968 44.7394 140.763 43.9581 147.307C43.1945 153.704 43.366 161.207 44.6199 168.69C47.189 184.022 53.9482 197.537 64.4227 202.632C69.3055 205.008 76.4317 205.344 85.8251 203.29C95.113 201.259 105.955 197.037 117.734 191.171C141.275 179.449 167.832 161.537 191.964 142.982C202.244 135.079 208.913 123.937 211.069 114.342C212.147 109.544 212.025 105.469 211.012 102.484C210.061 99.6801 208.327 97.7627 205.64 96.7526C204.678 96.4508 202.586 96.2124 199.122 96.2934C195.747 96.3723 191.567 96.7342 186.824 97.3173C177.347 98.4822 165.962 100.486 154.939 102.657C143.932 104.824 133.361 107.143 125.537 108.92C121.627 109.809 118.407 110.561 116.166 111.091C109.252 112.726 107.254 103.18 113.922 101.603C116.186 101.067 119.435 100.308 123.377 99.4126C131.258 97.622 141.926 95.2822 153.055 93.0907C164.167 90.9026 175.816 88.847 185.634 87.6401C190.538 87.0374 195.07 86.6354 198.894 86.5461C202.552 86.4605 206.128 86.6372 208.785 87.5227L208.854 87.5459L208.923 87.5711C214.695 89.69 218.436 94.0185 220.246 99.3514C222.002 104.53 221.92 110.526 220.582 116.48C217.906 128.389 209.919 141.476 197.907 150.712C173.526 169.458 146.41 187.784 122.08 199.899C109.925 205.951 98.2826 210.546 87.9079 212.815C77.6388 215.06 67.9239 215.178 60.1574 211.4C45.3334 204.188 37.734 186.593 35.004 170.301C33.6084 161.973 33.3953 153.536 34.2769 146.151C35.1409 138.914 37.1277 132.086 40.6351 127.483C47.082 119.021 58.2801 114.211 67.0001 111.508C71.4912 110.115 75.6077 109.199 78.6001 108.629C80.4947 108.269 82.2189 107.274 83.4174 105.763L109.86 72.4221C106.649 68.9981 104.682 64.3927 104.682 59.3279C104.682 48.7546 113.254 40.1832 123.827 40.1832C134.4 40.1832 142.972 48.7546 142.972 59.3279C142.972 62.0841 142.389 64.7042 141.341 67.072L153.055 77.6256C155.033 79.4518 155.157 82.536 153.331 84.5143C151.504 86.4927 148.42 86.6161 146.442 84.7899L135.235 74.7043ZM133.222 59.3279C133.222 64.5165 129.015 68.7227 123.827 68.7227C118.638 68.7227 114.432 64.5165 114.432 59.3279C114.432 54.1393 118.638 49.9332 123.827 49.9332C129.015 49.9332 133.222 54.1393 133.222 59.3279Z" fill="#045762"/>
</svg>
