<svg width="40" height="40" viewBox="0 0 40 40" fill="none" xmlns="http://www.w3.org/2000/svg">
<g clip-path="url(#clip0_177_1445)">
<path d="M38.1843 20C38.1843 30.0102 30.0695 38.125 20.0593 38.125C16.8013 38.125 13.744 37.2654 11.1019 35.7605L11.3093 35.7812L20.2156 31.875L32.0906 24.6875L36.7781 18.9062V14.375L34.1218 12.6562L26.9343 13.5938L11.3093 16.875L5.31614 19.3337C5.58773 17.3461 6.24057 15.3764 7.303 13.5301C11.7035 5.88286 21.464 3.24735 29.1039 7.64354C29.1774 7.68585 29.2523 7.73108 29.3283 7.77895C29.6228 7.96443 30.0088 7.57777 29.7475 7.34787C29.1857 6.85372 28.6215 6.42079 28.0937 6.11705C20.4538 1.72086 10.6933 4.35637 6.29282 12.0036C4.68857 14.7915 4.01819 17.8607 4.18416 20.8485L3.02808 22.5L2.66978 25.1275C2.19115 23.5017 1.93433 21.7808 1.93433 20C1.93433 9.98984 10.0492 1.875 20.0593 1.875C30.0695 1.875 38.1843 9.98984 38.1843 20Z" fill="#BAD4C4"/>
<path fill-rule="evenodd" clip-rule="evenodd" d="M21.3913 9.75081C20.7786 10.2061 20.0195 10.4755 19.1975 10.4755C18.8193 10.4755 18.4545 10.4185 18.1111 10.3126L12.829 16.9725C12.3399 17.5891 11.6237 17.9696 10.8505 18.1168C10.3248 18.2168 9.60435 18.3775 8.82445 18.6193C7.2142 19.1185 5.55455 19.9027 4.69047 21.0368C4.31303 21.5322 3.98835 22.4544 3.83811 23.7129C3.69125 24.9431 3.72423 26.3859 3.96537 27.825C4.45942 30.7734 5.75928 33.3724 7.7736 34.3524C8.71259 34.8092 10.083 34.8738 11.8894 34.4788C13.6756 34.0882 15.7605 33.2762 18.0258 32.1482C22.5529 29.8941 27.66 26.4495 32.3009 22.8812C34.2776 21.3613 35.5602 19.2187 35.9749 17.3735C36.1822 16.4507 36.1587 15.667 35.9639 15.093C35.781 14.5538 35.4475 14.1851 34.9308 13.9909C34.7458 13.9328 34.3435 13.887 33.6772 13.9026C33.0283 13.9177 32.2244 13.9873 31.3123 14.0995C29.4899 14.3235 27.3005 14.7089 25.1805 15.1263C23.0638 15.5431 21.031 15.9889 19.5264 16.3308C18.7744 16.5017 18.1551 16.6464 17.7242 16.7483C16.3947 17.0627 16.0103 15.2269 17.2926 14.9236C17.7282 14.8206 18.3529 14.6746 19.111 14.5024C20.6265 14.1581 22.6781 13.7081 24.8183 13.2867C26.9553 12.8659 29.1954 12.4706 31.0835 12.2385C32.0265 12.1225 32.8981 12.0453 33.6334 12.0281C34.3369 12.0116 35.0247 12.0456 35.5356 12.2159L35.5489 12.2203L35.5622 12.2252C36.6722 12.6327 37.3916 13.4651 37.7395 14.4906C38.0774 15.4865 38.0615 16.6396 37.8042 17.7845C37.2896 20.0748 35.7537 22.5915 33.4437 24.3676C28.7551 27.9727 23.5403 31.497 18.8616 33.8267C16.5241 34.9906 14.2851 35.8743 12.29 36.3105C10.3151 36.7424 8.4469 36.765 6.95334 36.0384C4.10258 34.6515 2.64114 31.2679 2.11615 28.1349C1.84777 26.5332 1.80679 24.9108 1.97633 23.4906C2.14249 22.0988 2.52456 20.7857 3.19906 19.9005C4.43884 18.2733 6.59233 17.3482 8.26925 16.8284C9.13292 16.5606 9.92456 16.3843 10.5 16.2748C10.8644 16.2055 11.1959 16.0141 11.4264 15.7235L16.5116 9.31193C15.894 8.65346 15.5158 7.7678 15.5158 6.79381C15.5158 4.76047 17.1641 3.11212 19.1975 3.11212C21.2308 3.11212 22.8792 4.76047 22.8792 6.79381C22.8792 7.32384 22.7672 7.82771 22.5655 8.28305L24.8183 10.3126C25.1987 10.6638 25.2225 11.2569 24.8713 11.6373C24.5201 12.0178 23.927 12.0415 23.5465 11.6903L21.3913 9.75081ZM21.0042 6.79381C21.0042 7.79161 20.1953 8.60049 19.1975 8.60049C18.1997 8.60049 17.3908 7.79161 17.3908 6.79381C17.3908 5.796 18.1997 4.98712 19.1975 4.98712C20.1953 4.98712 21.0042 5.796 21.0042 6.79381Z" fill="#045762"/>
</g>
<defs>
<clipPath id="clip0_177_1445">
<rect width="40" height="40" fill="white"/>
</clipPath>
</defs>
</svg>
