<svg width="40" height="40" viewBox="0 0 40 40" fill="none" xmlns="http://www.w3.org/2000/svg">
<path d="M3.55897 29.4683C1.70293 26.6076 0.625 23.1953 0.625 19.5312C0.625 9.43479 8.80979 1.25 18.9062 1.25C29.0027 1.25 37.1875 9.43479 37.1875 19.5312C37.1875 21.8272 36.7642 24.0243 35.9915 26.0488L32.8125 17.6562L33.2812 16.4062L35.4688 15.625V13.9062L34.6875 12.8125L25.7812 12.3438L27.3438 9.21875V7.34375L27.1034 6.57457C27.4149 6.72809 27.7235 6.89262 28.0288 7.06827C28.1029 7.11095 28.1784 7.15657 28.2551 7.20485C28.5522 7.39192 28.9415 7.00193 28.6779 6.77005C28.1113 6.27164 27.5423 5.83498 27.0099 5.52862C26.9158 5.4745 26.8214 5.42144 26.7268 5.36943L26.5625 4.84375L25.3125 4.375L24.9738 4.53853C17.6467 1.59052 9.07676 4.41782 5.02106 11.4659C2.57532 15.7162 2.28155 20.6145 3.80008 24.898C3.84561 25.0264 3.89978 25.1637 3.96079 25.3073C4.07767 25.5825 4.48282 25.3849 4.40768 25.0954C3.38382 21.1517 3.8462 16.8179 6.03995 13.0056C9.62891 6.76858 16.7528 3.83682 23.4224 5.28748L20.7812 6.5625C20.3646 5.88542 19 4.84375 16.875 6.09375C14.75 7.34375 15.9896 9.01042 16.875 9.6875L17.3438 12.3438L8.75 12.8125L7.65625 13.5938V15.3125L9.53125 16.4062V17.9688L6.40625 22.6562L3.59375 29.0625L3.55897 29.4683Z" fill="#BAD4C4"/>
<path fill-rule="evenodd" clip-rule="evenodd" d="M24.3751 3.75C22.9796 3.75 21.5141 4.54188 20.7141 5.78042C20.3029 6.4171 20.0579 7.18742 20.1057 8.03612C20.1535 8.8854 20.4906 9.74703 21.1351 10.5756C21.4529 10.9843 22.0419 11.0579 22.4506 10.74C22.8593 10.4221 22.933 9.83313 22.6151 9.42443C22.1658 8.84672 22.0008 8.34117 21.9777 7.93068C21.9545 7.51961 22.0697 7.13759 22.2892 6.7977C22.7507 6.08312 23.6289 5.625 24.3751 5.625C25.3033 5.625 25.8771 5.85423 26.2287 6.21153C26.5834 6.57202 26.8751 7.22846 26.8751 8.4375C26.8751 9.2553 26.1854 10.0262 25.1564 10.6891C24.6805 10.9957 24.2063 11.2308 23.8568 11.3937C23.7867 11.4264 23.7057 11.4634 23.6311 11.4975C23.5494 11.5348 23.4752 11.5686 23.4313 11.5896L23.4258 11.5922C23.3927 11.6078 23.287 11.6578 23.1963 11.7232C23.1709 11.7415 23.0928 11.7984 23.0155 11.8912L23.0144 11.8925C22.9775 11.9368 22.6798 12.2937 22.8442 12.7905C23.0064 13.2806 23.45 13.3929 23.5052 13.4069L23.5072 13.4074C23.6228 13.4369 23.7183 13.4375 23.7501 13.4375H33.7168C34.2322 13.4375 34.6506 13.8548 34.6506 14.375C34.6506 14.8927 34.2308 15.3125 33.7129 15.3125H33.0881C32.87 15.3125 32.6167 15.3673 32.3858 15.5323C32.1574 15.6955 32.0276 15.9118 31.9573 16.1025C31.832 16.4426 31.8571 16.8041 31.8915 17.0568C31.9656 17.6018 32.1901 18.3129 32.4666 19.0777C32.776 19.9333 33.2021 20.9891 33.6622 22.1292C34.0239 23.0254 34.4066 23.9738 34.7702 24.9179C35.6178 27.1188 36.3995 29.3872 36.7671 31.3335C36.9508 32.306 37.0228 33.1571 36.9648 33.8558C36.9117 34.4964 36.7836 34.8512 36.5626 35.1562C36.516 35.2205 36.4496 35.2846 36.3836 35.3059C36.1582 35.3787 35.8239 35.4613 35.3787 35.5492C34.4938 35.7241 33.2603 35.9031 31.7801 36.0718C28.8246 36.4087 24.9485 36.6974 21.0444 36.8342C17.1357 36.9711 13.2289 36.9546 10.2024 36.6883C8.68464 36.5547 7.42639 36.3613 6.51226 36.1072C6.05448 35.98 5.71699 35.8466 5.48705 35.7181C5.32962 35.6301 5.13586 35.4072 5.00006 35C3.39245 30.1793 5.39404 26.1413 7.53863 22.6413C8.53612 21.0133 9.58719 19.6597 10.3727 18.648C10.4328 18.5707 10.4913 18.4953 10.5481 18.422C10.9289 17.9306 11.2812 17.4713 11.4762 17.1288C11.5286 17.0369 11.5841 16.929 11.6274 16.8128C11.6661 16.709 11.7235 16.5253 11.7114 16.3045C11.6972 16.0438 11.581 15.7283 11.2806 15.5138C11.0279 15.3332 10.7632 15.3125 10.6251 15.3125H9.37513C8.85733 15.3125 8.43757 14.8927 8.43757 14.375C8.43757 13.855 8.85613 13.4375 9.3717 13.4375H18.7501L18.7506 13.4375C18.7583 13.4376 18.8427 13.4387 18.9375 13.4215C18.9678 13.416 19.0273 13.4039 19.0987 13.3774C19.1524 13.3575 19.3162 13.2933 19.4646 13.1317C19.6605 12.9184 19.7715 12.5923 19.6791 12.2516C19.6099 11.9961 19.4548 11.8481 19.4049 11.8027C19.2977 11.705 19.1902 11.655 19.1716 11.6463L19.1697 11.6454C19.1345 11.6288 19.1049 11.6174 19.0908 11.6121C19.0617 11.6011 19.034 11.5921 19.0219 11.5882C19.0102 11.5844 18.9987 11.5807 18.9872 11.577C18.939 11.5616 18.8898 11.5459 18.8226 11.5205C18.6598 11.459 18.4255 11.3519 18.1867 11.1694C17.7452 10.8317 17.1876 10.165 17.1876 8.75C17.1876 8.03571 17.3484 7.59528 17.5261 7.31977C17.5346 7.30657 17.5439 7.29333 17.5538 7.28009C17.8383 6.89885 18.0495 6.42505 17.8543 5.99125C17.6266 5.48515 17.007 5.28814 16.5791 5.64162C16.3376 5.84112 16.0999 6.0718 15.9506 6.30328C15.5424 6.93597 15.3126 7.74554 15.3126 8.75C15.3126 9.95763 15.6151 10.875 16.0477 11.5625H9.3717C7.81621 11.5625 6.56257 12.8239 6.56257 14.375C6.56257 15.8492 7.69678 17.0584 9.14005 17.1778L9.06595 17.2736C9.00848 17.3478 8.9488 17.4246 8.8871 17.504C8.1033 18.5132 6.99377 19.9417 5.93988 21.6617C3.67828 25.3526 1.54819 30.5869 3.48836 36.2417L3.50971 36.304L3.53953 36.3626C3.77174 36.819 4.17553 37.1331 4.57229 37.3548C4.98036 37.5829 5.4732 37.7645 6.01016 37.9137C7.08551 38.2126 8.4744 38.4184 10.038 38.556C13.1745 38.8321 17.1679 38.8462 21.1101 38.7081C25.0569 38.5698 28.9823 38.2779 31.9925 37.9348C33.4951 37.7635 34.7855 37.5777 35.7421 37.3887C36.2177 37.2947 36.6336 37.1956 36.96 37.0901C37.1221 37.0378 37.2847 36.9767 37.4303 36.9036C37.5456 36.8456 37.7531 36.7311 37.9159 36.528C38.4994 35.8254 38.7569 34.9325 38.8334 34.0109C38.9105 33.0814 38.8102 32.0478 38.6095 30.9855C38.2085 28.8622 37.3736 26.4608 36.52 24.2441C36.1273 23.2244 35.7375 22.2597 35.3769 21.3676C34.9341 20.2717 34.5354 19.2851 34.2299 18.4401C34.0417 17.9197 33.9079 17.502 33.8275 17.1852C35.3276 17.1251 36.5256 15.89 36.5256 14.375C36.5256 12.8241 35.2726 11.5625 33.7168 11.5625H27.1176C27.9625 10.8303 28.7501 9.79457 28.7501 8.4375C28.7501 6.95722 28.3938 5.73866 27.5652 4.89648C26.7334 4.0511 25.5885 3.75 24.3751 3.75ZM24.2097 13.2961C24.209 13.2965 24.2088 13.2967 24.2088 13.2967C24.2088 13.2967 24.2115 13.2953 24.2158 13.293C24.2128 13.2945 24.2108 13.2956 24.2097 13.2961Z" fill="#045762"/>
</svg>
