<svg width="256" height="256" viewBox="0 0 256 256" fill="none" xmlns="http://www.w3.org/2000/svg">
<path fill-rule="evenodd" clip-rule="evenodd" d="M97.5716 212.528C95.4251 206.339 105.882 192.821 112.107 186.118L128.357 164.18L125.107 156.868L131.607 136.555L123.482 122.743L134.857 117.868L142.982 126.805L169.794 122.743L181.982 114.618L191.732 124.368L181.982 136.555L184.419 166.618L199.857 180.43L200.347 183.207C215.528 164.405 223.395 139.726 220.282 113.838C214.164 62.9631 167.963 26.6802 117.088 32.7978C66.2131 38.9154 29.9302 85.1168 36.0478 135.992C40.416 172.318 65.2211 201.205 97.5716 212.528ZM56.3562 163.075C57.1119 164.391 59.0337 163.15 58.4797 161.737C50.931 142.485 50.635 120.368 59.3791 99.8285C77.07 58.2736 125.066 38.9141 166.58 56.5879C166.98 56.758 167.388 56.9421 167.804 57.1389C169.414 57.9016 171.139 55.7006 169.671 54.6919C166.514 52.5238 163.382 50.6683 160.513 49.4471C118.999 31.7733 71.0031 51.1328 53.3121 92.6878C43.5637 115.586 45.0513 140.446 55.2984 161.11C55.6057 161.73 55.9618 162.388 56.3562 163.075ZM108.857 116.243L99.1067 120.305L88.5441 116.243L86.9191 101.618L97.4816 79.6801L121.857 63.4301L164.107 56.9301L196.607 63.4301L201.482 69.1176L204.732 85.3676L201.482 95.1176H186.044L171.419 87.8051L166.544 77.2426L150.294 79.6801L125.107 85.3676L117.794 95.1176L119.419 106.493L108.857 116.243Z" fill="#BAD4C4"/>
<path fill-rule="evenodd" clip-rule="evenodd" d="M95.8681 76.1187C104.679 67.8904 117.611 59.4934 134.932 54.8523C152.252 50.2113 167.65 51.0174 179.395 53.7378C185.261 55.0965 190.252 56.9409 194.152 58.8535C197.909 60.6963 201.064 62.8023 202.866 64.8894C207.719 70.5084 211.774 76.9646 210.654 84.867C209.56 92.5875 203.302 99.1395 196.328 101.008C194.165 101.588 191.692 101.537 189.461 101.29C187.129 101.032 184.609 100.503 182.142 99.8208C177.282 98.4767 172.105 96.388 168.553 94.0945C166.057 92.4824 164.605 90.3581 163.942 88.0158C163.393 86.0775 163.458 84.15 163.496 83.0414L163.502 82.8484C163.521 82.2423 163.521 81.858 163.516 81.6174C161.386 80.8409 157.971 80.5282 153.864 80.7575C149.789 80.985 145.588 81.7112 142.36 82.5761C139.132 83.441 135.131 84.9127 131.489 86.7529C127.817 88.608 125.016 90.5862 123.56 92.3235C123.675 92.5347 123.867 92.8674 124.187 93.3828L124.289 93.5468C124.876 94.4882 125.896 96.125 126.389 98.078C126.986 100.438 126.791 103.004 125.435 105.648C123.507 109.41 120.067 113.807 116.53 117.401C114.735 119.226 112.817 120.944 110.927 122.333C110.354 122.755 109.749 123.171 109.122 123.562C103.291 130.24 94.5117 141.017 86.9712 151.812C83.1639 157.263 79.7263 162.642 77.15 167.452C74.5085 172.384 73.0231 176.265 72.691 178.839C72.1805 182.795 72.5791 184.921 73.0222 185.94C73.3462 186.685 73.6822 186.885 74.2014 187.017C74.9929 187.219 76.3679 187.211 78.3984 186.664C80.3612 186.136 82.5488 185.21 84.7374 184.051C85.6431 183.572 86.8716 183.061 88.2951 182.996C89.9293 182.921 91.5771 183.455 92.8656 184.685C93.9837 185.752 94.4927 187.025 94.7499 187.879C95.0203 188.777 95.153 189.697 95.2326 190.485C95.3503 191.651 95.3951 193.072 95.4373 194.411C95.4499 194.811 95.4623 195.203 95.4763 195.579C95.5425 197.357 95.6491 199.155 95.9227 200.934C96.4732 204.512 97.6312 207.553 100.002 209.751C100.599 210.304 101.319 210.847 102.197 211.349C102.183 211.283 102.17 211.217 102.157 211.15C105.425 212.54 109.248 213.4 113.625 213.908C113.955 213.916 114.291 213.919 114.635 213.919V214.018C115.067 214.063 115.505 214.104 115.948 214.142C116.595 214.362 117.291 214.483 118.019 214.483H122.157C123.888 214.533 125.683 214.555 127.544 214.555C127.94 214.555 128.307 214.53 128.646 214.483H195.109C199.062 214.483 202.068 210.933 201.419 207.034L199.064 192.904C198.504 189.548 196.987 186.424 194.696 183.909L180.91 168.778C179.216 166.919 178.815 164.354 179.593 162.164C180.5 159.612 180.996 156.86 180.996 153.981C180.996 147.207 180.956 144.343 178.739 141.166C177.223 138.993 177.015 135.865 178.837 133.435L185.091 125.097L180.732 121.36L173.425 129.189C171.314 131.451 168.155 131.746 165.766 130.623C160.936 128.353 153.272 128.785 148.002 131.336C145.348 132.62 141.856 132.075 139.844 129.393L133.882 121.443L128.682 125.343L134.751 133.435C136.568 135.858 136.378 139.003 134.823 141.195C132.489 144.484 132.132 147.583 132.132 153.981C132.132 156.86 132.628 159.612 133.535 162.164C134.313 164.354 133.911 166.919 132.218 168.778L118.432 183.909C117.329 185.119 116.406 186.47 115.683 187.919C114.467 190.357 111.921 192.159 109.254 191.607C106.654 191.069 104.928 188.519 105.874 186.039C107.091 182.845 108.901 179.892 111.225 177.342L123.753 163.592C122.86 160.538 122.382 157.312 122.382 153.981C122.382 148.171 122.563 142.849 125.619 137.509L118.932 128.593C116.778 125.721 117.36 121.647 120.232 119.493L130.632 111.693C133.504 109.539 137.578 110.121 139.732 112.993L146.142 121.54C152.642 119.102 160.962 118.532 167.794 120.933L175.73 112.43C178.106 109.884 182.068 109.663 184.712 111.93L193.748 119.675C196.349 121.905 196.774 125.77 194.718 128.511L187.948 137.537C190.77 142.679 190.759 147.836 190.747 152.995L190.747 153.026C190.747 153.344 190.746 153.663 190.746 153.981C190.746 157.312 190.268 160.538 189.375 163.592L201.903 177.342C205.459 181.246 207.813 186.093 208.681 191.301L211.036 205.431C212.676 215.273 205.086 224.233 195.109 224.233H118.019C116.531 224.233 115.097 224.034 113.738 223.662C104.533 223.516 97.9075 221.104 93.3731 216.9C88.7342 212.6 87.0037 207.081 86.2861 202.416C85.9257 200.074 85.8033 197.829 85.733 195.942C85.7123 195.386 85.6963 194.881 85.6815 194.419L85.6811 194.405C84.1294 195.07 82.53 195.649 80.9319 196.079C78.119 196.836 74.8796 197.251 71.7963 196.466C68.4408 195.612 65.6418 193.417 64.0813 189.829C62.6398 186.515 62.4044 182.371 63.0211 177.591C63.5907 173.177 65.797 167.998 68.5553 162.849C71.379 157.577 75.0498 151.853 78.9779 146.229C84.1266 138.858 89.81 131.527 94.8063 125.417C90.7741 124.342 86.9878 122.061 84.3614 118.707C79.44 112.423 79.7239 104.805 81.117 97.5121C81.6344 94.8034 83.3133 91.4022 85.6459 87.9276C88.0668 84.3215 91.4676 80.2282 95.8681 76.1187ZM93.7409 93.362C91.6672 96.4509 90.8444 98.5531 90.6938 99.3415C89.4147 106.037 89.861 109.916 92.0374 112.695C94.327 115.619 98.9434 117.008 102.316 116.105C102.74 115.991 103.699 115.545 105.151 114.478C106.523 113.47 108.05 112.119 109.581 110.563C112.696 107.397 115.43 103.793 116.759 101.2C117.011 100.709 116.964 100.556 116.942 100.485C116.94 100.479 116.938 100.474 116.937 100.468C116.848 100.117 116.623 99.6855 115.9 98.5207L115.799 98.3576C115.233 97.4519 114.164 95.7396 113.798 93.7285C113.318 91.0916 114.066 88.5588 115.876 86.3168C118.614 82.9274 122.944 80.1461 127.092 78.0505C131.354 75.8973 135.985 74.1903 139.837 73.1583C143.688 72.1263 148.553 71.2889 153.32 71.0227C157.96 70.7636 163.101 71.0072 167.166 72.5738C169.855 73.61 171.769 75.4294 172.672 77.9531C173.361 79.8779 173.291 81.8955 173.254 82.9627L173.247 83.1547C173.204 84.5245 173.225 85.0107 173.323 85.3598C173.325 85.3649 173.326 85.3706 173.328 85.377C173.344 85.4492 173.38 85.6053 173.843 85.9041C176.291 87.4853 180.461 89.2397 184.741 90.4236C186.845 91.0054 188.843 91.4119 190.535 91.5994C192.326 91.798 193.379 91.7044 193.804 91.5906C197.176 90.687 200.479 87.1753 201.001 83.4987C201.496 80.004 199.943 76.4215 195.487 71.2622C194.963 70.6547 193.199 69.2456 189.859 67.6073C186.66 66.0388 182.375 64.4362 177.195 63.2363C166.848 60.8397 153.081 60.0832 137.455 64.2701C121.829 68.4571 110.285 75.9957 102.523 83.2446C98.6366 86.8737 95.7264 90.4044 93.7409 93.362Z" fill="#045762"/>
</svg>
