<svg width="40" height="40" viewBox="0 0 40 40" fill="none" xmlns="http://www.w3.org/2000/svg">
<g clip-path="url(#clip0_177_1424)">
<path fill-rule="evenodd" clip-rule="evenodd" d="M14.1484 36.2554C13.7356 35.0651 15.7466 32.4656 16.9436 31.1765L20.0686 26.9577L19.4436 25.5515L20.6936 21.6452L19.1311 18.989L21.3186 18.0515L22.8811 19.7702L28.0373 18.989L30.3811 17.4265L32.2561 19.3015L30.3811 21.6452L30.8498 27.4265L33.8186 30.0827L33.9128 30.6167C36.8323 27.0009 38.3451 22.2551 37.7464 17.2765C36.57 7.4929 27.6851 0.515432 17.9015 1.69189C8.1179 2.86834 1.14043 11.7532 2.31689 21.5368C3.15692 28.5227 7.92713 34.0779 14.1484 36.2554ZM6.22235 26.7452C6.36768 26.9983 6.73725 26.7596 6.63071 26.4878C5.17904 22.7856 5.12212 18.5323 6.80367 14.5824C10.2058 6.59107 19.4357 2.86809 27.4193 6.2669C27.4961 6.29961 27.5746 6.33502 27.6546 6.37287C27.9642 6.51953 28.296 6.09627 28.0136 5.90228C27.4065 5.48534 26.8042 5.12851 26.2526 4.89368C18.269 1.49487 9.03906 5.21785 5.63695 13.2092C3.76224 17.6128 4.04833 22.3935 6.01893 26.3673C6.07801 26.4865 6.14649 26.6132 6.22235 26.7452ZM16.3186 17.739L14.4436 18.5202L12.4123 17.739L12.0998 14.9265L14.1311 10.7077L18.8186 7.58272L26.9436 6.33272L33.1936 7.58272L34.1311 8.67647L34.7561 11.8015L34.1311 13.6765H31.1623L28.3498 12.2702L27.4123 10.239L24.2873 10.7077L19.4436 11.8015L18.0373 13.6765L18.3498 15.864L16.3186 17.739Z" fill="#BAD4C4"/>
<path fill-rule="evenodd" clip-rule="evenodd" d="M13.8208 10.0228C15.5152 8.44046 18.0021 6.82565 21.333 5.93314C24.664 5.04062 27.6251 5.19565 29.8837 5.7188C31.0117 5.98008 31.9716 6.33479 32.7216 6.70259C33.4441 7.05698 34.0508 7.46198 34.3974 7.86335C35.3306 8.94392 36.1105 10.1855 35.895 11.7052C35.6846 13.1899 34.4812 14.4499 33.14 14.8093C32.7242 14.9207 32.2485 14.911 31.8194 14.8635C31.3711 14.8138 30.8863 14.7121 30.412 14.5809C29.4774 14.3224 28.4817 13.9208 27.7988 13.4797C27.3187 13.1697 27.0395 12.7612 26.912 12.3107C26.8065 11.938 26.8189 11.5673 26.8261 11.3541L26.8273 11.317C26.831 11.2004 26.831 11.1265 26.8299 11.0803C26.4204 10.9309 25.7637 10.8708 24.9738 10.9149C24.1903 10.9587 23.3823 11.0983 22.7616 11.2646C22.1409 11.431 21.3713 11.714 20.6709 12.0679C19.9648 12.4246 19.4262 12.805 19.1461 13.1391C19.1683 13.1798 19.2053 13.2437 19.2668 13.3429L19.2864 13.3744C19.3992 13.5554 19.5953 13.8702 19.6903 14.2458C19.8051 14.6996 19.7676 15.193 19.5068 15.7015C19.1359 16.4249 18.4745 17.2706 17.7943 17.9618C17.4491 18.3126 17.0802 18.643 16.7168 18.9102C16.6065 18.9913 16.4903 19.0714 16.3697 19.1466C15.2483 20.4308 13.56 22.5032 12.1099 24.5793C11.3777 25.6276 10.7166 26.662 10.2212 27.587C9.7132 28.5353 9.42756 29.2817 9.36368 29.7767C9.26552 30.5375 9.34218 30.9464 9.42737 31.1423C9.48968 31.2856 9.55431 31.324 9.65416 31.3495C9.80636 31.3882 10.0708 31.3866 10.4613 31.2816C10.8387 31.18 11.2594 31.002 11.6803 30.7791C11.8545 30.6869 12.0907 30.5886 12.3645 30.5761C12.6787 30.5618 12.9956 30.6644 13.2434 30.901C13.4584 31.1062 13.5563 31.3509 13.6058 31.5152C13.6578 31.6878 13.6833 31.8649 13.6986 32.0164C13.7213 32.2405 13.7299 32.5138 13.738 32.7713C13.7404 32.8482 13.7428 32.9236 13.7455 32.996C13.7582 33.3379 13.7787 33.6836 13.8313 34.0257C13.9372 34.7138 14.1599 35.2986 14.6158 35.7213C14.7305 35.8276 14.8691 35.9321 15.0379 36.0286C15.0353 36.0159 15.0328 36.0032 15.0303 35.9905C15.6587 36.2576 16.3938 36.4231 17.2357 36.5209C17.2991 36.5222 17.3637 36.5229 17.4298 36.5229V36.542C17.513 36.5505 17.5972 36.5584 17.6824 36.5657C17.8068 36.6082 17.9406 36.6313 18.0806 36.6313H18.8764C19.2092 36.641 19.5545 36.6452 19.9124 36.6452C19.9886 36.6452 20.0591 36.6405 20.1243 36.6313H32.9056C33.6657 36.6313 34.244 35.9487 34.119 35.1989L33.6661 32.4815C33.5585 31.8361 33.2669 31.2354 32.8262 30.7517L30.175 27.8419C29.8494 27.4845 29.7721 26.9911 29.9218 26.57C30.0962 26.0792 30.1916 25.5499 30.1916 24.9963C30.1916 23.6937 30.1839 23.1429 29.7576 22.5319C29.466 22.1141 29.426 21.5125 29.7764 21.0452L30.9791 19.4416L30.1408 18.7231L28.7356 20.2287C28.3296 20.6637 27.7222 20.7204 27.2627 20.5045C26.3338 20.068 24.86 20.1509 23.8465 20.6415C23.3362 20.8884 22.6646 20.7836 22.2778 20.2678L21.1311 18.739L20.1311 19.489L21.2983 21.0452C21.6478 21.5112 21.6113 22.116 21.3122 22.5374C20.8632 23.1699 20.7946 23.7659 20.7946 24.9963C20.7946 25.5499 20.89 26.0792 21.0644 26.57C21.214 26.9911 21.1368 27.4845 20.8112 27.8419L18.16 30.7517C17.948 30.9844 17.7705 31.2442 17.6314 31.523C17.3975 31.9917 16.9079 32.3383 16.395 32.2321C15.895 32.1287 15.563 31.6383 15.7449 31.1613C15.9791 30.5472 16.3272 29.9793 16.774 29.4889L19.1833 26.8446C19.0115 26.2573 18.9196 25.6368 18.9196 24.9963C18.9196 23.8791 18.9546 22.8555 19.5422 21.8287L18.2561 20.114C17.8419 19.5617 17.9538 18.7782 18.5061 18.364L20.5061 16.864C21.0584 16.4498 21.8419 16.5617 22.2561 17.114L23.4889 18.7576C24.7389 18.2888 26.3389 18.1792 27.6526 18.641L29.1789 17.0058C29.6359 16.5161 30.3976 16.4737 30.9062 16.9096L32.6439 18.3991C33.1441 18.8278 33.2257 19.5712 32.8305 20.0982L31.5285 21.8341C32.0713 22.8228 32.069 23.8146 32.0668 24.8066L32.0668 24.8128C32.0667 24.8739 32.0666 24.9351 32.0666 24.9963C32.0666 25.6368 31.9747 26.2573 31.8029 26.8446L34.2122 29.4889C34.896 30.2395 35.3487 31.1716 35.5156 32.1733L35.9685 34.8906C36.2839 36.7833 34.8244 38.5063 32.9056 38.5063H18.0806C17.7945 38.5063 17.5187 38.468 17.2574 38.3966C15.4872 38.3684 14.213 37.9047 13.341 37.0962C12.4489 36.2691 12.1161 35.2079 11.9781 34.3108C11.9088 33.8603 11.8853 33.4287 11.8718 33.0657C11.8678 32.9588 11.8647 32.8618 11.8619 32.7729L11.8618 32.7702C11.5634 32.8982 11.2558 33.0095 10.9485 33.0922C10.4075 33.2377 9.78457 33.3174 9.19163 33.1665C8.54634 33.0023 8.00808 32.5801 7.70798 31.8902C7.43077 31.2528 7.38549 30.456 7.5041 29.5368C7.61363 28.6879 8.03791 27.692 8.56837 26.7016C9.11139 25.6879 9.81731 24.5871 10.5727 23.5056C11.5628 22.0881 12.6558 20.6782 13.6166 19.5032C12.8412 19.2965 12.1131 18.8578 11.608 18.2129C10.6616 17.0045 10.7162 15.5393 10.9841 14.1369C11.0836 13.616 11.4064 12.962 11.855 12.2938C12.3206 11.6003 12.9746 10.8131 13.8208 10.0228ZM13.4118 13.3388C13.013 13.9329 12.8547 14.3371 12.8258 14.4887C12.5798 15.7764 12.6656 16.5224 13.0841 17.0568C13.5245 17.619 14.4122 17.8862 15.0607 17.7125C15.1424 17.6906 15.3269 17.6049 15.6061 17.3996C15.8698 17.2057 16.1635 16.9459 16.4579 16.6467C17.0569 16.0379 17.5827 15.3448 17.8384 14.8461C17.8867 14.7518 17.8777 14.7224 17.8735 14.7087C17.8731 14.7075 17.8728 14.7065 17.8726 14.7055C17.8554 14.6378 17.8121 14.5549 17.6732 14.3309L17.6537 14.2995C17.5449 14.1254 17.3392 13.7961 17.2688 13.4093C17.1765 12.9022 17.3204 12.4151 17.6686 11.984C18.195 11.3322 19.0277 10.7973 19.8254 10.3943C20.645 9.98025 21.5356 9.65198 22.2763 9.45351C23.017 9.25505 23.9525 9.09401 24.8693 9.04282C25.7616 8.993 26.7502 9.03985 27.532 9.34111C28.0491 9.54038 28.4172 9.89027 28.5908 10.3756C28.7232 10.7457 28.7098 11.1337 28.7027 11.339L28.7014 11.3759C28.6931 11.6393 28.6971 11.7328 28.7161 11.8C28.7164 11.8009 28.7166 11.802 28.7169 11.8033C28.7201 11.8172 28.727 11.8472 28.816 11.9046C29.2868 12.2087 30.0886 12.5461 30.9118 12.7738C31.3164 12.8857 31.7006 12.9638 32.0259 12.9999C32.3704 13.0381 32.573 13.0201 32.6547 12.9982C33.3032 12.8244 33.9384 12.1491 34.0386 11.442C34.1339 10.77 33.8352 10.0811 32.9783 9.08888C32.8775 8.97205 32.5383 8.70107 31.8959 8.38602C31.2809 8.08437 30.4567 7.77618 29.4606 7.54544C27.4708 7.08456 24.8233 6.93906 21.8183 7.74425C18.8133 8.54944 16.5933 9.99917 15.1006 11.3932C14.3532 12.0911 13.7936 12.7701 13.4118 13.3388Z" fill="#045762"/>
</g>
<defs>
<clipPath id="clip0_177_1424">
<rect width="40" height="40" fill="white"/>
</clipPath>
</defs>
</svg>
