<svg width="256" height="256" viewBox="0 0 256 256" fill="none" xmlns="http://www.w3.org/2000/svg">
<path d="M140.193 61.3792L151.562 70.3125L158.875 86.5625V114.187L151.562 136.937L144.25 152.375L122.312 158.062L109.312 149.125V131.25L117.437 97.9375L112.562 86.5625L103.625 80.875L84.9374 84.125L80.0624 106.062L80.0624 122.312L85.7499 127.187L69.1198 173.302C64.1572 163.044 61.3749 151.534 61.3749 139.375C61.3749 96.2968 96.2967 61.375 139.375 61.375C139.648 61.375 139.92 61.3764 140.193 61.3792Z" fill="#BAD4C4"/>
<path fill-rule="evenodd" clip-rule="evenodd" d="M88.0989 198.154C101.809 210.124 119.745 217.375 139.375 217.375C182.453 217.375 217.375 182.453 217.375 139.375C217.375 114.002 205.26 91.4594 186.5 77.2147V110.125L179.187 144.25L163.75 161.312L140.187 175.125L112.562 175.125L98.7499 167L89.8124 196.25L88.0989 198.154ZM204.698 141.829C206.484 142.007 207.787 143.6 207.609 145.386C205.223 169.24 192.746 185.2 178.227 195.358C163.801 205.451 147.312 209.871 136.419 210.862C134.632 211.024 133.051 209.707 132.888 207.919C132.726 206.132 134.043 204.551 135.831 204.388C145.792 203.483 161.153 199.371 174.501 190.032C187.756 180.758 198.976 166.385 201.141 144.739C201.32 142.953 202.912 141.65 204.698 141.829Z" fill="#BAD4C4"/>
<path fill-rule="evenodd" clip-rule="evenodd" d="M35.3749 102.376C35.3749 68.6441 63.7732 28.8749 117.632 28.8749C144.377 28.8749 163.772 38.184 176.445 52.113C189.028 65.9436 194.625 83.9329 194.625 100.793C194.625 117.199 191.101 136.661 181.455 152.195C171.647 167.989 155.551 179.573 131.319 179.573C119.176 179.573 110.958 176.625 105.638 173.389C105.288 173.176 104.951 172.963 104.628 172.749L98.6513 194.969C98.4867 195.58 98.2044 196.154 97.8201 196.658L77.2902 223.581C76.0828 225.164 74.034 225.854 72.1148 225.324C70.1957 224.793 68.792 223.149 68.5693 221.17L64.8844 188.441C64.8131 187.808 64.8667 187.167 65.0419 186.554L81.9074 127.615C81.7661 127.298 81.6124 126.944 81.4497 126.555C80.7182 124.809 79.7935 122.339 79.0075 119.412C77.4637 113.663 76.3111 105.621 78.7612 97.7586C80.4255 92.4176 82.7866 86.0753 87.1226 81.3833C91.7777 76.3459 98.3572 73.5745 107.269 74.8512C111.983 75.5266 115.606 77.4972 118.229 80.2694C120.787 82.9732 122.151 86.1791 122.881 89.0239C123.611 91.8714 123.76 94.5659 123.741 96.5022C123.731 97.4832 123.678 98.3028 123.625 98.8927C123.579 99.397 123.514 99.8924 123.415 100.389L123.14 101.49C122.964 102.195 122.711 103.208 122.402 104.442C121.785 106.91 120.946 110.261 120.057 113.794C118.286 120.832 116.298 128.674 115.493 131.634C114.865 133.941 114.343 138.946 115.871 143.065C116.592 145.007 117.716 146.625 119.412 147.791C121.111 148.959 123.768 149.937 128 149.937C134.114 149.937 138.201 149.017 142.342 145.599C144.419 143.885 147.491 144.18 149.205 146.256C150.919 148.333 150.625 151.405 148.548 153.119C142.01 158.515 135.361 159.687 128 159.687C122.23 159.687 117.537 158.334 113.887 155.824C110.234 153.312 108.01 149.904 106.73 146.457C104.259 139.799 105.133 132.575 106.085 129.075C106.859 126.228 108.819 118.498 110.601 111.415C111.489 107.887 112.327 104.541 112.944 102.076C113.252 100.844 113.505 99.8318 113.68 99.1282L113.885 98.3096C113.893 98.2337 113.903 98.1365 113.914 98.0199C113.947 97.6489 113.984 97.091 113.991 96.4059C114.005 95.0098 113.89 93.2173 113.436 91.4457C112.981 89.6715 112.24 88.1263 111.146 86.9699C110.117 85.8818 108.541 84.883 105.886 84.5026C100.058 83.6677 96.7017 85.3834 94.2832 88.0005C91.5455 90.963 89.6953 95.4426 88.0697 100.659C86.4072 105.994 87.0971 111.942 88.4239 116.883C89.0731 119.301 89.8407 121.351 90.4427 122.788C90.7426 123.505 90.9984 124.061 91.173 124.427C91.2602 124.61 91.3269 124.744 91.3683 124.827C91.3783 124.847 91.3868 124.863 91.3938 124.877C91.4014 124.892 91.4071 124.903 91.411 124.911L91.4121 124.913L91.4133 124.915L91.4159 124.92C91.9987 126.03 92.1321 127.323 91.7872 128.529L74.6812 188.309L76.8996 208.014L89.4852 191.509L97.2923 162.484C97.7985 160.601 99.3774 159.202 101.307 158.924C103.209 158.651 105.091 159.521 106.117 161.139C106.129 161.157 106.162 161.204 106.216 161.275C106.338 161.436 106.568 161.722 106.923 162.094C107.632 162.836 108.845 163.928 110.704 165.059C114.384 167.297 120.825 169.823 131.319 169.823C151.831 169.823 164.951 160.291 173.172 147.051C181.555 133.551 184.875 116.06 184.875 100.793C184.875 85.9787 179.944 70.4467 169.233 58.6743C158.612 47.0003 141.949 38.6249 117.632 38.6249C69.3675 38.6249 45.1249 73.817 45.1249 102.376C45.1249 119.608 51.104 130.935 56.9015 137.935C59.8256 141.466 62.7382 143.935 64.8879 145.504C65.9612 146.287 66.8387 146.843 67.4237 147.19C67.716 147.363 67.9346 147.484 68.0671 147.556C68.1333 147.592 68.178 147.615 68.1995 147.626C68.2052 147.629 68.2117 147.632 68.2117 147.632C70.6149 148.825 71.6036 151.737 70.4196 154.148C69.2326 156.564 66.3113 157.561 63.8947 156.374L66.044 151.999C63.8947 156.374 63.8895 156.372 63.8895 156.372L63.8837 156.369L63.8702 156.362L63.8362 156.345C63.8104 156.332 63.7784 156.316 63.7404 156.296C63.6643 156.257 63.5642 156.205 63.4415 156.139C63.1962 156.007 62.8605 155.819 62.4475 155.574C61.622 155.084 60.4843 154.361 59.1394 153.379C56.4527 151.418 52.9168 148.41 49.3923 144.154C42.2928 135.582 35.3749 122.098 35.3749 102.376ZM113.862 98.5004L113.862 98.4964C113.861 98.5016 113.862 98.5004 113.862 98.5004ZM123.415 100.389C123.509 99.9162 123.531 99.9236 123.415 100.389Z" fill="#045762"/>
<path fill-rule="evenodd" clip-rule="evenodd" d="M79.2881 75.1159C70.4275 84.9053 66.6204 96.8398 67.0539 104.149C67.7328 115.596 73.3441 123.72 76.4157 127.224C77.5884 128.561 77.9394 130.432 77.3314 132.103L74.0814 141.041C73.1613 143.571 70.3642 144.877 67.8339 143.956C65.3037 143.036 63.9983 140.239 64.9184 137.709L67.2239 131.369C63.2708 126.171 58.049 117 57.321 104.726C56.7043 94.3285 61.7895 79.9195 72.0595 68.5731C82.5289 57.0062 98.6427 48.3224 120.256 50.0148C141.426 51.6726 156.909 60.7341 164.24 76.4809C171.424 91.9126 170.151 112.487 160.992 135.999C160.015 138.508 157.189 139.75 154.68 138.772C152.171 137.795 150.93 134.969 151.907 132.46C160.6 110.144 160.991 92.6035 155.401 80.596C149.957 68.9036 138.227 61.2019 119.494 59.735C101.204 58.3028 87.9492 65.5469 79.2881 75.1159Z" fill="#045762"/>
</svg>
