<svg width="40" height="40" viewBox="0 0 40 40" fill="none" xmlns="http://www.w3.org/2000/svg">
<path d="M22.3448 7.18831L24.5312 8.90625L25.9375 12.0312V17.3438L24.5312 21.7188L23.125 24.6875L18.9062 25.7812L16.4062 24.0625V20.625L17.9688 14.2188L17.0312 12.0312L15.3125 10.9375L11.7188 11.5625L10.7812 15.7812V18.9062L11.875 19.8438L8.67691 28.7118C7.72255 26.7392 7.1875 24.5258 7.1875 22.1875C7.1875 13.9032 13.9032 7.1875 22.1875 7.1875C22.24 7.1875 22.2924 7.18777 22.3448 7.18831Z" fill="#BAD4C4"/>
<path fill-rule="evenodd" clip-rule="evenodd" d="M12.3267 33.4911C14.9633 35.793 18.4125 37.1875 22.1875 37.1875C30.4718 37.1875 37.1875 30.4718 37.1875 22.1875C37.1875 17.3082 34.8578 12.973 31.25 10.2336V16.5625L29.8438 23.125L26.875 26.4062L22.3438 29.0625H17.0312L14.375 27.5L12.6562 33.125L12.3267 33.4911ZM34.7497 22.6594C35.0932 22.6937 35.3437 23 35.3094 23.3434C34.8507 27.9308 32.4511 31 29.6591 32.9535C26.8849 34.8945 23.7138 35.7445 21.6191 35.9349C21.2753 35.9662 20.9713 35.7128 20.9401 35.3691C20.9088 35.0253 21.1622 34.7213 21.5059 34.6901C23.4216 34.5159 26.3756 33.7253 28.9425 31.9293C31.4916 30.1458 33.6493 27.3817 34.0656 23.2191C34.0999 22.8756 34.4062 22.625 34.7497 22.6594Z" fill="#BAD4C4"/>
<path fill-rule="evenodd" clip-rule="evenodd" d="M2.1875 15.0724C2.1875 8.58542 7.64871 0.9375 18.0062 0.9375C23.1493 0.9375 26.8793 2.72771 29.3164 5.40635C31.7362 8.06608 32.8125 11.5256 32.8125 14.7678C32.8125 17.9229 32.1349 21.6655 30.2798 24.6529C28.3937 27.6903 25.2983 29.9179 20.6382 29.9179C18.3032 29.9179 16.7227 29.351 15.6996 28.7287C15.6322 28.6877 15.5675 28.6467 15.5053 28.6056L14.356 32.8786C14.3244 32.9962 14.2701 33.1066 14.1962 33.2035L10.2481 38.381C10.0159 38.6854 9.62193 38.8181 9.25286 38.7161C8.8838 38.6141 8.61387 38.2979 8.57103 37.9174L7.8624 31.6232C7.84869 31.5015 7.85898 31.3782 7.89269 31.2604L11.1361 19.9259C11.1089 19.8649 11.0793 19.7968 11.048 19.7221C10.9074 19.3863 10.7295 18.9113 10.5784 18.3484C10.2815 17.2428 10.0598 15.6964 10.531 14.1844C10.8511 13.1572 11.3051 11.9376 12.139 11.0353C13.0342 10.0665 14.2995 9.53356 16.0132 9.77908C16.9199 9.90898 17.6166 10.2879 18.1209 10.821C18.6128 11.341 18.8752 11.9575 19.0155 12.5046C19.1559 13.0522 19.1846 13.5704 19.1809 13.9427C19.179 14.1314 19.1688 14.289 19.1586 14.4025C19.1499 14.4994 19.1373 14.5947 19.1183 14.6901L19.0654 14.9019C19.0316 15.0375 18.9829 15.2323 18.9236 15.4696C18.8049 15.9442 18.6434 16.5886 18.4724 17.2681C18.1319 18.6216 17.7496 20.1297 17.5948 20.6989C17.4741 21.1426 17.3736 22.1051 17.6675 22.8971C17.8061 23.2705 18.0223 23.5816 18.3485 23.8059C18.6753 24.0307 19.1862 24.2187 20 24.2187C21.1759 24.2187 21.9617 24.0417 22.7581 23.3845C23.1574 23.0549 23.7483 23.1115 24.0779 23.5108C24.4075 23.9101 24.3509 24.501 23.9516 24.8306C22.6942 25.8683 21.4156 26.0937 20 26.0937C18.8904 26.0937 17.9879 25.8335 17.286 25.3509C16.5835 24.8677 16.1557 24.2124 15.9097 23.5495C15.4345 22.2691 15.6025 20.8798 15.7855 20.2068C15.9344 19.6593 16.3114 18.1726 16.6541 16.8105C16.8248 16.1322 16.986 15.4886 17.1046 15.0146C17.1639 14.7776 17.2125 14.5831 17.2463 14.4477L17.2855 14.2903C17.2872 14.2757 17.2891 14.257 17.2911 14.2346C17.2975 14.1633 17.3047 14.056 17.306 13.9242C17.3086 13.6557 17.2866 13.311 17.1993 12.9703C17.1118 12.6291 16.9693 12.332 16.7589 12.1096C16.5609 11.9004 16.2579 11.7083 15.7473 11.6351C14.6266 11.4746 13.9811 11.8045 13.516 12.3078C12.9895 12.8775 12.6337 13.739 12.3211 14.7422C12.0014 15.7681 12.1341 16.912 12.3892 17.8621C12.5141 18.327 12.6617 18.7213 12.7775 18.9978C12.8351 19.1355 12.8843 19.2425 12.9179 19.3129C12.9347 19.348 12.9475 19.3739 12.9555 19.3898C12.9574 19.3936 12.959 19.3968 12.9604 19.3994C12.9618 19.4023 12.9629 19.4044 12.9637 19.4059L12.9639 19.4063L12.9641 19.4068L12.9646 19.4077C13.0767 19.6212 13.1023 19.8698 13.036 20.1017L9.74639 31.5979L10.173 35.3873L12.5933 32.2133L14.0947 26.6315C14.192 26.2695 14.4957 26.0003 14.8667 25.947C15.2325 25.8945 15.5944 26.0617 15.7917 26.3729C15.7941 26.3764 15.8004 26.3854 15.8108 26.3991C15.8342 26.43 15.8785 26.4849 15.9468 26.5565C16.0831 26.6992 16.3164 26.9093 16.6739 27.1267C17.3816 27.5571 18.6203 28.0429 20.6382 28.0429C24.5828 28.0429 27.1059 26.2098 28.6869 23.6637C30.2991 21.0676 30.9375 17.7039 30.9375 14.7678C30.9375 11.919 29.9892 8.93207 27.9295 6.66815C25.887 4.42315 22.6825 2.8125 18.0062 2.8125C8.72453 2.8125 4.0625 9.58021 4.0625 15.0724C4.0625 18.3861 5.21233 20.5644 6.32723 21.9106C6.88955 22.5896 7.44966 23.0644 7.86306 23.3662C8.06947 23.5168 8.23822 23.6236 8.35073 23.6904C8.40694 23.7237 8.44896 23.747 8.47445 23.7607C8.48719 23.7676 8.49578 23.7721 8.49992 23.7742C8.50101 23.7748 8.50226 23.7754 8.50226 23.7754C8.96441 24.0048 9.15454 24.5649 8.92686 25.0284C8.69859 25.4932 8.13681 25.6849 7.67207 25.4566L8.08539 24.6151C7.67207 25.4566 7.67107 25.4561 7.67107 25.4561L7.66995 25.4555L7.66736 25.4543L7.66082 25.451C7.65586 25.4485 7.64971 25.4454 7.64239 25.4416C7.62777 25.4341 7.6085 25.424 7.58491 25.4113C7.53773 25.3859 7.47318 25.3499 7.39376 25.3028C7.235 25.2085 7.01622 25.0694 6.75759 24.8806C6.24092 24.5035 5.56093 23.925 4.88316 23.1066C3.51787 21.458 2.1875 18.865 2.1875 15.0724ZM17.2811 14.327L17.2812 14.3262C17.2811 14.3272 17.2811 14.327 17.2811 14.327ZM19.1183 14.6901C19.1364 14.5993 19.1406 14.6007 19.1183 14.6901Z" fill="#045762"/>
<path fill-rule="evenodd" clip-rule="evenodd" d="M10.6323 9.82999C8.92837 11.7126 8.19624 14.0077 8.27961 15.4132C8.41017 17.6146 9.48925 19.1769 10.08 19.8507C10.3055 20.108 10.373 20.4676 10.2561 20.7891L9.63106 22.5079C9.45411 22.9945 8.91621 23.2455 8.42962 23.0686C7.94302 22.8916 7.692 22.3537 7.86894 21.8671L8.3123 20.6479C7.55209 19.6483 6.54789 17.8846 6.4079 15.5243C6.2893 13.5247 7.26723 10.7538 9.24221 8.57175C11.2556 6.34736 14.3544 4.67739 18.5107 5.00286C22.5819 5.32166 25.5594 7.06427 26.9692 10.0925C28.3507 13.0601 28.1059 17.0167 26.3446 21.5383C26.1567 22.0208 25.6132 22.2595 25.1308 22.0716C24.6483 21.8837 24.4096 21.3402 24.5975 20.8578C26.2692 16.5662 26.3444 13.193 25.2693 10.8839C24.2225 8.63532 21.9667 7.15423 18.3643 6.87214C14.847 6.5967 12.2979 7.98981 10.6323 9.82999Z" fill="#045762"/>
</svg>
