<svg width="40" height="40" viewBox="0 0 40 40" fill="none" xmlns="http://www.w3.org/2000/svg">
<g clip-path="url(#clip0_177_1410)">
<path d="M11.707 19.092C9.18076 19.1167 6.72444 19.8076 4.80337 24.0332C0.825362 32.7832 13.4054 43.1955 27.9064 35.1269C42.4074 27.0583 43.9714 6.06441 32.0374 5.75192C27.4592 5.63203 25.2002 6.7999 23.9043 8.50567L25.1132 9.72649C25.4971 9.06461 26.0798 8.40158 26.8188 7.97327C28.4657 7.01882 30.7921 6.64584 31.1674 7.32131C31.395 7.73086 30.6909 7.99211 29.7341 8.34709C29.1129 8.57756 28.3852 8.84754 27.7369 9.22327C27.085 9.60104 26.5286 10.1772 26.0709 10.6937L37.26 21.9935L25.632 34.0247L12.8624 20.9839C12.9283 21.3365 12.2649 21.5826 11.3906 21.907C10.7694 22.1375 10.0417 22.4074 9.39339 22.7832C8.60266 23.2414 7.95235 23.9917 7.44836 24.5731C6.90266 25.2027 6.52849 25.6343 6.33336 25.2832C5.95801 24.6077 6.82846 22.4876 8.47536 21.5332C9.87497 20.722 11.7653 20.3309 12.5318 20.6463L11.862 19.9622L11.707 19.092Z" fill="#BAD4C4"/>
<path d="M6.89786 8.53285C6.37613 9.47068 5.82091 10.4463 5.22668 11.1832C4.56122 12.0084 3.73705 12.4621 2.8489 12.412C1.98943 12.3634 1.29175 11.854 0.826581 11.2377C-0.0810116 10.0353 -0.4105 8.0102 0.717691 6.43908C1.01751 6.02155 1.592 5.93129 2.00085 6.23747C2.40969 6.54366 2.49807 7.13035 2.19825 7.54788C1.64344 8.32051 1.773 9.42039 2.2807 10.093C2.52318 10.4142 2.7722 10.5298 2.95028 10.5398C3.09967 10.5483 3.40387 10.4942 3.80941 9.99126C4.28617 9.40003 4.76676 8.56786 5.30151 7.60664C5.35917 7.50299 5.41742 7.39792 5.47623 7.29185C5.94523 6.4459 6.45051 5.53451 6.9898 4.74303C7.58703 3.86652 8.3087 3.00799 9.19906 2.54375C10.1755 2.03463 11.2618 2.04777 12.365 2.73543C14.4194 4.01601 14.4183 6.37007 13.9517 8.2157C13.6873 9.2616 13.267 10.3914 12.702 11.3993C12.1166 12.4438 11.7114 13.6288 11.8683 14.8216L12.4706 19.4008L25.3881 32.5927L35.9056 21.8518L22.982 8.65376L16.6582 7.67525L16.1872 8.10968C15.8212 8.44729 15.2603 8.43274 14.9116 8.07659C14.5418 7.69898 14.5513 7.08383 14.9325 6.7183L16.0159 5.67948L23.8536 6.89223L38.5021 21.8518L25.3881 35.2443L10.7336 20.2785L9.88345 13.8154C9.74427 12.7572 10.0338 11.6971 10.6445 10.8306C11.3053 9.89308 11.8742 8.93291 12.174 7.74697C12.5885 6.10716 12.3703 4.93542 11.4085 4.33586C10.8286 3.9744 10.42 4.01239 10.0339 4.21369C9.56177 4.45988 9.05328 4.99734 8.49685 5.81397C8.00974 6.52888 7.54901 7.35939 7.07319 8.21711C7.01501 8.32197 6.95656 8.42734 6.89786 8.53285Z" fill="#045762"/>
<path fill-rule="evenodd" clip-rule="evenodd" d="M22.7698 14.9695C23.4487 14.2758 23.483 14.2407 23.913 15.7286C25.6113 21.5919 26.0982 24.758 26.2998 26.0695C26.3091 26.1299 26.3178 26.1863 26.326 26.2389C26.372 26.4929 26.082 26.7589 26.0073 26.5643L24.6304 22.7325C24.3536 21.9659 24.1058 21.2843 23.885 20.6771C23.2825 19.0197 22.8813 17.9161 22.6395 17.1496C22.5578 17.8352 22.3004 18.4893 21.9246 18.9634C22.1304 19.1145 22.3368 19.3252 22.5286 19.5507C23.8574 21.1739 24.0958 23.4289 23.4025 24.3478C22.6514 25.3556 20.8813 25.0862 19.6237 23.2398C18.1884 21.1233 18.4589 18.5893 19.332 18.1793C19.5503 18.0769 19.843 18.1392 20.0923 18.2458C20.3987 18.2038 20.9255 18.298 21.4982 18.6463C22.1792 17.981 22.3306 16.8932 22.3376 16.013L22.3513 15.9086C22.3183 15.4608 22.4629 15.283 22.738 15.002C22.7488 14.991 22.7594 14.9802 22.7698 14.9695ZM23.1628 23.6593C23.4654 23.1697 23.0766 22.1218 22.0136 20.8292C21.6004 20.3481 21.2025 19.9417 20.8638 19.6253C20.0466 19.7374 19.5427 18.8974 19.7289 18.4664C19.7071 18.4706 19.6867 18.4736 19.6671 18.4764C19.6211 18.483 19.5802 18.4889 19.5393 18.5094C19.0741 18.7738 19.3346 20.1936 20.6065 21.9953C21.7897 23.6769 22.7446 24.2972 23.1628 23.6593Z" fill="#045762"/>
<path fill-rule="evenodd" clip-rule="evenodd" d="M26.433 21.6743C24.983 19.5428 25.1521 17.1123 26.0399 16.7174C26.2292 16.6445 26.4193 16.6611 26.6098 16.7374C27.0611 16.5475 28.3194 16.7676 29.3379 17.9852C30.6812 19.5937 30.8891 21.6992 30.2407 22.7527C29.5923 23.8063 27.6906 23.5207 26.433 21.6743ZM30.0011 22.0643C30.3037 21.5746 29.8859 20.5564 28.8229 19.2637C28.1289 18.4071 27.5384 17.6857 27.1117 17.3387L27.0528 17.2785C26.9351 17.1879 26.803 17.1122 26.7003 17.0665C26.5392 17.0203 26.3636 16.9889 26.2472 17.0475C25.7673 17.2969 26.1439 18.6281 27.4158 20.4299C28.5989 22.1115 29.5828 22.7021 30.0011 22.0643Z" fill="#045762"/>
</g>
<defs>
<clipPath id="clip0_177_1410">
<rect width="40" height="40" fill="white"/>
</clipPath>
</defs>
</svg>
