<svg width="256" height="256" viewBox="0 0 256 256" fill="none" xmlns="http://www.w3.org/2000/svg">
<path d="M84.8767 123.278C71.74 123.407 58.9672 126.999 48.9776 148.973C28.292 194.473 93.7083 248.617 169.113 206.66C244.519 164.703 252.651 55.535 190.595 53.91C166.788 53.2867 155.041 59.3596 148.303 68.2296L154.589 74.5778C156.585 71.136 159.615 67.6883 163.458 65.4611C172.022 60.4979 184.119 58.5585 186.071 62.0709C187.254 64.2006 183.593 65.559 178.617 67.4049C175.387 68.6034 171.603 70.0073 168.232 71.9611C164.842 73.9255 161.949 76.9216 159.569 79.6073L217.752 138.366L157.286 200.929L90.8848 133.117C91.2271 134.95 87.7777 136.23 83.2312 137.916C80.001 139.115 76.217 140.519 72.8457 142.473C68.7339 144.856 65.3523 148.757 62.7316 151.78C59.8939 155.054 57.9483 157.299 56.9336 155.473C54.9818 151.96 59.5081 140.936 68.0719 135.973C75.3499 131.755 85.1796 129.721 89.1654 131.361L85.6824 127.804L84.8767 123.278Z" fill="#BAD4C4"/>
<path d="M59.8689 68.3708C57.1559 73.2475 54.2687 78.3207 51.1787 82.1526C47.7184 86.4438 43.4326 88.803 38.8143 88.5422C34.345 88.2898 30.7171 85.6406 28.2982 82.4361C23.5787 76.1836 21.8654 65.653 27.732 57.4831C29.2911 55.312 32.2784 54.8426 34.4044 56.4348C36.5304 58.027 36.99 61.0778 35.4309 63.2489C32.5459 67.2666 33.2196 72.986 35.8596 76.4835C37.1205 78.154 38.4154 78.7548 39.3414 78.8071C40.1183 78.851 41.7001 78.5696 43.8089 75.9545C46.2881 72.8801 48.7871 68.5528 51.5678 63.5545C51.8677 63.0155 52.1706 62.4691 52.4764 61.9176C54.9152 57.5186 57.5427 52.7794 60.347 48.6637C63.4525 44.1059 67.2052 39.6415 71.8351 37.2275C76.9127 34.58 82.5614 34.6484 88.298 38.2242C98.9808 44.8832 98.9751 57.1243 96.5487 66.7216C95.1738 72.1603 92.9883 78.0351 90.0506 83.2761C87.0061 88.7075 84.8993 94.8697 85.7152 101.072L88.8472 124.884L156.018 193.482L210.709 137.629L143.506 68.9995L110.623 63.9113L108.174 66.1703C106.27 67.9259 103.354 67.8502 101.54 65.9982C99.6175 64.0346 99.6668 60.8359 101.649 58.9351L107.283 53.5332L148.039 59.8395L224.211 137.629L156.018 207.271L79.8146 129.448L75.3939 95.8398C74.6702 90.3376 76.1755 84.8249 79.3512 80.3192C82.7874 75.4439 85.7456 70.4511 87.3047 64.2842C89.4604 55.7572 88.3256 49.6642 83.3239 46.5464C80.3086 44.6668 78.184 44.8644 76.1764 45.9112C73.7212 47.1913 71.0771 49.9861 68.1836 54.2326C65.6506 57.9501 63.2548 62.2688 60.7806 66.7289C60.4781 67.2742 60.1741 67.8221 59.8689 68.3708Z" fill="#045762"/>
<path fill-rule="evenodd" clip-rule="evenodd" d="M142.403 101.842C145.933 98.2342 146.112 98.0516 148.348 105.789C157.179 136.278 159.71 152.741 160.759 159.562C160.807 159.875 160.853 160.169 160.895 160.442C161.134 161.763 159.627 163.146 159.238 162.134L152.078 142.209C150.639 138.223 149.35 134.678 148.202 131.521C145.069 122.902 142.983 117.164 141.726 113.178C141.3 116.743 139.962 120.145 138.008 122.61C139.078 123.395 140.151 124.491 141.149 125.664C148.058 134.104 149.298 145.83 145.693 150.608C141.787 155.849 132.583 154.448 126.043 144.847C118.58 133.841 119.986 120.664 124.526 118.533C125.661 118 127.183 118.324 128.48 118.878C130.073 118.66 132.812 119.15 135.791 120.961C139.332 117.501 140.119 111.844 140.156 107.267L140.227 106.725C140.055 104.396 140.807 103.472 142.238 102.01C142.294 101.953 142.349 101.897 142.403 101.842ZM144.447 147.028C146.02 144.482 143.998 139.033 138.471 132.312C136.322 129.81 134.253 127.697 132.492 126.052C128.242 126.634 125.622 122.266 126.59 120.025C126.477 120.047 126.371 120.063 126.269 120.077C126.03 120.111 125.817 120.142 125.605 120.249C123.185 121.624 124.54 129.006 131.154 138.376C137.306 147.12 142.272 150.345 144.447 147.028Z" fill="#045762"/>
<path fill-rule="evenodd" clip-rule="evenodd" d="M161.451 136.707C153.911 125.622 154.791 112.984 159.407 110.931C160.392 110.551 161.38 110.638 162.371 111.035C164.718 110.047 171.261 111.192 176.557 117.523C183.542 125.887 184.623 136.836 181.252 142.314C177.88 147.793 167.991 146.308 161.451 136.707ZM180.005 138.734C181.579 136.188 179.407 130.893 173.879 124.171C170.27 119.717 167.199 115.966 164.981 114.161L164.674 113.848C164.063 113.377 163.375 112.983 162.842 112.746C162.004 112.505 161.091 112.342 160.486 112.647C157.99 113.944 159.948 120.866 166.562 130.235C172.714 138.979 177.831 142.051 180.005 138.734Z" fill="#045762"/>
</svg>
