<svg width="256" height="256" viewBox="0 0 256 256" fill="none" xmlns="http://www.w3.org/2000/svg">
<path d="M100.549 175.937L114.362 153.187H141.174L147.674 163.75L160.3 182.989C143.455 199.187 127.342 210.875 117.612 210.875C106.635 210.875 90.6228 193.482 75.4163 171.062H84.2994L90.7994 189.75L100.549 175.937Z" fill="#BAD4C4"/>
<path d="M187.247 154.039C210.727 126.185 229.227 96.9355 224.862 89C221.804 83.4402 199.534 78.4511 171.165 74.8136L174.487 78.4375L180.987 104.437L172.862 127.187L187.247 154.039Z" fill="#BAD4C4"/>
<path d="M90.0553 68.8616C60.3299 68.2353 36.5525 69.7875 33.1119 74.375C27.6149 81.7043 45.8783 124.158 68.0993 159.8L84.2994 128L81.0494 119.875L77.7994 102.812L81.0494 84.9375L81.9574 82.8944C75.487 82.6529 69.6028 82.5838 64.6476 82.7396C60.4729 82.8708 57.0599 83.1592 54.55 83.609C53.2932 83.8343 52.3533 84.0845 51.6959 84.3342C51.2116 84.5182 51.0074 84.6548 50.9578 84.6879L50.9466 84.6952C49.9172 85.869 49.5938 87.0157 49.6389 88.218C49.6888 89.5484 50.2053 91.1206 51.1939 92.9181C52.8595 95.9464 55.3989 98.8475 57.7008 101.477C58.1957 102.043 58.68 102.596 59.1419 103.135C60.3101 104.498 60.1522 106.549 58.7894 107.718C57.4266 108.886 55.3749 108.728 54.2068 107.365C53.8358 106.932 53.4184 106.457 52.9689 105.945C50.674 103.332 47.543 99.7679 45.4985 96.0506C44.2528 93.7856 43.2459 91.1937 43.1434 88.4616C43.0366 85.6137 43.9248 82.8106 46.1203 80.3408C47.0347 79.312 48.2753 78.6805 49.3876 78.2579C50.5568 77.8138 51.9242 77.4761 53.4032 77.211C56.365 76.6801 60.1376 76.3781 64.4434 76.2428C70.2475 76.0603 77.2071 76.176 84.7977 76.5036L87.5494 70.3125L90.0553 68.8616Z" fill="#BAD4C4"/>
<path d="M82.8429 102.356C82.8429 77.0564 103.476 56.5 128.987 56.5C154.497 56.5 175.131 77.0564 175.131 102.356C175.131 111.045 172.704 119.157 168.487 126.075C167.555 127.605 167.537 129.523 168.44 131.07L189.632 167.364L178.692 166.027C174.456 165.509 170.384 167.921 168.834 171.921L165.389 180.809L147.094 148.772C145.985 146.83 143.697 145.891 141.544 146.495C137.558 147.613 133.347 148.212 128.987 148.212C124.627 148.212 120.416 147.613 116.429 146.495C114.276 145.891 111.989 146.83 110.88 148.772L108.637 152.699C107.25 155.129 108.188 158.225 110.69 159.477C113.005 160.634 115.821 159.781 117.104 157.534L117.528 156.792C121.23 157.559 125.063 157.962 128.987 157.962C132.91 157.962 136.744 157.559 140.446 156.792L160.148 191.292L160.157 191.308C162.956 196.13 170.116 195.59 172.139 190.372L177.81 175.742L194.633 177.797C200.045 178.459 204.009 172.643 201.199 167.836L179.201 130.163C178.63 129.185 178.616 127.983 179.12 126.969C182.808 119.546 184.881 111.187 184.881 102.356C184.881 71.6197 159.83 46.75 128.987 46.75C98.1435 46.75 73.0929 71.6197 73.0929 102.356C73.0929 111.187 75.1655 119.546 78.8537 126.969C79.3577 127.983 79.3435 129.185 78.7724 130.163L56.7734 167.839C53.9659 172.645 57.9299 178.459 63.3404 177.797L80.1639 175.742L85.8349 190.372C87.8576 195.59 95.0171 196.13 97.8169 191.308L97.8257 191.292L105.942 177.08C107.295 174.71 106.439 171.69 104.043 170.383C101.712 169.111 98.7919 169.939 97.4751 172.245L92.5848 180.809L89.1396 171.921C87.5895 167.921 83.5176 165.509 79.2811 166.027L68.3411 167.364L89.5332 131.07C90.4366 129.523 90.4185 127.605 89.4861 126.075C85.2698 119.157 82.8429 111.045 82.8429 102.356Z" fill="#045762"/>
</svg>
