<svg width="40" height="40" viewBox="0 0 40 40" fill="none" xmlns="http://www.w3.org/2000/svg">
<g clip-path="url(#clip0_177_1397)">
<path d="M14.721 29.2187L17.3773 24.8437H22.5335L23.7835 26.875L26.2115 30.5748C22.9722 33.6898 19.8734 35.9375 18.0023 35.9375C15.8913 35.9375 12.8121 32.5926 9.88775 28.2812H11.596L12.846 31.875L14.721 29.2187Z" fill="#BAD4C4"/>
<path d="M31.3936 25.0076C35.909 19.651 39.4666 14.0261 38.6273 12.5C38.0392 11.4308 33.7565 10.4714 28.301 9.77186L28.9398 10.4687L30.1898 15.4687L28.6273 19.8437L31.3936 25.0076Z" fill="#BAD4C4"/>
<path d="M12.7029 8.62725C6.98652 8.5068 2.41394 8.80529 1.75229 9.6875C0.695178 11.097 4.20737 19.2611 8.48064 26.1154L11.596 20L10.971 18.4375L10.346 15.1562L10.971 11.7187L11.1456 11.3259C9.90134 11.2794 8.76978 11.2661 7.81685 11.2961C7.01402 11.3213 6.35767 11.3768 5.875 11.4633C5.63331 11.5066 5.45255 11.5547 5.32613 11.6027C5.233 11.6381 5.19372 11.6644 5.18419 11.6708L5.18204 11.6722C4.98408 11.8979 4.92188 12.1184 4.93055 12.3496C4.94015 12.6055 5.03948 12.9078 5.2296 13.2535C5.5499 13.8359 6.03824 14.3938 6.48092 14.8995C6.57609 15.0082 6.66923 15.1146 6.75806 15.2183C6.9827 15.4803 6.95235 15.8749 6.69027 16.0995C6.42819 16.3242 6.03363 16.2938 5.80899 16.0317C5.73766 15.9485 5.65738 15.8571 5.57093 15.7587C5.12961 15.2562 4.52751 14.5708 4.13433 13.8559C3.89476 13.4203 3.70113 12.9219 3.68143 12.3965C3.66089 11.8488 3.8317 11.3097 4.2539 10.8348C4.42975 10.6369 4.66833 10.5155 4.88223 10.4342C5.10707 10.3488 5.37003 10.2839 5.65447 10.2329C6.22405 10.1308 6.94953 10.0727 7.77757 10.0467C8.89376 10.0116 10.2321 10.0339 11.6919 10.0969L12.221 8.90625L12.7029 8.62725Z" fill="#BAD4C4"/>
<path d="M11.316 15.0685C11.316 10.2032 15.2839 6.25 20.1898 6.25C25.0957 6.25 29.0636 10.2032 29.0636 15.0685C29.0636 16.7394 28.5969 18.2994 27.7861 19.6297C27.6068 19.924 27.6033 20.2928 27.777 20.5904L31.8525 27.57L29.7486 27.3129C28.9339 27.2134 28.1508 27.6772 27.8527 28.4463L27.1902 30.1555L23.6719 23.9945C23.4587 23.6211 23.0188 23.4407 22.6047 23.5567C21.8381 23.7717 21.0283 23.887 20.1898 23.887C19.3514 23.887 18.5416 23.7717 17.7749 23.5567C17.3609 23.4407 16.9209 23.6211 16.7077 23.9945L16.2764 24.7498C16.0096 25.2171 16.19 25.8126 16.6713 26.0532C17.1164 26.2758 17.6578 26.1118 17.9046 25.6796L17.9862 25.5368C18.6981 25.6845 19.4353 25.762 20.1898 25.762C20.9443 25.762 21.6815 25.6845 22.3935 25.5368L26.1823 32.1716L26.184 32.1746C26.7224 33.1019 28.0993 32.9981 28.4882 31.9946L29.5788 29.1811L32.8141 29.5764C33.8548 29.7036 34.6172 28.5852 34.0767 27.6608L29.8464 20.4159C29.7366 20.2278 29.7339 19.9968 29.8308 19.8017C30.5401 18.3743 30.9386 16.7668 30.9386 15.0685C30.9386 9.15764 26.1212 4.375 20.1898 4.375C14.2584 4.375 9.44098 9.15764 9.44098 15.0685C9.44098 16.7668 9.83957 18.3743 10.5488 19.8017C10.6458 19.9968 10.643 20.2278 10.5332 20.4159L6.30262 27.6613C5.76271 28.5855 6.52503 29.7036 7.56552 29.5764L10.8008 29.1811L11.8914 31.9946C12.2804 32.9981 13.6572 33.1019 14.1956 32.1746L14.1973 32.1716L15.7581 29.4385C16.0184 28.9826 15.8537 28.4019 15.3929 28.1506C14.9446 27.906 14.3831 28.0653 14.1299 28.5087L13.1894 30.1555L12.5269 28.4463C12.2288 27.6772 11.4457 27.2134 10.631 27.3129L8.52718 27.57L12.6026 20.5904C12.7763 20.2928 12.7728 19.924 12.5935 19.6297C11.7827 18.2994 11.316 16.7394 11.316 15.0685Z" fill="#045762"/>
</g>
<defs>
<clipPath id="clip0_177_1397">
<rect width="40" height="40" fill="white"/>
</clipPath>
</defs>
</svg>
