<svg width="40" height="40" viewBox="0 0 40 40" fill="none" xmlns="http://www.w3.org/2000/svg">
<path d="M7.07985 13.7676L3.23818 15.3123C-0.464896 16.8013 -1.14857 21.6385 2.00292 24.052L14.7599 33.8219C18.5259 36.7061 23.6606 36.5199 27.1804 33.8138L22.6562 26.1074H21.7188L16.0938 25.6404L11.5625 23.3053L8.125 19.5691L7.81503 17.8485C7.27497 18.0709 6.81475 18.26 6.44996 18.4093C5.29502 18.882 4.76306 19.3072 4.54163 19.6037C4.37174 19.8312 4.37413 19.9859 4.44403 20.1741C4.5405 20.4338 4.78304 20.7523 5.1715 21.1193C5.47977 21.4104 5.81334 21.6728 6.13785 21.928C6.21457 21.9884 6.29079 22.0483 6.36605 22.1082C6.77075 22.4299 6.83701 23.0176 6.51405 23.4208C6.19109 23.8241 5.60121 23.8901 5.19651 23.5683C5.13681 23.5208 5.07175 23.4697 5.0027 23.4155L5.00125 23.4144C4.67481 23.158 4.2581 22.8307 3.88149 22.4749C3.43188 22.0503 2.93404 21.4913 2.68559 20.8224C2.41057 20.082 2.46349 19.257 3.03733 18.4886C3.55964 17.7892 4.46462 17.2023 5.73756 16.6813C6.18349 16.4988 6.77251 16.2566 7.47601 15.9666L7.07985 13.7676Z" fill="#BAD4C4"/>
<path d="M30.6373 8.36574C31.2595 8.10514 31.8331 7.86449 32.3473 7.64826C33.147 7.31199 33.856 7.17445 34.4044 7.21286C34.9288 7.2496 35.266 7.43832 35.4826 7.7458C35.78 8.16806 36.3647 8.27017 36.7885 7.97385C37.2124 7.67754 37.3148 7.09501 37.0174 6.67275C36.41 5.8103 35.4972 5.41671 34.5359 5.34937C33.5984 5.28372 32.5858 5.52036 31.6183 5.92717C31.0696 6.15787 30.4533 6.4164 29.7825 6.69732L28.5654 5.12808L32.3951 3.58813C34.7127 2.6562 37.3777 3.56318 38.6008 5.70017C40.5099 9.03562 40.4625 13.1105 38.4762 16.4026L31.561 27.8638L28.75 22.6826V21.1258L30.4688 18.635L31.875 14.1205L30.6373 8.36574Z" fill="#BAD4C4"/>
<path d="M9.37102 19.2303C6.16331 13.6948 8.06691 6.61673 13.6228 3.42086C19.1787 0.224982 26.283 2.12156 29.4907 7.65697C32.0842 12.1324 31.337 17.6187 28.0162 21.2445C27.5658 21.7363 27.4519 22.4827 27.8072 23.0958L28.4504 24.2057C28.7091 24.6522 29.2804 24.8053 29.7278 24.5479C30.1772 24.2894 30.3311 23.715 30.0712 23.2664L29.8053 22.8077C29.6469 22.5344 29.6832 22.1915 29.8834 21.9471C33.3247 17.7467 33.9982 11.6991 31.1145 6.72293C27.3891 0.294021 19.138 -1.90869 12.6853 1.80305C6.23261 5.51478 4.02175 13.7354 7.74722 20.1643C10.5659 25.0284 15.9736 27.4718 21.2327 26.7679C21.7643 26.6967 22.299 26.9316 22.5679 27.3957L28.3781 37.4221C29.5614 39.4641 32.1822 40.1638 34.2317 38.9848C36.2813 37.8059 36.9835 35.1948 35.8002 33.1528L32.5442 27.5341C32.2855 27.0876 31.7142 26.9345 31.2668 27.1919C30.8174 27.4504 30.6635 28.0248 30.9234 28.4734L34.1764 34.0868C34.8419 35.2353 34.447 36.7039 33.2942 37.367C32.1415 38.0301 30.6674 37.6366 30.0019 36.4881L23.6328 25.4971C23.2775 24.884 22.5717 24.609 21.9191 24.7517C17.1069 25.8042 11.9645 23.7057 9.37102 19.2303Z" fill="#045762"/>
</svg>
