<svg width="256" height="256" viewBox="0 0 256 256" fill="none" xmlns="http://www.w3.org/2000/svg">
<path d="M60.8152 95.5921L40.8385 103.625C21.5825 111.368 18.0274 136.521 34.4152 149.071L100.751 199.875C120.335 214.873 147.035 213.904 165.338 199.832L141.812 159.759H136.938L107.688 157.331L84.125 145.188L66.25 125.76L64.6382 116.813C61.8298 117.97 59.4367 118.953 57.5398 119.729C51.5341 122.187 48.7679 124.398 47.6165 125.94C46.7331 127.123 46.7455 127.927 47.109 128.906C47.6106 130.257 48.8718 131.913 50.8918 133.821C52.4948 135.335 54.2294 136.699 55.9168 138.027C56.3158 138.34 56.7121 138.652 57.1035 138.963C59.2079 140.637 59.5524 143.693 57.8731 145.789C56.1937 147.886 53.1263 148.229 51.0219 146.556C50.7114 146.309 50.3731 146.043 50.0141 145.761L50.0065 145.756C48.309 144.422 46.1421 142.72 44.1837 140.871C41.8458 138.662 39.257 135.756 37.9651 132.277C36.535 128.427 36.8101 124.137 39.7941 120.142C42.5101 116.505 47.216 113.453 53.8353 110.744C56.1541 109.795 59.2171 108.535 62.8753 107.027L60.8152 95.5921Z" fill="#BAD4C4"/>
<path d="M183.314 67.5027C186.549 66.1476 189.532 64.8962 192.206 63.7718C196.365 62.0232 200.051 61.308 202.903 61.5078C205.63 61.6988 207.383 62.6801 208.51 64.279C210.056 66.4748 213.096 67.0057 215.3 65.4649C217.504 63.9241 218.037 60.895 216.491 58.6992C213.332 54.2144 208.585 52.1677 203.586 51.8176C198.712 51.4762 193.446 52.7068 188.415 54.8222C185.562 56.0218 182.357 57.3662 178.869 58.8269L172.54 50.6669L192.454 42.6592C204.506 37.8131 218.364 42.5294 224.724 53.6417C234.652 70.9861 234.405 92.1755 224.076 109.295L188.117 168.893L173.5 141.95V133.855L182.438 120.903L189.75 97.4275L183.314 67.5027Z" fill="#BAD4C4"/>
<path d="M72.7293 123.997C56.0492 95.2132 65.9479 58.407 94.8386 41.7885C123.729 25.1699 160.672 35.0321 177.352 63.8163C190.838 87.0887 186.952 115.617 169.684 134.471C167.342 137.029 166.75 140.91 168.598 144.098L171.942 149.869C173.288 152.192 176.258 152.988 178.584 151.649C180.921 150.305 181.722 147.318 180.37 144.986L178.988 142.6C178.164 141.179 178.353 139.396 179.394 138.125C197.288 116.283 200.79 84.8354 185.796 58.9592C166.423 25.5289 123.518 14.0748 89.9636 33.3758C56.4096 52.6769 44.9131 95.424 64.2855 128.854C78.9426 154.148 107.063 166.853 134.41 163.193C137.175 162.823 139.955 164.044 141.353 166.458L171.566 218.595C177.719 229.213 191.347 232.852 202.005 226.721C212.663 220.591 216.314 207.013 210.161 196.395L193.23 167.178C191.884 164.855 188.914 164.06 186.587 165.398C184.251 166.742 183.45 169.729 184.802 172.062L201.717 201.252C205.178 207.224 203.124 214.86 197.13 218.308C191.136 221.757 183.471 219.71 180.01 213.738L146.89 156.585C145.043 153.397 141.373 151.967 137.979 152.709C112.956 158.182 86.2154 147.27 72.7293 123.997Z" fill="#045762"/>
</svg>
