<svg width="256" height="256" viewBox="0 0 256 256" fill="none" xmlns="http://www.w3.org/2000/svg">
<path d="M188.74 189.786C215.436 158.938 234.102 117.908 231.81 90.6957C227.715 42.087 213.052 24 157.08 24C101.108 24 24 74.5447 24 125.739C24 176.934 61.1844 232 117.156 232C137.079 232 157.864 220.255 176.189 202.935L143.128 216.4L93.0625 213.313L67.0625 184.063L60.8731 147.76L62.764 118.64L67.0625 102.813L92.0731 98.88L92.0731 71.84L102.812 50.8125L124.75 42.6875L143.128 44.8L156.364 57.28L163.928 73.92V98.88L186.619 105.12L197.019 117.6V155.04L188.74 189.786Z" fill="#BAD4C4"/>
<path d="M141.237 142.56C141.237 148.368 138.145 153.382 133.673 155.719V180.567C133.673 183.7 131.133 186.24 128 186.24C124.867 186.24 122.327 183.7 122.327 180.567V155.719C117.856 153.382 114.764 148.368 114.764 142.56C114.764 134.519 120.69 128 128 128C135.311 128 141.237 134.519 141.237 142.56Z" fill="#045762"/>
<path fill-rule="evenodd" clip-rule="evenodd" d="M128.812 37C105.03 37 85.7499 56.2797 85.7499 80.0625V94.72H80.2546C65.8952 94.72 54.2546 106.361 54.2546 120.72L54.2546 156.6C54.2546 192.498 83.3561 221.6 119.255 221.6H138.636C174.535 221.6 203.636 192.498 203.636 156.6V120.72C203.636 106.361 191.996 94.72 177.636 94.72L171.875 94.72V80.0625C171.875 56.2797 152.595 37 128.812 37ZM162.125 93.875V80.0625C162.125 61.6645 147.21 46.75 128.812 46.75C110.414 46.75 95.4999 61.6645 95.4999 80.0625L95.4999 93.875L162.125 93.875ZM177.636 104.47L80.2546 104.47C71.28 104.47 64.0046 111.745 64.0046 120.72L64.0046 156.6C64.0046 187.114 88.7409 211.85 119.255 211.85H138.636C169.15 211.85 193.886 187.114 193.886 156.6V120.72C193.886 111.745 186.611 104.47 177.636 104.47Z" fill="#045762"/>
</svg>
