<svg width="40" height="40" viewBox="0 0 40 40" fill="none" xmlns="http://www.w3.org/2000/svg">
<g clip-path="url(#clip0_177_1404)">
<path d="M31.6807 31.8818C36.8147 25.9496 40.4042 18.0593 39.9634 12.8261C39.1759 3.47826 36.3561 0 25.5923 0C14.8286 0 0 9.72014 0 19.5652C0 29.4103 7.15085 40 17.9146 40C21.746 40 25.7432 37.7414 29.2672 34.4106L22.9092 37L13.2812 36.4063L8.28125 30.7813L7.09099 23.8L7.45462 18.2L8.28125 15.1563L13.091 14.4V9.2L15.1562 5.15625L19.375 3.59375L22.9092 4L25.4546 6.4L26.9092 9.6V14.4L31.2728 15.6L33.2728 18V25.2L31.6807 31.8818Z" fill="#BAD4C4"/>
<path d="M22.5456 22.8C22.5456 23.917 21.951 24.8812 21.091 25.3306V30.1091C21.091 30.7116 20.6025 31.2 20 31.2C19.3976 31.2 18.9091 30.7116 18.9091 30.1091V25.3305C18.0492 24.8811 17.4547 23.9169 17.4547 22.8C17.4547 21.2536 18.5943 20 20.0001 20C21.4059 20 22.5456 21.2536 22.5456 22.8Z" fill="#045762"/>
<path fill-rule="evenodd" clip-rule="evenodd" d="M20.1563 2.5C15.5827 2.5 11.875 6.20764 11.875 10.7812V13.6H10.8182C8.05681 13.6 5.81824 15.8386 5.81824 18.6V25.5C5.81824 32.4036 11.4147 38 18.3182 38H22.0455C28.9491 38 34.5455 32.4036 34.5455 25.5V18.6C34.5455 15.8386 32.3069 13.6 29.5455 13.6H28.4375V10.7812C28.4375 6.20764 24.7299 2.5 20.1563 2.5ZM26.5625 13.4375V10.7812C26.5625 7.24318 23.6943 4.375 20.1563 4.375C16.6182 4.375 13.75 7.24318 13.75 10.7812V13.4375H26.5625ZM29.5455 15.475H10.8182C9.09235 15.475 7.69324 16.8741 7.69324 18.6V25.5C7.69324 31.368 12.4502 36.125 18.3182 36.125H22.0455C27.9135 36.125 32.6705 31.368 32.6705 25.5V18.6C32.6705 16.8741 31.2714 15.475 29.5455 15.475Z" fill="#045762"/>
</g>
<defs>
<clipPath id="clip0_177_1404">
<rect width="40" height="40" fill="white"/>
</clipPath>
</defs>
</svg>
