<svg width="256" height="256" viewBox="0 0 256 256" fill="none" xmlns="http://www.w3.org/2000/svg">
<path d="M34.8256 62.006L28.9189 176.919C27.9319 196.12 43.7381 211.976 62.9422 211.05L185.82 205.121C201.246 204.377 214.018 192.88 216.374 177.617L218.283 165.25L209.888 177.842L195.263 184.342L187.95 194.905H174.95L158.7 189.217V181.092L144.075 177.842L127.825 176.217L118.888 184.342L111.575 194.905H94.5129L82.3254 191.655L79.0754 184.342L72.5754 176.217H61.2004L54.7004 172.155L56.3254 164.03L72.5754 160.78L76.6379 151.842L73.3879 142.905H54.7004L46.0421 137.493C45.9407 139.456 45.8457 141.301 45.7588 142.996C45.6668 144.789 44.1391 146.167 42.3466 146.076C40.554 145.984 39.1754 144.456 39.2673 142.663C40.3489 121.571 42.681 77.1469 43.3351 68.643C43.7848 62.7964 45.8979 57.8411 50.6052 55.2735C55.1206 52.8106 61.0659 53.1054 67.8574 55.2277C78.079 58.422 110.831 65.6992 126.069 68.9645C127.824 69.3405 128.942 71.0682 128.566 72.8233C128.451 73.3579 128.211 73.8334 127.883 74.2255L134.325 74.655L149.763 78.7175L158.7 97.405L183.075 97.405L195.263 99.8425L208.263 114.467L215.575 126.655L220.074 153.646L226.382 112.782C228.989 95.8915 218.07 79.8677 201.396 76.1163L58.5804 43.9826C46.7874 41.3292 35.4461 49.9341 34.8256 62.006Z" fill="#BAD4C4"/>
<path d="M116.011 73.434C99.3616 69.7853 74.7632 64.1958 65.9186 61.4319C59.7101 59.4917 55.9055 59.7865 53.7177 60.9798C51.7219 62.0685 50.1787 64.4257 49.816 69.1416C49.3256 75.5166 47.8664 102.591 46.7174 124.517L48.2004 123.405C63.6379 122.863 94.8379 121.78 96.1379 121.78C97.4379 121.78 105.888 119.613 109.95 118.53L113.2 111.217L109.95 99.8425L104.263 94.9675L70.1379 94.9675L56.3254 90.905V78.7175L61.2004 74.655L97.7629 72.2175L116.011 73.434Z" fill="#BAD4C4"/>
<path d="M66.6848 68.155C57.8224 68.155 50.6379 75.3394 50.6379 84.2018C50.6379 93.0643 57.8224 100.249 66.6848 100.249L101.216 100.249C105.591 100.249 109.138 103.795 109.138 108.171C109.138 112.546 105.591 116.092 101.216 116.092L49.249 116.092C41.0415 116.092 34.3879 122.746 34.3879 130.954C34.3879 139.161 41.0415 145.815 49.249 145.815H67.1456C70.212 145.815 72.6977 148.3 72.6977 151.367C72.6977 154.433 70.212 156.919 67.1456 156.919H62.9991C56.1722 156.919 50.6379 162.453 50.6379 169.28C50.6379 176.107 56.1722 181.641 62.9991 181.641H72.155L72.1593 181.643C72.1777 181.651 72.239 181.681 72.3285 181.764C72.5253 181.948 72.7404 182.283 72.8383 182.704C75.5496 194.367 86.0454 203.03 98.5564 203.03C111.067 203.03 121.563 194.367 124.274 182.704C124.372 182.283 124.588 181.948 124.784 181.764C124.874 181.681 124.935 181.651 124.954 181.643L124.958 181.641L150.709 181.641L150.714 181.643C150.732 181.651 150.793 181.681 150.883 181.764C151.08 181.948 151.295 182.283 151.393 182.704C154.104 194.367 164.6 203.03 177.111 203.03C189.622 203.03 200.118 194.367 202.829 182.704C202.927 182.283 203.142 181.948 203.339 181.764C203.387 181.719 203.428 181.689 203.457 181.67C203.482 181.655 203.5 181.646 203.508 181.643L203.512 181.641H211.513C216.898 181.641 221.263 177.276 221.263 171.891V128.159C221.263 126.01 220.553 123.922 219.244 122.218L199.119 96.0269C197.274 93.6252 194.417 92.2175 191.388 92.2175L174.138 92.2175C171.446 92.2175 169.263 94.4001 169.263 97.0925C169.263 99.7849 171.446 101.967 174.138 101.967L191.388 101.967L211.513 128.159V171.891H203.508C197.921 171.891 194.298 176.341 193.332 180.497C191.634 187.803 185.026 193.28 177.111 193.28C169.195 193.28 162.588 187.803 160.889 180.497C159.923 176.341 156.3 171.891 150.714 171.891L124.953 171.891C119.367 171.891 115.744 176.341 114.778 180.497C113.079 187.803 106.472 193.28 98.5564 193.28C90.6411 193.28 84.0336 187.803 82.3351 180.497C81.369 176.341 77.746 171.891 72.1597 171.891H62.9991C61.557 171.891 60.3879 170.722 60.3879 169.28C60.3879 167.838 61.557 166.669 62.9991 166.669H67.1456C75.5968 166.669 82.4477 159.818 82.4477 151.367C82.4477 142.916 75.5967 136.065 67.1456 136.065H49.249C46.4263 136.065 44.1379 133.776 44.1379 130.954C44.1379 128.131 46.4263 125.842 49.249 125.842L101.216 125.842C110.976 125.842 118.888 117.93 118.888 108.171C118.888 98.4107 110.976 90.4987 101.216 90.4987L66.6848 90.4987C63.2071 90.4987 60.3879 87.6795 60.3879 84.2018C60.3879 80.7242 63.2071 77.905 66.6848 77.905L137.703 77.905C145.78 77.905 152.328 84.4528 152.328 92.53V126.974C152.328 132.359 156.693 136.724 162.078 136.724H193.79C196.482 136.724 198.665 134.542 198.665 131.849C198.665 129.157 196.482 126.974 193.79 126.974L162.078 126.974V92.53C162.078 79.068 151.165 68.155 137.703 68.155L66.6848 68.155Z" fill="#045762"/>
</svg>
