<svg width="40" height="40" viewBox="0 0 40 40" fill="none" xmlns="http://www.w3.org/2000/svg">
<g clip-path="url(#clip0_177_1390)">
<path d="M2.08184 7.30884L0.945933 29.4075C0.756131 33.1 3.7958 36.1492 7.48888 35.9711L31.1193 34.831C34.0858 34.6879 36.5419 32.4769 36.995 29.5417L37.3621 27.1635L35.7477 29.5851L32.9352 30.8351L31.5289 32.8663H29.0289L25.9039 31.7726V30.2101L23.0914 29.5851L19.9664 29.2726L18.2477 30.8351L16.8414 32.8663H13.5602L11.2164 32.2413L10.5914 30.8351L9.34143 29.2726H7.15393L5.90393 28.4913L6.21643 26.9288L9.34143 26.3038L10.1227 24.5851L9.49768 22.8663H5.90393L4.23886 21.8257C4.21936 22.2031 4.2011 22.5578 4.18438 22.8839C4.1667 23.2286 3.87291 23.4937 3.52819 23.4761C3.18346 23.4584 2.91834 23.1646 2.93602 22.8199C3.14403 18.7637 3.59249 10.2206 3.71829 8.5852C3.80478 7.46085 4.21114 6.50791 5.11638 6.01414C5.98473 5.5405 7.12806 5.59719 8.43412 6.00534C10.3998 6.61961 16.6983 8.01908 19.6287 8.64701C19.9662 8.71933 20.1811 9.05158 20.1088 9.38909C20.0868 9.4919 20.0406 9.58334 19.9776 9.65875L21.2164 9.74134L24.1852 10.5226L25.9039 14.1163H30.5914L32.9352 14.5851L35.4352 17.3976L36.8414 19.7413L37.7065 24.9319L38.9196 17.0734C39.421 13.8253 37.3211 10.7438 34.1147 10.0224L6.65007 3.84281C4.38219 3.33254 2.20117 4.98733 2.08184 7.30884Z" fill="#BAD4C4"/>
<path d="M17.6943 9.50654C14.4926 8.80486 9.76216 7.72996 8.06128 7.19844C6.86734 6.82533 6.13567 6.88202 5.71495 7.11151C5.33113 7.32087 5.03437 7.77417 4.96461 8.68107C4.8703 9.90703 4.58969 15.1136 4.36872 19.3302L4.65393 19.1163C7.62268 19.0122 13.6227 18.8038 13.8727 18.8038C14.1227 18.8038 15.7477 18.3872 16.5289 18.1788L17.1539 16.7726L16.5289 14.5851L15.4352 13.6476H8.87268L6.21643 12.8663V10.5226L7.15393 9.74134L14.1852 9.27259L17.6943 9.50654Z" fill="#BAD4C4"/>
<path d="M8.20862 8.49133C6.5043 8.49133 5.12268 9.87295 5.12268 11.5773C5.12268 13.2816 6.5043 14.6632 8.20862 14.6632H14.8492C15.6906 14.6632 16.3727 15.3453 16.3727 16.1866C16.3727 17.028 15.6906 17.7101 14.8492 17.7101H4.85559C3.27721 17.7101 1.99768 18.9896 1.99768 20.568C1.99768 22.1464 3.27721 23.4259 4.85559 23.4259H8.29724C8.88692 23.4259 9.36495 23.9039 9.36495 24.4936C9.36495 25.0833 8.88692 25.5613 8.29724 25.5613H7.49982C6.18696 25.5613 5.12268 26.6256 5.12268 27.9384C5.12268 29.2513 6.18696 30.3156 7.49982 30.3156H9.26058L9.2614 30.3159C9.26493 30.3174 9.27674 30.3232 9.29394 30.3393C9.33179 30.3746 9.37315 30.439 9.39199 30.5201C9.91338 32.7628 11.9318 34.4288 14.3378 34.4288C16.7437 34.4288 18.7622 32.7628 19.2836 30.5201C19.3024 30.439 19.3438 30.3746 19.3816 30.3393C19.3988 30.3232 19.4106 30.3174 19.4141 30.3159L19.415 30.3156H24.3672L24.368 30.3159C24.3715 30.3174 24.3833 30.3232 24.4005 30.3393C24.4384 30.3746 24.4798 30.439 24.4986 30.5201C25.02 32.7628 27.0384 34.4288 29.4444 34.4288C31.8503 34.4288 33.8688 32.7628 34.3902 30.5201C34.409 30.439 34.4504 30.3746 34.4882 30.3393C34.4976 30.3306 34.5053 30.3249 34.511 30.3212C34.5158 30.3182 34.5191 30.3166 34.5208 30.3159L34.5216 30.3156H36.0602C37.0957 30.3156 37.9352 29.4761 37.9352 28.4406V20.0305C37.9352 19.6174 37.7987 19.2158 37.547 18.8881L33.6768 13.8513C33.3219 13.3894 32.7725 13.1187 32.19 13.1187H28.8727C28.3549 13.1187 27.9352 13.5385 27.9352 14.0562C27.9352 14.574 28.3549 14.9937 28.8727 14.9937H32.19L36.0602 20.0305V28.4406H34.5207C33.4464 28.4406 32.7497 29.2963 32.5639 30.0955C32.2372 31.5005 30.9666 32.5538 29.4444 32.5538C27.9222 32.5538 26.6515 31.5005 26.3249 30.0955C26.1391 29.2963 25.4424 28.4406 24.3681 28.4406H19.4141C18.3398 28.4406 17.643 29.2963 17.4573 30.0955C17.1306 31.5005 15.86 32.5538 14.3378 32.5538C12.8156 32.5538 11.5449 31.5005 11.2183 30.0955C11.0325 29.2963 10.3358 28.4406 9.26148 28.4406H7.49982C7.2225 28.4406 6.99768 28.2158 6.99768 27.9384C6.99768 27.6611 7.22249 27.4363 7.49982 27.4363H8.29724C9.92245 27.4363 11.2399 26.1188 11.2399 24.4936C11.2399 22.8684 9.92245 21.5509 8.29724 21.5509H4.85559C4.31274 21.5509 3.87268 21.1108 3.87268 20.568C3.87268 20.0251 4.31274 19.5851 4.85559 19.5851H14.8492C16.7261 19.5851 18.2477 18.0636 18.2477 16.1866C18.2477 14.3097 16.7261 12.7882 14.8492 12.7882H8.20862C7.53984 12.7882 6.99768 12.2461 6.99768 11.5773C6.99768 10.9085 7.53984 10.3663 8.20862 10.3663H21.866C23.4193 10.3663 24.6785 11.6255 24.6785 13.1788V19.8028C24.6785 20.8383 25.518 21.6778 26.5535 21.6778H32.6519C33.1697 21.6778 33.5894 21.258 33.5894 20.7403C33.5894 20.2225 33.1697 19.8028 32.6519 19.8028L26.5535 19.8028V13.1788C26.5535 10.59 24.4548 8.49133 21.866 8.49133H8.20862Z" fill="#045762"/>
</g>
<defs>
<clipPath id="clip0_177_1390">
<rect width="40" height="40" fill="white"/>
</clipPath>
</defs>
</svg>
