<svg width="40" height="40" viewBox="0 0 40 40" fill="none" xmlns="http://www.w3.org/2000/svg">
<g clip-path="url(#clip0_177_1438)">
<path d="M6.35493 21.7848C2.97742 13.1563 0.758501 3.95594 2.46206 2.25238C4.18448 0.529952 12.0207 2.25192 19.5747 5H9.53125L6.40625 9.84375L5.28359 13.6327C4.19001 9.08119 3.89568 5.5341 4.92015 4.50903C6.15499 3.27345 10.3112 3.68469 15.3518 4.97213C15.7149 5.06488 15.8406 4.68842 15.4308 4.56754C10.0015 2.96618 5.2264 2.26159 3.95632 3.53167C2.87952 4.60847 3.45513 8.8434 4.90715 13.9711C4.96771 14.185 5.06639 14.3037 5.15625 14.3332V16.25L6.40625 19.2188L6.35493 21.7848Z" fill="#BAD4C4"/>
<path d="M9.91726 29.7336C12.2257 34.1876 14.6285 37.4871 16.5245 37.8774C20.8993 38.7778 26.8672 37.6706 31.4176 35.1562H18.125V26.4062L17.3438 22.1875L10.625 22.6562L9.91726 29.7336Z" fill="#BAD4C4"/>
<path d="M33.9062 33.5209C34.652 32.9359 35.3236 32.3033 35.8995 31.6274C39.9666 26.8543 38.1713 18.5667 34.8755 13.5269L35.4688 15.7812L33.9062 17.1875V33.5209Z" fill="#BAD4C4"/>
<path fill-rule="evenodd" clip-rule="evenodd" d="M8.1065 4.82497C8.45424 4.17878 9.11733 3.75 9.85114 3.75H30.3133C31.0471 3.75 31.7102 4.17878 32.058 4.82497C32.4045 5.46896 32.8073 6.15847 33.2253 6.87397C34.7225 9.43686 36.4145 12.3332 36.4145 14.6656C36.4145 15.9432 35.8648 17.0923 34.989 17.8896C34.3871 18.4375 33.5938 19.0241 32.0559 19.0241C30.8961 19.0241 29.8427 18.5709 29.0625 17.8334C28.2823 18.5709 27.2289 19.0241 26.0691 19.0241C24.9092 19.0241 23.8559 18.5709 23.0757 17.8334C22.2955 18.5709 21.2421 19.0241 20.0822 19.0241C18.9224 19.0241 17.869 18.5709 17.0888 17.8334C16.3086 18.5709 15.2553 19.0241 14.0954 19.0241C12.9355 19.0241 11.8822 18.5709 11.102 17.8334C10.3218 18.5709 9.26841 19.0241 8.10855 19.0241C7.74364 19.0241 7.3892 18.9793 7.05044 18.8948V33.4814C7.05044 34.0657 7.52417 34.5395 8.10855 34.5395C8.69293 34.5395 9.16667 34.0657 9.16667 33.4814V23.3553C9.16667 21.9746 10.286 20.8553 11.6667 20.8553H16.8092C18.1899 20.8553 19.3092 21.9746 19.3092 23.3553V33.2895C19.3092 33.9798 19.8689 34.5395 20.5592 34.5395H31.864C32.5544 34.5395 33.114 33.9798 33.114 33.2895V23.4375C33.114 22.9197 33.5338 22.5 34.0515 22.5C34.5693 22.5 34.989 22.9197 34.989 23.4375V35.1645C34.989 35.8548 34.4294 36.4145 33.739 36.4145H18.6842C17.9939 36.4145 17.4342 35.8548 17.4342 35.1645V25.2303C17.4342 23.8496 16.3149 22.7303 14.9342 22.7303H13.5417C12.161 22.7303 11.0417 23.8496 11.0417 25.2303V35.1645C11.0417 35.8548 10.482 36.4145 9.79167 36.4145H6.42544C5.73508 36.4145 5.17544 35.8548 5.17544 35.1645V17.8896C4.29968 17.0923 3.75 15.9431 3.75 14.6656C3.75 12.3332 5.44199 9.43685 6.93917 6.87395C7.35715 6.15846 7.75994 5.46895 8.1065 4.82497ZM11.0556 5.625C10.3218 5.625 9.6554 6.05225 9.29492 6.69141C9.0501 7.12553 8.76776 7.60084 8.47064 8.10104C7.18597 10.2638 5.625 12.8917 5.625 14.6656C5.625 16.0372 6.73692 17.1491 8.10855 17.1491C9.04238 17.1491 9.85721 16.6341 10.2822 15.8682L11.102 14.3909L11.9217 15.8682C12.3467 16.6341 13.1616 17.1491 14.0954 17.1491C15.0292 17.1491 15.8441 16.6341 16.2691 15.8682L17.0888 14.3909L17.9086 15.8682C18.3336 16.6341 19.1484 17.1491 20.0822 17.1491C21.0161 17.1491 21.8309 16.6341 22.2559 15.8682L23.0757 14.3909L23.8954 15.8682C24.3204 16.6341 25.1353 17.1491 26.0691 17.1491C27.0029 17.1491 27.8177 16.6341 28.2428 15.8682L29.0625 14.3909L29.8823 15.8682C30.3073 16.6341 31.1221 17.1491 32.0559 17.1491C33.4276 17.1491 34.5395 16.0372 34.5395 14.6656C34.5395 12.8917 32.9785 10.2638 31.6938 8.10105C31.3967 7.60085 31.1144 7.12553 30.8695 6.69141C30.5091 6.05225 29.8426 5.625 29.1088 5.625H11.0556Z" fill="#045762"/>
</g>
<defs>
<clipPath id="clip0_177_1438">
<rect width="40" height="40" fill="white"/>
</clipPath>
</defs>
</svg>
