<svg width="256" height="256" viewBox="0 0 256 256" fill="none" xmlns="http://www.w3.org/2000/svg">
<path d="M57.0456 137.281C39.4826 92.4125 27.9442 44.5709 36.8027 35.7124C45.7593 26.7558 86.5077 35.71 125.788 50L73.5625 50L57.3125 75.1875L51.4747 94.8902C45.788 71.2222 44.2576 52.7773 49.5848 47.4469C56.0059 41.0219 77.6182 43.1604 103.829 49.8551C105.718 50.3374 106.371 48.3798 104.24 47.7512C76.008 39.4242 51.1773 35.7603 44.5729 42.3647C38.9735 47.9641 41.9667 69.9857 49.5172 96.6499C49.8321 97.7619 50.3452 98.3792 50.8125 98.5328L50.8125 108.5L57.3125 123.938L57.0456 137.281Z" fill="#BAD4C4"/>
<path d="M75.5698 178.615C87.5734 201.775 100.068 218.933 109.928 220.962C132.676 225.645 163.71 219.887 187.371 206.813L118.25 206.813L118.25 161.313L114.187 139.375L79.25 141.813L75.5698 178.615Z" fill="#BAD4C4"/>
<path d="M200.312 198.308C204.19 195.267 207.683 191.977 210.678 188.462C231.826 163.642 222.491 120.547 205.353 94.3398L208.437 106.063L200.312 113.375L200.312 198.308Z" fill="#BAD4C4"/>
<path fill-rule="evenodd" clip-rule="evenodd" d="M66.1539 49.0898C67.9622 45.7296 71.4102 43.5 75.226 43.5L181.629 43.5C185.445 43.5 188.893 45.7296 190.702 49.0898C192.504 52.4385 194.598 56.024 196.772 59.7446C204.557 73.0716 213.355 88.1328 213.355 100.261C213.355 106.904 210.497 112.88 205.943 117.026C202.813 119.875 198.688 122.925 190.691 122.925C184.66 122.925 179.182 120.569 175.125 116.734C171.068 120.569 165.591 122.925 159.559 122.925C153.528 122.925 148.051 120.569 143.994 116.734C139.936 120.569 134.459 122.925 128.428 122.925C122.397 122.925 116.919 120.569 112.862 116.734C108.805 120.569 103.327 122.925 97.2962 122.925C91.2649 122.925 85.7875 120.569 81.7304 116.734C77.6733 120.569 72.1959 122.925 66.1646 122.925C64.267 122.925 62.4239 122.692 60.6624 122.253L60.6624 198.103C60.6624 201.142 63.1258 203.605 66.1646 203.605C69.2034 203.605 71.6668 201.142 71.6668 198.103L71.6668 145.447C71.6668 138.268 77.4871 132.447 84.6668 132.447L111.408 132.447C118.588 132.447 124.408 138.268 124.408 145.447L124.408 197.105C124.408 200.695 127.318 203.605 130.908 203.605L189.693 203.605C193.283 203.605 196.193 200.695 196.193 197.105L196.193 145.875C196.193 143.183 198.376 141 201.068 141C203.76 141 205.943 143.183 205.943 145.875L205.943 206.855C205.943 210.445 203.033 213.355 199.443 213.355L121.158 213.355C117.568 213.355 114.658 210.445 114.658 206.855L114.658 155.197C114.658 148.018 108.838 142.197 101.658 142.197H94.4168C87.2371 142.197 81.4168 148.018 81.4168 155.197L81.4168 206.855C81.4168 210.445 78.5066 213.355 74.9168 213.355H57.4124C53.8226 213.355 50.9124 210.445 50.9124 206.855L50.9124 117.026C46.3585 112.88 43.5001 106.904 43.5001 100.261C43.5001 88.1327 52.2985 73.0716 60.0838 59.7445C62.2573 56.0239 64.3518 52.4385 66.1539 49.0898ZM81.4894 53.25C77.6736 53.25 74.2082 55.4716 72.3337 58.7953C71.0606 61.0527 69.5925 63.5243 68.0474 66.1254C61.3672 77.3716 53.2501 91.0366 53.2501 100.261C53.2501 107.393 59.0321 113.175 66.1646 113.175C71.0205 113.175 75.2576 110.497 77.4677 106.515L81.7304 98.8325L85.9931 106.515C88.2032 110.497 92.4403 113.175 97.2962 113.175C102.152 113.175 106.389 110.497 108.599 106.515L112.862 98.8326L117.125 106.515C119.335 110.497 123.572 113.175 128.428 113.175C133.284 113.175 137.521 110.497 139.731 106.515L143.994 98.8326L148.256 106.515C150.466 110.497 154.703 113.175 159.559 113.175C164.415 113.175 168.652 110.497 170.862 106.515L175.125 98.8326L179.388 106.515C181.598 110.497 185.835 113.175 190.691 113.175C197.823 113.175 203.605 107.393 203.605 100.261C203.605 91.0367 195.488 77.3716 188.808 66.1254C187.263 63.5244 185.795 61.0527 184.522 58.7953C182.647 55.4716 179.182 53.25 175.366 53.25L81.4894 53.25Z" fill="#045762"/>
</svg>
