<svg width="40" height="40" viewBox="0 0 40 40" fill="none" xmlns="http://www.w3.org/2000/svg">
<path d="M32.2406 15.8616C32.6451 16.0853 33.4486 16.7188 33.4985 17.1783C34.3788 25.2917 34.0808 33.8053 32.5 35.7813C32.1312 36.2423 31.5143 36.5727 30.702 36.7854C28.9109 37.2544 27.927 34.4937 28.6572 32.7923C29.6703 30.4318 29.6703 28.2692 29.6703 28.2692V17.6951C29.6703 16.4557 31.156 15.2618 32.2406 15.8616Z" fill="#BAD4C4"/>
<path fill-rule="evenodd" clip-rule="evenodd" d="M30.8053 4.83608C31.1632 5.69851 30.0454 5.67692 29.7128 4.80443C29.5749 4.44279 29.4089 4.68752 29.0219 4.68752H25.8334C24.7289 4.68752 23.8334 5.58295 23.8334 6.68752V27.6142C23.8334 27.6142 24.2658 32.6362 18.8613 32.6362C13.0244 32.6362 13.0244 27.6142 13.0244 27.6142C13.0244 23.0725 16.4833 22.0827 18.2127 22.1555H18.5907C19.6953 22.1555 20.5907 21.26 20.5907 20.1555V18.26C20.5907 17.1555 19.6953 16.26 18.5907 16.26H15.8347C10.8625 16.26 7.18746 21.7188 7.18746 28.2692C7.18746 29.4606 5.8943 30.4336 4.90142 29.7751C3.65488 28.9485 2.57209 28.0806 1.7187 27.1875C-5.00005 20.1563 21.5494 -0.391924 27.6431 1.01433C28.8698 1.2974 29.9261 2.71705 30.8053 4.83608ZM13.3249 11.3598C11.62 12.8472 10.574 11.9499 12.2673 10.4493C12.5712 10.18 12.8779 9.91538 13.1864 9.65684C14.8275 8.28138 15.534 9.44708 13.9144 10.8478C13.718 11.0177 13.5214 11.1884 13.3249 11.3598Z" fill="#BAD4C4"/>
<path d="M23.8335 3.75C23.3157 3.75 22.896 4.16973 22.896 4.6875V27.6142C22.896 27.6397 22.897 27.6653 22.8991 27.6907L22.8993 27.6929L22.8998 27.702L22.9007 27.7176C22.9019 27.7425 22.9035 27.7836 22.904 27.8386C22.9051 27.949 22.9017 28.1128 22.8831 28.3118C22.8455 28.715 22.7481 29.2339 22.5198 29.7391C22.2946 30.2374 21.9474 30.712 21.4049 31.0671C20.8636 31.4213 20.0632 31.6987 18.8613 31.6987C16.2748 31.6987 15.1254 30.6191 14.5646 29.6542C14.2664 29.141 14.1133 28.6195 14.036 28.2206C13.9977 28.023 13.9791 27.8608 13.9701 27.7524C13.9656 27.6984 13.9636 27.6582 13.9626 27.6343C13.9622 27.6223 13.962 27.6145 13.9619 27.611L13.9619 27.6103C13.9629 25.6142 14.7058 24.521 15.5305 23.9059C16.4031 23.2552 17.475 23.0627 18.1733 23.0921C18.1865 23.0927 18.1996 23.0929 18.2128 23.0929H20.5908C21.1085 23.0929 21.5283 22.6732 21.5283 22.1554C21.5283 21.6377 21.1085 21.2179 20.5908 21.2179H18.2314C17.2007 21.179 15.6901 21.4479 14.4096 22.4029C13.2445 23.2717 12.3457 24.6533 12.1342 26.6781C12.0805 27.193 12.5066 27.6142 13.0244 27.6142C12.0869 27.6142 12.0869 27.6153 12.0869 27.6153L12.0869 27.6165L12.0869 27.6194L12.087 27.6265C12.087 27.6318 12.0871 27.6384 12.0872 27.6462C12.0874 27.655 12.0877 27.6653 12.088 27.6771C12.0883 27.6862 12.0886 27.6961 12.089 27.7069C12.091 27.7565 12.0946 27.8242 12.1015 27.9075C12.1153 28.0738 12.1423 28.304 12.1952 28.5772C12.3004 29.1199 12.512 29.8539 12.9434 30.5962C13.8419 32.1423 15.6109 33.5737 18.8613 33.5737C20.3616 33.5737 21.534 33.2234 22.4316 32.636C23.328 32.0494 23.8862 31.2685 24.2284 30.5113C24.5675 29.761 24.6998 29.0244 24.75 28.4859C24.7754 28.2141 24.7805 27.9856 24.779 27.8213C24.7782 27.739 24.7758 27.6722 24.7733 27.6236C24.7725 27.6076 24.7717 27.5936 24.771 27.5816V7.625C24.771 6.52043 25.6664 5.625 26.771 5.625H28.562C28.8545 5.625 29.1182 5.79661 29.2516 6.05686C29.5714 6.68061 30.075 7.52015 30.8176 8.40263C32.3095 10.1754 34.7624 12.1139 38.5807 12.8151C39.0899 12.9086 39.5786 12.5716 39.6721 12.0624C39.7656 11.5531 39.4286 11.0645 38.9193 10.9709C35.6036 10.362 33.5167 8.69784 32.2522 7.19533C31.6167 6.44019 31.188 5.72399 30.9201 5.2014C30.7864 4.94056 30.6934 4.72941 30.6354 4.58777C30.6063 4.517 30.5861 4.46376 30.5739 4.43054C30.5678 4.41393 30.5637 4.40235 30.5615 4.3961L30.5603 4.39249L30.5602 4.39217L30.5597 4.39091C30.4321 4.00826 30.074 3.75 29.6704 3.75H23.8335Z" fill="#045762"/>
<path d="M29.6704 28.2692C30.1881 28.2692 30.6079 27.8495 30.6079 27.3317V16.3439C30.6079 16.1761 30.798 16.0772 30.9382 16.1695C32.288 17.0587 34.3596 18.0382 37.309 18.4965C37.8172 18.5755 38.2942 18.2302 38.3779 17.7227L38.8103 15.1025C38.8946 14.5917 38.5488 14.1092 38.0379 14.0249C37.527 13.9406 37.0446 14.2864 36.9603 14.7973C36.8091 15.7136 35.9204 16.329 35.0365 16.044C33.7046 15.6145 32.697 15.0829 31.9696 14.6037C31.4 14.2285 30.9988 13.8832 30.7463 13.6401C30.6201 13.5185 30.531 13.4225 30.4768 13.3611C30.4497 13.3304 30.4313 13.3084 30.4213 13.2962C30.4165 13.2904 30.4136 13.2868 30.4127 13.2855C30.1684 12.9689 29.7499 12.8419 29.3706 12.9699C28.9895 13.0985 28.7329 13.4559 28.7329 13.8582L28.7329 28.2678L28.7329 28.2684L28.7327 28.2837C28.7326 28.2913 28.7323 28.3015 28.732 28.3142C28.7317 28.3257 28.7313 28.3392 28.7308 28.3547C28.7285 28.4201 28.7239 28.5204 28.7143 28.6507C28.6951 28.9116 28.6562 29.2906 28.5775 29.748C28.4195 30.6672 28.1053 31.879 27.486 33.0799C26.8689 34.2766 25.9565 35.4491 24.6014 36.325C23.2507 37.1981 21.4053 37.8125 18.8613 37.8125C13.7283 37.8125 11.1196 35.916 9.74783 33.8855C8.33206 31.7898 8.125 29.3893 8.125 28.2692C8.125 25.1596 8.99897 22.3526 10.4126 20.3486C11.823 18.3493 13.7249 17.1975 15.8348 17.1975H18.1889C18.9976 17.1975 19.6533 17.8531 19.6533 18.6619C19.6533 19.1796 20.073 19.5994 20.5908 19.5994C21.1085 19.5994 21.5283 19.1796 21.5283 18.6619V16.26C21.5283 15.7422 21.1085 15.3225 20.5908 15.3225H15.8348C12.9724 15.3225 10.5507 16.9001 8.88049 19.2678C7.21357 21.6308 6.25 24.8284 6.25 28.2692C6.25 29.551 6.47531 32.3908 8.19416 34.9351C9.95702 37.5445 13.1853 39.6875 18.8613 39.6875C21.7218 39.6875 23.9298 38.9918 25.6192 37.8997C27.3042 36.8105 28.4184 35.3628 29.1525 33.9393C29.8843 32.52 30.2456 31.1117 30.4254 30.0657C30.5157 29.5405 30.5612 29.1007 30.5842 28.7884C30.5957 28.6321 30.6017 28.5073 30.6047 28.4191C30.6062 28.375 30.607 28.3401 30.6074 28.3149C30.6076 28.3023 30.6077 28.2921 30.6078 28.2845L30.6079 28.2749L30.6079 28.2716L30.6079 28.2703C30.6079 28.2703 30.6079 28.2692 29.6704 28.2692Z" fill="#045762"/>
</svg>
