<svg width="256" height="256" viewBox="0 0 256 256" fill="none" xmlns="http://www.w3.org/2000/svg">
<path d="M195.936 108.654C197.052 109.172 197.846 110.219 197.984 111.443C202.815 154.19 201.343 199.634 193 210.062C188.843 215.258 178.626 217.264 165.135 216.761C161.945 216.641 160.718 212.381 162.921 210.07C178.286 193.956 178.286 171 178.286 171L178.286 106.281C178.286 102.98 183.185 100.943 185.875 102.856C188.481 104.711 191.809 106.738 195.936 108.654Z" fill="#BAD4C4"/>
<path fill-rule="evenodd" clip-rule="evenodd" d="M185.945 53.6812C187.169 57.0558 183.622 58.9024 181.824 55.7953C180.633 53.7379 179.781 51.9758 179.211 50.6857C178.61 49.3245 177.281 48.3749 175.793 48.3749H151.382C149.478 48.3749 147.934 49.9187 147.934 51.8231L147.934 167.594C147.934 167.594 150.183 193.708 122.079 193.708C91.7271 193.708 91.7271 167.594 91.7271 167.594C91.7271 143.977 109.713 138.83 118.707 139.208H127.624C129.528 139.208 131.072 137.664 131.072 135.76V112C131.072 110.096 129.528 108.552 127.624 108.552H106.341C80.4856 108.552 61.3752 136.937 61.3752 171C61.3752 173.076 61.4995 175.969 61.965 179.348C62.377 182.339 59.197 184.794 56.5943 183.263C47.0945 177.676 38.9289 171.645 32.9377 165.375C-1.99984 128.812 136.057 21.9618 167.745 29.2743C174.963 30.94 181.046 40.1737 185.945 53.6812ZM62.2162 111.507C59.4132 114.22 56.4301 111.918 58.8309 108.843C73.4681 90.0979 97.8326 67.086 118.349 56.334C121.619 54.6203 123.4 58.0033 120.51 60.301C102.198 74.862 79.3944 94.8814 62.2162 111.507Z" fill="#BAD4C4"/>
<path d="M147.934 43.4999C145.242 43.4999 143.059 45.6825 143.059 48.3749L143.059 167.594C143.059 167.726 143.065 167.859 143.075 167.992L143.076 168.003L143.079 168.05L143.084 168.131C143.09 168.261 143.098 168.475 143.101 168.761C143.106 169.334 143.089 170.186 142.992 171.221C142.797 173.318 142.29 176.016 141.103 178.643C139.932 181.235 138.127 183.702 135.306 185.549C132.491 187.391 128.329 188.833 122.079 188.833C108.629 188.833 102.652 183.219 99.7359 178.201C98.1852 175.533 97.389 172.821 96.9872 170.747C96.7881 169.719 96.6913 168.876 96.6445 168.312C96.6212 168.031 96.6105 167.823 96.6057 167.698C96.6033 167.636 96.6023 167.595 96.602 167.577L96.6019 167.574C96.6069 157.194 100.47 151.509 104.759 148.311C109.296 144.927 114.87 143.926 118.501 144.079C118.57 144.082 118.638 144.083 118.706 144.083L131.072 144.083C133.764 144.083 135.947 141.901 135.947 139.208C135.947 136.516 133.764 134.333 131.072 134.333L118.803 134.333C113.443 134.131 105.589 135.529 98.9299 140.495C92.6026 145.213 87.7856 152.84 86.9731 164.147C86.8366 166.046 88.3957 167.594 90.3001 167.594H91.7269C86.8519 167.594 86.8519 167.599 86.8519 167.599L86.8519 167.606L86.852 167.621L86.8522 167.658C86.8525 167.685 86.8529 167.719 86.8537 167.76C86.8546 167.806 86.8558 167.859 86.8576 167.921C86.8591 167.968 86.8608 168.02 86.863 168.076C86.873 168.334 86.8919 168.686 86.9279 169.119C86.9997 169.984 87.14 171.181 87.4151 172.601C87.9618 175.423 89.0626 179.24 91.3059 183.1C95.9778 191.14 105.177 198.583 122.079 198.583C129.88 198.583 135.977 196.761 140.644 193.707C145.306 190.657 148.208 186.596 149.988 182.659C151.751 178.757 152.439 174.927 152.7 172.127C152.832 170.713 152.858 169.525 152.851 168.671C152.847 168.243 152.834 167.895 152.821 167.642C152.817 167.559 152.813 167.486 152.809 167.424L152.809 56.698C152.809 54.7937 154.353 53.2499 156.257 53.2499L172.804 53.2499C174.153 53.2499 175.371 54.0411 175.981 55.2449C176.023 55.3277 176.065 55.4113 176.108 55.4955C177.771 58.739 180.39 63.1046 184.252 67.6935C192.009 76.9118 204.765 86.9923 224.619 90.6384C227.268 91.1248 229.809 89.3723 230.295 86.7242C230.781 84.0761 229.029 81.5351 226.381 81.0488C209.139 77.8825 198.287 69.2286 191.712 61.4156C188.407 57.4889 186.178 53.7646 184.784 51.0472C184.089 49.6908 183.606 48.5928 183.304 47.8563C183.153 47.4883 183.048 47.2114 182.984 47.0387C182.953 46.9523 182.931 46.8921 182.92 46.8596L182.913 46.8408L182.913 46.8392L182.911 46.8326C182.247 44.8428 180.385 43.4999 178.286 43.4999L147.934 43.4999Z" fill="#045762"/>
<path d="M179.713 171C181.617 171 183.161 169.456 183.161 167.552L183.161 108.988C183.161 108.115 184.149 107.601 184.878 108.081C191.898 112.705 202.67 117.798 218.007 120.182C220.649 120.592 223.13 118.797 223.565 116.158L225.813 102.533C226.252 99.8767 224.454 97.3678 221.797 96.9295C219.141 96.4911 216.632 98.2893 216.193 100.946L215.337 106.135C215.018 108.07 213.146 109.356 211.244 108.877C201.754 106.483 194.895 103.004 190.242 99.9391C187.28 97.988 185.194 96.1924 183.881 94.9282C183.224 94.296 182.761 93.7967 182.479 93.4775C182.338 93.3179 182.243 93.2034 182.191 93.1399C182.166 93.1097 182.151 93.0911 182.146 93.0847C180.876 91.4381 178.7 90.7777 176.727 91.4432C174.745 92.112 173.411 93.9706 173.411 96.0623L173.411 170.992L173.411 170.996L173.41 171.075C173.409 171.115 173.408 171.168 173.406 171.234C173.405 171.294 173.403 171.364 173.4 171.444C173.388 171.784 173.364 172.306 173.314 172.983C173.214 174.34 173.012 176.311 172.603 178.69C171.782 183.469 170.147 189.771 166.927 196.016C163.718 202.238 158.974 208.335 151.927 212.89C144.904 217.43 135.308 220.625 122.079 220.625C95.387 220.625 81.8219 210.763 74.6887 200.204C67.3267 189.307 66.25 176.824 66.25 171C66.25 154.83 70.7947 140.233 78.1457 129.813C85.4797 119.416 95.3696 113.427 106.341 113.427H122.749C124.653 113.427 126.197 114.971 126.197 116.875V121.042C126.197 123.734 128.38 125.917 131.072 125.917C133.764 125.917 135.947 123.734 135.947 121.042L135.947 108.552C135.947 105.86 133.764 103.677 131.072 103.677L106.341 103.677C91.4566 103.677 78.8637 111.88 70.1786 124.192C61.5106 136.48 56.5 153.108 56.5 171C56.5 177.665 57.6716 192.432 66.6096 205.662C75.7765 219.231 92.5633 230.375 122.079 230.375C136.953 230.375 148.435 226.757 157.22 221.078C165.982 215.415 171.776 207.886 175.593 200.484C179.399 193.104 181.277 185.781 182.212 180.341C182.682 177.61 182.918 175.324 183.038 173.7C183.098 172.887 183.129 172.238 183.144 171.779C183.152 171.55 183.156 171.368 183.159 171.237C183.16 171.172 183.16 171.119 183.161 171.079L183.161 171.03L183.161 171.012L183.161 171.005C183.161 171.005 183.161 171 178.286 171H179.713Z" fill="#045762"/>
</svg>
