<svg width="256" height="256" viewBox="0 0 256 256" fill="none" xmlns="http://www.w3.org/2000/svg">
<path d="M42.5066 177.235C32.8552 162.359 27.25 144.616 27.25 125.563C27.25 73.0609 69.8109 30.5 122.312 30.5C174.814 30.5 217.375 73.0609 217.375 125.563C217.375 137.502 215.174 148.927 211.156 159.454L194.625 115.813L197.062 109.313L208.437 105.25V96.3125L204.375 90.625L158.062 88.1875L166.188 71.9375V62.1875L164.938 58.1878C166.557 58.9861 168.162 59.8416 169.75 60.755C170.135 60.9769 170.528 61.2142 170.927 61.4652C172.471 62.438 174.496 60.4101 173.125 59.2043C170.179 56.6126 167.22 54.3419 164.451 52.7488C163.962 52.4674 163.472 52.1915 162.979 51.9211L162.125 49.1875L155.625 46.75L153.864 47.6004C115.763 32.2707 71.1992 46.9726 50.1095 83.6228C37.3917 105.724 35.8641 131.196 43.7604 153.47C43.9972 154.138 44.2788 154.851 44.5961 155.598C45.2039 157.029 47.3107 156.001 46.9199 154.496C41.5959 133.989 44.0003 111.453 55.4078 91.629C74.0703 59.1966 111.115 43.9515 145.796 51.4949L132.062 58.125C129.896 54.6042 122.8 49.1875 111.75 55.6875C100.7 62.1875 107.146 70.8542 111.75 74.375L114.187 88.1875L69.5 90.625L63.8125 94.6875V103.625L73.5625 109.313V117.438L57.3125 141.812L42.6875 175.125L42.5066 177.235Z" fill="#BAD4C4"/>
<path fill-rule="evenodd" clip-rule="evenodd" d="M150.75 43.5C143.494 43.5 135.873 47.6178 131.713 54.0582C129.575 57.3689 128.301 61.3746 128.549 65.7878C128.798 70.2041 130.551 74.6846 133.902 78.993C135.555 81.1182 138.618 81.5011 140.743 79.8481C142.868 78.1951 143.251 75.1323 141.598 73.0071C139.262 70.003 138.404 67.3741 138.284 65.2395C138.163 63.102 138.762 61.1155 139.903 59.3481C142.303 55.6322 146.87 53.25 150.75 53.25C155.577 53.25 158.561 54.442 160.389 56.3C162.233 58.1745 163.75 61.588 163.75 67.875C163.75 72.1276 160.164 76.1364 154.813 79.5835C152.339 81.1776 149.873 82.4 148.055 83.2475C147.691 83.4175 147.27 83.6097 146.881 83.7869C146.456 83.9809 146.071 84.1569 145.842 84.2659L145.814 84.2792C145.642 84.3607 145.092 84.6208 144.621 84.9605C144.488 85.0558 144.082 85.3515 143.68 85.8344L143.675 85.8412C143.483 86.0712 141.935 87.9274 142.789 90.5106C143.633 93.0591 145.94 93.6434 146.227 93.716L146.237 93.7186C146.838 93.872 147.335 93.875 147.5 93.875L199.327 93.875C202.007 93.875 204.183 96.0449 204.183 98.75C204.183 101.442 202 103.625 199.307 103.625H196.058C194.924 103.625 193.607 103.91 192.406 104.768C191.218 105.617 190.543 106.742 190.178 107.733C189.526 109.501 189.657 111.381 189.835 112.695C190.221 115.529 191.388 119.227 192.826 123.204C194.435 127.653 196.65 133.143 199.043 139.072C200.924 143.732 202.914 148.664 204.805 153.573C209.212 165.018 213.277 176.813 215.189 186.934C216.144 191.991 216.518 196.417 216.217 200.05C215.94 203.381 215.275 205.226 214.125 206.813C213.883 207.147 213.538 207.48 213.194 207.591C212.023 207.969 210.284 208.399 207.969 208.856C203.367 209.765 196.953 210.696 189.256 211.574C173.888 213.325 153.732 214.827 133.431 215.538C113.105 216.25 92.7899 216.164 77.0524 214.779C69.1598 214.084 62.6169 213.079 57.8634 211.757C55.483 211.096 53.728 210.402 52.5323 209.734C51.7137 209.277 50.7062 208.118 50 206C41.6404 180.932 52.0487 159.935 63.2005 141.735C68.3875 133.269 73.8531 126.23 77.9378 120.97C78.2501 120.568 78.5543 120.176 78.8497 119.795C80.8299 117.239 82.6617 114.851 83.6761 113.07C83.9482 112.592 84.237 112.031 84.4621 111.427C84.6633 110.887 84.9617 109.931 84.899 108.783C84.8249 107.428 84.2208 105.787 82.659 104.672C81.3448 103.733 79.9684 103.625 79.25 103.625H72.7504C70.0578 103.625 67.8751 101.442 67.8751 98.75C67.8751 96.0462 70.0516 93.875 72.7325 93.875L121.5 93.875L121.503 93.8751C121.543 93.8756 121.982 93.881 122.475 93.7918C122.632 93.7632 122.942 93.7002 123.313 93.5626C123.592 93.4591 124.444 93.1254 125.215 92.2851C126.234 91.1756 126.811 89.4802 126.331 87.7082C125.971 86.3798 125.165 85.6102 124.905 85.3738C124.348 84.8658 123.789 84.6059 123.692 84.5608L123.682 84.5563C123.499 84.4696 123.345 84.4104 123.272 84.3829C123.12 84.3258 122.976 84.279 122.913 84.2586C122.853 84.2389 122.793 84.2198 122.733 84.2006C122.483 84.1204 122.227 84.0385 121.877 83.9064C121.031 83.5866 119.812 83.0301 118.571 82.0807C116.275 80.3247 113.375 76.8582 113.375 69.5C113.375 65.7857 114.211 63.4955 115.136 62.0628C115.18 61.9942 115.228 61.9253 115.279 61.8565C116.759 59.874 117.857 57.4103 116.842 55.1545C115.658 52.5228 112.436 51.4984 110.211 53.3365C108.955 54.3738 107.719 55.5734 106.943 56.7771C104.82 60.067 103.625 64.2768 103.625 69.5C103.625 75.7797 105.198 80.55 107.448 84.125L72.7325 84.125C64.644 84.125 58.1251 90.6843 58.1251 98.75C58.1251 106.416 64.0229 112.704 71.528 113.325L71.1426 113.823C70.8438 114.208 70.5334 114.608 70.2126 115.021C66.1368 120.268 60.3673 127.697 54.887 136.641C43.1268 155.834 32.0503 183.052 42.1391 212.457L42.2501 212.781L42.4052 213.085C43.6128 215.459 45.7125 217.092 47.7756 218.245C49.8975 219.431 52.4603 220.375 55.2525 221.151C60.8443 222.706 68.0666 223.776 76.1975 224.491C92.5072 225.927 113.273 226 133.772 225.282C154.295 224.563 174.708 223.045 190.361 221.261C198.174 220.37 204.884 219.404 209.859 218.421C212.332 217.933 214.494 217.417 216.191 216.869C217.035 216.596 217.88 216.279 218.637 215.899C219.237 215.597 220.316 215.001 221.162 213.945C224.196 210.292 225.536 205.649 225.933 200.857C226.334 196.023 225.813 190.649 224.769 185.125C222.684 174.084 218.342 161.596 213.903 150.069C211.861 144.767 209.834 139.751 207.96 135.112C205.657 129.413 203.584 124.282 201.995 119.889C201.017 117.182 200.321 115.01 199.903 113.363C207.703 113.051 213.933 106.628 213.933 98.75C213.933 90.6856 207.417 84.125 199.327 84.125L165.011 84.125C169.405 80.3175 173.5 74.9318 173.5 67.875C173.5 60.1776 171.648 53.8411 167.339 49.4617C163.013 45.0658 157.06 43.5 150.75 43.5ZM149.89 93.14C149.886 93.142 149.885 93.1427 149.885 93.1427C149.885 93.1427 149.9 93.1357 149.922 93.1235C149.906 93.1316 149.896 93.137 149.89 93.14Z" fill="#045762"/>
</svg>
