<svg width="40" height="40" viewBox="0 0 40 40" fill="none" xmlns="http://www.w3.org/2000/svg">
<path d="M5.37594 4.32018C1.82698 4.87292 -0.553167 8.15748 0.111344 11.5852L4.13211 32.3256L5.88898 25.0576C5.04407 23.1268 4.57564 20.9962 4.57564 18.7571C4.57564 10.0098 11.7243 2.91882 20.5426 2.91882C29.3609 2.91882 36.5096 10.0098 36.5096 18.7571C36.5096 27.5043 29.3609 34.5953 20.5426 34.5953C18.3329 34.5953 16.228 34.1501 14.3141 33.345L4.72944 35.338C5.45784 38.1086 8.06396 40.057 11.0458 39.9987L27.1207 39.6846C30.0359 39.6277 32.5413 37.662 33.2091 34.9078L39.8259 7.61958C40.8669 3.32651 37.0844 -0.618052 32.5968 0.0808231L5.37594 4.32018Z" fill="#BAD4C4"/>
<path d="M15.2038 8.95373C13.9082 8.88242 11.5568 9.19511 10.7298 11.5258C10.1963 13.0292 9.95306 14.5653 10.1357 16.0678C10.2028 16.6192 10.792 16.9068 11.3024 16.6877C11.6998 16.5172 11.9149 16.0902 11.8762 15.6595C11.7736 14.5192 11.9687 13.3222 12.4072 12.0863C12.8266 10.9046 14.0231 10.6131 15.1033 10.6725C15.4842 10.6935 15.832 10.9676 16.0106 11.3941L17.2482 14.3507C17.4481 14.8283 17.3617 15.3739 17.0237 15.7708L16.4621 16.4303C15.9191 17.0678 15.7868 17.9729 16.2367 18.7117C16.7825 19.608 17.6282 20.7986 18.6649 21.7602C19.7911 22.8049 21.4269 23.5325 22.6158 23.9419C23.4428 24.2268 24.3235 23.9286 24.8624 23.3001L25.4969 22.5603C25.8462 22.1529 26.3841 21.983 26.8705 22.1288C28.0225 22.4743 29.4605 23.041 30.3564 23.7664C30.5711 23.9403 30.6819 24.2105 30.6496 24.4858C30.4385 26.2824 28.8876 27.5321 27.0411 27.865C26.9455 27.8823 26.8418 27.8856 26.7352 27.876C19.604 27.2332 15.1337 21.8566 13.3476 19.2477C13.1026 18.8898 12.6419 18.7482 12.2434 18.9192C11.746 19.1327 11.5525 19.7362 11.8579 20.1831C13.7479 22.9493 18.6251 28.8739 26.5711 29.5902C26.8177 29.6124 27.0875 29.6077 27.3652 29.5576C29.7441 29.1287 32.0886 27.436 32.4123 24.6808C32.511 23.8408 32.1748 22.9967 31.493 22.4447C30.3161 21.4916 28.5964 20.8445 27.3943 20.484C26.1495 20.1108 24.8893 20.5774 24.1332 21.4591L23.4987 22.1989C23.3778 22.3399 23.2548 22.3353 23.2092 22.3196C22.1018 21.9382 20.7465 21.3095 19.8908 20.5158C19.0145 19.703 18.2643 18.6573 17.764 17.8358C17.7349 17.7881 17.7101 17.6673 17.8296 17.527L18.3912 16.8675C19.1451 15.9824 19.3372 14.7667 18.8919 13.7028L17.6543 10.7462C17.2976 9.89428 16.4583 9.02278 15.2038 8.95373Z" fill="#045762"/>
<path d="M6.68513 25.4306L6.41467 24.8276C5.6008 23.0128 5.14885 21.0101 5.14885 18.9004C5.14885 10.6553 12.0786 3.95172 20.6518 3.95172C29.2251 3.95172 36.1548 10.6553 36.1548 18.9004C36.1548 26.7492 29.8752 33.2012 21.876 33.8032C21.3399 33.8435 20.9072 34.2785 20.9072 34.8161C20.9072 35.3597 21.3487 35.8032 21.8916 35.7747C31.1549 35.2888 38.2838 27.9782 38.2838 18.9004C38.2838 9.50353 30.3897 1.88586 20.6518 1.88586C10.914 1.88586 3.01991 9.50353 3.01991 18.9004C3.01991 21.2992 3.53435 23.5821 4.46257 25.6519L2.09192 36.6612L13.643 34.5176C14.4466 34.8539 15.2814 35.1342 16.1419 35.3533C16.7136 35.4988 17.2699 35.1022 17.3568 34.5186C17.4384 33.9711 17.0746 33.4595 16.5395 33.318C15.8332 33.1312 15.1475 32.8975 14.486 32.6206L13.8855 32.3693L4.82912 34.0499L6.68513 25.4306Z" fill="#045762"/>
</svg>
