<svg width="256" height="256" viewBox="0 0 256 256" fill="none" xmlns="http://www.w3.org/2000/svg">
<path d="M51.9549 46.465C33.5003 49.3392 21.1235 66.4189 24.579 84.2433L45.487 192.093L54.6227 154.3C50.2292 144.259 47.7933 133.18 47.7933 121.537C47.7933 76.0511 84.9664 39.1779 130.822 39.1779C176.677 39.1779 213.85 76.0511 213.85 121.537C213.85 167.022 176.677 203.896 130.822 203.896C119.331 203.896 108.385 201.58 98.4333 197.394L48.5931 207.758C52.3808 222.165 65.9326 232.296 81.438 231.993L165.028 230.36C180.187 230.064 193.215 219.843 196.688 205.521L231.095 63.6218C236.508 41.2978 216.839 20.7861 193.504 24.4203L51.9549 46.465Z" fill="#BAD4C4"/>
<path d="M103.06 70.5592C96.3226 70.1883 84.0955 71.8143 79.7947 83.9342C77.0207 91.7517 75.7558 99.7394 76.7057 107.552C77.0543 110.419 80.1181 111.915 82.7722 110.776C84.8387 109.889 85.9573 107.669 85.7559 105.429C85.2228 99.4995 86.2371 93.2751 88.5175 86.8488C90.698 80.7039 96.9199 79.1877 102.537 79.4969C104.518 79.6059 106.326 81.0311 107.255 83.2492L113.691 98.6232C114.73 101.107 114.281 103.944 112.523 106.008L109.603 109.437C106.779 112.752 106.091 117.459 108.43 121.3C111.269 125.961 115.666 132.152 121.057 137.153C126.914 142.585 135.42 146.369 141.602 148.498C145.902 149.979 150.482 148.428 153.284 145.16L156.584 141.313C158.4 139.195 161.197 138.311 163.727 139.07C169.717 140.866 177.195 143.813 181.853 147.585C182.97 148.489 183.546 149.894 183.378 151.326C182.28 160.668 174.215 167.167 164.614 168.898C164.117 168.987 163.577 169.005 163.023 168.955C125.941 165.612 102.695 137.654 93.4073 124.088C92.1332 122.227 89.738 121.49 87.6655 122.38C85.0789 123.49 84.0729 126.628 85.6608 128.952C95.489 143.336 120.851 174.144 162.17 177.869C163.452 177.984 164.855 177.96 166.299 177.699C178.669 175.469 190.86 166.667 192.544 152.34C193.057 147.972 191.309 143.583 187.764 140.712C181.643 135.756 172.701 132.391 166.45 130.517C159.977 128.576 153.424 131.002 149.492 135.587L146.193 139.434C145.565 140.167 144.925 140.143 144.688 140.061C138.929 138.078 131.882 134.809 127.432 130.682C122.875 126.455 118.974 121.018 116.373 116.746C116.221 116.498 116.093 115.87 116.714 115.14L119.634 111.711C123.554 107.108 124.553 100.786 122.238 95.2541L115.802 79.8801C113.948 75.45 109.583 70.9182 103.06 70.5592Z" fill="#045762"/>
<path d="M58.7626 156.24L57.3562 153.104C53.1241 143.667 50.774 133.253 50.774 122.282C50.774 79.4078 86.8085 44.5492 131.389 44.5492C175.97 44.5492 212.005 79.4078 212.005 122.282C212.005 163.096 179.351 196.646 137.755 199.777C134.967 199.987 132.718 202.249 132.718 205.044C132.718 207.871 135.013 210.177 137.836 210.029C186.006 207.502 223.075 169.487 223.075 122.282C223.075 73.4186 182.026 33.8067 131.389 33.8067C80.7527 33.8067 39.7035 73.4186 39.7035 122.282C39.7035 134.756 42.3786 146.627 47.2053 157.39L34.8779 214.638L94.9433 203.492C99.1225 205.241 103.463 206.698 107.938 207.837C110.911 208.594 113.804 206.532 114.256 203.497C114.679 200.65 112.788 197.99 110.005 197.254C106.333 196.282 102.767 195.067 99.3273 193.628L96.2044 192.321L49.1114 201.06L58.7626 156.24Z" fill="#045762"/>
</svg>
