<svg width="256" height="256" viewBox="0 0 256 256" fill="none" xmlns="http://www.w3.org/2000/svg">
<path d="M208.977 129.411C208.977 177.105 171.57 215.769 125.426 215.769C79.2821 215.769 41.875 177.105 41.875 129.411C41.875 114.267 45.6467 100.033 52.2721 87.6582L49.7302 96.1968L49.7302 120.554L52.3121 123.925C51.6 134.434 53.0172 144.941 56.3861 154.763C56.5942 155.37 56.8417 156.018 57.1206 156.697C57.6548 157.997 59.5065 157.063 59.163 155.696C57.0808 147.406 56.3436 138.751 57.0501 130.111L63.2983 138.269L123.284 199.531L193.267 127.935C197.677 120.602 204.065 105.348 201.304 93.2119C206.229 104.222 208.977 116.485 208.977 129.411Z" fill="#BAD4C4"/>
<path d="M195.981 83.1347C185.192 69.5783 173.993 58.2396 153.909 58.9059C134.042 50.3791 112.095 51.5239 93.6068 60.7951L84.0076 59.2918L72.5818 65.1966L63.4624 71.4804C78.7506 54.0216 100.849 43.0536 125.426 43.0536C155.098 43.0536 181.157 59.0402 195.981 83.1347Z" fill="#BAD4C4"/>
<path d="M108.769 63.7907L126.14 75.53C125.746 71.8629 128.355 64.7543 140.292 61.0771C129.642 59.5952 118.88 60.5708 108.769 63.7907Z" fill="#BAD4C4"/>
<path d="M183.269 38.625C181.77 55.6751 169.773 68.0752 153.277 69.6252C169.773 71.1753 181.77 83.5753 183.269 100.625C184.769 83.5753 196.766 71.1753 213.262 69.6252C196.766 68.0752 184.769 55.6751 183.269 38.625Z" fill="#045762"/>
<path d="M194.507 90.3298C193.825 88.4668 194.01 86.3329 195.111 84.6979C196.906 82.0313 200.417 82.5517 201.593 85.5641C208.417 103.037 204.796 123.669 191.06 137.866L124.712 206.443L58.3644 137.866C40.0429 118.929 40.0429 88.2261 58.3644 69.2891C76.6859 50.3521 106.391 50.3521 124.713 69.2891C135.677 57.9561 147.243 52.9763 160.665 55.1073C163.533 55.5628 164.189 59.9736 162.618 62.4966C161.863 63.7102 161.114 63.6726 159.922 63.6128C159.673 63.6003 159.405 63.5869 159.114 63.5836C149.009 63.471 138.415 67.652 130.772 75.5521L124.712 81.815L118.653 75.5521C103.678 60.074 79.3988 60.074 64.4239 75.5521C49.4489 91.0301 49.4489 116.125 64.4239 131.603L124.712 193.917L185.001 131.603C196.039 120.194 199.647 104.377 194.507 90.3298Z" fill="#045762"/>
</svg>
