<svg width="40" height="40" viewBox="0 0 40 40" fill="none" xmlns="http://www.w3.org/2000/svg">
<g clip-path="url(#clip0_177_1349)">
<path d="M35.5725 20.2714C35.5725 29.4433 28.3788 36.8787 19.505 36.8787C10.6312 36.8787 3.4375 29.4433 3.4375 20.2714C3.4375 17.359 4.16282 14.6217 5.43694 12.2419L4.94812 13.884V18.5681L5.44464 19.2163C5.30769 21.2373 5.58022 23.2578 6.2281 25.1467C6.26811 25.2634 6.31572 25.3881 6.36934 25.5186C6.47208 25.7686 6.82817 25.589 6.76212 25.3261C6.36169 23.7319 6.21992 22.0675 6.35578 20.4059L7.55737 21.9747L19.093 33.7559L32.5513 19.9875C33.3994 18.5772 34.6279 15.6439 34.097 13.3099C35.0441 15.4272 35.5725 17.7855 35.5725 20.2714Z" fill="#BAD4C4"/>
<path d="M33.0732 11.372C30.9985 8.76503 28.8447 6.58452 24.9824 6.71265C21.1619 5.07287 16.9414 5.29303 13.3859 7.07595L11.5399 6.78685L9.34265 7.92239L7.58892 9.13082C10.529 5.77337 14.7787 3.66412 19.505 3.66412C25.2111 3.66412 30.2225 6.73848 33.0732 11.372Z" fill="#BAD4C4"/>
<path d="M16.3018 7.65203L19.6423 9.90959C19.5665 9.20438 20.0682 7.83734 22.3639 7.13018C20.3158 6.84521 18.2462 7.03281 16.3018 7.65203Z" fill="#BAD4C4"/>
<path d="M30.6286 2.8125C30.3402 6.09137 28.0331 8.47601 24.8608 8.77409C28.0331 9.07216 30.3402 11.4568 30.6286 14.7357C30.917 11.4568 33.2242 9.07216 36.3965 8.77409C33.2242 8.47601 30.917 6.09137 30.6286 2.8125Z" fill="#045762"/>
<path d="M32.7898 12.7557C32.6587 12.3975 32.6942 11.9871 32.9059 11.6727C33.2511 11.1599 33.9262 11.2599 34.1524 11.8392C35.4647 15.1994 34.7684 19.1672 32.1269 21.8974L19.3676 35.0853L6.60847 21.8973C3.0851 18.2556 3.0851 12.3512 6.60847 8.70944C10.1318 5.0677 15.8443 5.0677 19.3677 8.70944C21.4763 6.53002 23.7005 5.57236 26.2816 5.98217C26.8333 6.06977 26.9593 6.91801 26.6573 7.4032C26.5121 7.63657 26.3679 7.62934 26.1387 7.61784C26.0909 7.61544 26.0394 7.61286 25.9833 7.61223C24.0402 7.59058 22.0029 8.39462 20.533 9.91387L19.3677 11.1183L18.2024 9.91386C15.3226 6.93731 10.6535 6.93731 7.77375 9.91386C4.89394 12.8904 4.89394 17.7163 7.77374 20.6929L19.3676 32.6764L30.9616 20.693C33.0844 18.4989 33.7783 15.4571 32.7898 12.7557Z" fill="#045762"/>
</g>
<defs>
<clipPath id="clip0_177_1349">
<rect width="40" height="40" fill="white"/>
</clipPath>
</defs>
</svg>
