<svg width="80" height="80" viewBox="0 0 80 80" fill="none" xmlns="http://www.w3.org/2000/svg">
<path opacity="0.6" d="M38.8875 15.9983H30.8869C28.7653 15.9983 26.7306 16.8411 25.2304 18.3414C23.7302 19.8417 22.8875 21.8766 22.8875 23.9983C22.8875 26.12 23.7302 28.1549 25.2304 29.6551C26.7306 31.1554 28.7653 31.9983 30.8869 31.9983H38.8875V15.9983Z" fill="currentColor"/>
<path opacity="0.4" d="M38.8875 31.9983H30.8863C28.7648 31.9983 26.7303 32.8411 25.2302 34.3414C23.7302 35.8417 22.8875 37.8766 22.8875 39.9983C22.8875 42.12 23.7302 44.1549 25.2302 45.6551C26.7303 47.1554 28.7648 47.9983 30.8863 47.9983H38.8875V31.9983Z" fill="currentColor"/>
<path d="M54.8875 39.9983C54.8875 42.12 54.0446 44.1549 52.5443 45.6551C51.044 47.1554 49.0092 47.9983 46.8875 47.9983C44.7657 47.9983 42.7309 47.1554 41.2306 45.6551C39.7303 44.1549 38.8875 42.12 38.8875 39.9983C38.8875 37.8766 39.7303 35.8417 41.2306 34.3414C42.7309 32.8411 44.7657 31.9983 46.8875 31.9983C49.0092 31.9983 51.044 32.8411 52.5443 34.3414C54.0446 35.8417 54.8875 37.8766 54.8875 39.9983Z" fill="currentColor"/>
<path opacity="0.2" d="M30.8851 48.0007H38.8875V56.0007C38.887 57.5827 38.4174 59.1291 37.5382 60.4443C36.659 61.7596 35.4095 62.7846 33.9478 63.3898C32.4861 63.995 30.8778 64.1532 29.3261 63.8445C27.7745 63.5357 26.3493 62.7738 25.2306 61.6551C24.1119 60.5365 23.35 59.1112 23.0413 57.5596C22.7325 56.008 22.8908 54.3996 23.496 52.9379C24.1012 51.4762 25.1262 50.2268 26.4414 49.3475C27.7566 48.4683 29.303 48.0012 30.8851 48.0007Z" fill="currentColor"/>
<path opacity="0.8" d="M38.8875 15.9983H46.8868C49.0087 15.9983 51.0437 16.8411 52.5441 18.3414C54.0445 19.8417 54.8875 21.8766 54.8875 23.9983C54.8875 26.12 54.0445 28.1549 52.5441 29.6551C51.0437 31.1554 49.0087 31.9983 46.8868 31.9983H38.8875V15.9983Z" fill="currentColor"/>
</svg>
