<svg width="47" height="34" viewBox="0 0 47 34" fill="none" xmlns="http://www.w3.org/2000/svg">
<path d="M0.462242 11.6891C0.546154 11.4814 0.662491 11.3183 0.811252 11.1998C0.975817 11.0838 1.21449 10.9717 1.52728 10.8634L13.9106 6.43207C14.0076 6.40008 14.1035 6.39159 14.1983 6.40661C14.3406 6.42914 14.4411 6.49241 14.5 6.59644C14.5588 6.70047 14.5613 6.81924 14.5073 6.95275L13.0509 10.5576C12.961 10.7802 12.8258 10.9482 12.6455 11.0617C12.4869 11.1628 12.3294 11.2405 12.173 11.2946C12.0324 11.3513 11.9433 11.3845 11.9057 11.3944L6.76848 13.1851L9.92781 16.2899C9.95342 16.3097 10.0194 16.3754 10.1256 16.487C10.2477 16.601 10.3213 16.731 10.3463 16.8771C10.3872 17.0256 10.3717 17.1889 10.2998 17.3669L8.84329 20.9718C8.78935 21.1053 8.69699 21.209 8.56621 21.283C8.43542 21.357 8.29892 21.3828 8.15669 21.3602C8.06187 21.3452 7.98395 21.3092 7.92291 21.2522L0.394466 13.6672C0.201555 13.4788 0.0767609 13.3091 0.0200832 13.158C-0.0207915 13.0095 0.000727087 12.8314 0.084639 12.6237L0.462242 11.6891Z" fill="currentColor"/>
<path d="M45.8772 17.8652C45.8268 18.0835 45.7295 18.2588 45.5854 18.3913C45.4573 18.5249 45.2475 18.6608 44.9561 18.7988L33.443 24.4096C33.3524 24.4508 33.2592 24.468 33.1634 24.4613C33.0198 24.4513 32.9109 24.3961 32.8367 24.2959C32.7625 24.1957 32.7417 24.0754 32.774 23.9351L33.6487 20.1467C33.7026 19.9129 33.7999 19.7375 33.9404 19.6206C34.1005 19.4892 34.2454 19.3885 34.3751 19.3183C34.5208 19.2493 34.6114 19.2081 34.6469 19.1948L39.4306 16.9154L35.8347 14.0501C35.8064 14.0323 35.7232 13.971 35.5852 13.8663C35.4631 13.7627 35.3704 13.6374 35.307 13.4904C35.2596 13.3445 35.2575 13.178 35.3007 12.991L36.1753 9.20261C36.2077 9.0623 36.2826 8.94872 36.3999 8.86188C36.5173 8.77503 36.6478 8.73663 36.7915 8.74668C36.8872 8.75338 36.9696 8.7829 37.0386 8.83525L45.6364 15.8523C45.8558 16.0261 45.9971 16.1865 46.0605 16.3335C46.1398 16.4816 46.1543 16.6648 46.1039 16.883L45.8772 17.8652Z" fill="currentColor"/>
<path d="M22.5933 31.5001C19.0933 34.0001 16.0933 33.5001 12.0933 33.5005C17.5933 29.0005 11.9897 26.3108 13.0933 23.0001C14.1968 19.6894 20.1972 19.1574 23.0933 21.0002C25.9893 22.843 26.0933 29.0001 22.5933 31.5001Z" fill="currentColor"/>
<path d="M17.5933 21L27.8123 1.53517C27.9851 1.20611 28.326 1 28.6977 1H30.6349C31.3373 1 31.8208 1.70518 31.5677 2.3604L23.5933 23" stroke="currentColor" stroke-width="2"/>
</svg>
