<svg width="80" height="80" viewBox="0 0 80 80" fill="none" xmlns="http://www.w3.org/2000/svg">
<path d="M39.9999 24C32.8799 24 28.4533 27.5467 26.6666 34.6667C29.3333 31.12 32.4533 29.7867 35.9999 30.6667C38.0266 31.1733 39.4932 32.64 41.0933 34.2667C43.7066 36.9333 46.6666 40 53.3332 40C60.4533 40 64.8799 36.4533 66.6666 29.3333C63.9999 32.88 60.8799 34.2133 57.3332 33.3333C55.3066 32.8267 53.8666 31.36 52.2399 29.7333C49.6266 27.0667 46.6666 24 39.9999 24ZM26.6666 40C19.5466 40 15.1199 43.5467 13.3333 50.6667C15.9999 47.12 19.1199 45.7867 22.6666 46.6667C24.6933 47.1733 26.1333 48.64 27.7599 50.2667C30.3733 52.9333 33.3333 56 39.9999 56C47.1199 56 51.5466 52.4533 53.3332 45.3333C50.6666 48.88 47.5466 50.2133 43.9999 49.3333C41.9732 48.8267 40.5333 47.36 38.9066 45.7333C36.2933 43.0667 33.3333 40 26.6666 40Z" fill="currentColor"/>
</svg>
